<svg width="24" height="24" viewBox="0 0 24 24" fill="none" xmlns="http://www.w3.org/2000/svg">
<path d="M7.67449 16.7366L6.49387 15.5495L6.03954 16.0007L7.75128 17.722L9.80536 14.8744L9.28704 14.5001L7.67449 16.7366ZM19.1895 0.742188H6.07793V12.8491C4.88131 13.473 4.06224 14.7241 4.06224 16.1638C4.06224 17.0565 4.37899 17.8788 4.90371 18.5251L3 22.1309L5.05729 21.667L5.91476 23.4139L7.76727 19.9041C7.76727 19.9041 7.78967 19.9041 7.80247 19.9041C7.82486 19.9041 7.85046 19.9041 7.87286 19.9009L9.72538 23.4107L10.5828 21.6638L12.6401 22.1277L11.4499 19.8753H19.1863V0.742188H19.1895ZM5.93715 21.9998L5.41243 20.9279L4.21581 21.1967L5.35804 18.9858C5.84117 19.4049 6.42988 19.7025 7.08258 19.8305L5.94035 21.9966L5.93715 21.9998ZM8.07443 19.2514C7.98804 19.2578 7.89845 19.2642 7.80887 19.2642C7.72888 19.2642 7.65209 19.2578 7.5721 19.2514C7.51131 19.245 7.45372 19.2386 7.39613 19.2322C5.87956 19.0338 4.70214 17.7348 4.70214 16.1638C4.70214 15.0664 5.27485 14.1034 6.13552 13.553C6.21231 13.505 6.2891 13.4571 6.36909 13.4155C6.38828 13.4059 6.40428 13.3995 6.42348 13.3899C6.51626 13.3451 6.60905 13.3035 6.70503 13.2651C7.04738 13.1371 7.41533 13.0603 7.79927 13.0603C9.50781 13.0603 10.8996 14.4521 10.8996 16.1606C10.8996 17.7412 9.71258 19.0434 8.18321 19.2354C8.14482 19.2386 8.10642 19.245 8.07123 19.2482L8.07443 19.2514ZM10.2309 20.9311L9.70618 22.0029L8.56075 19.8305C9.20066 19.6993 9.78297 19.3985 10.2565 18.9826L10.3909 19.2354L10.5764 19.5841L11.4275 21.1967L10.2309 20.9279V20.9311ZM18.5496 19.2386H11.114L10.7236 18.4995C11.2355 17.8596 11.5459 17.0501 11.5459 16.167C11.5459 14.1033 9.86935 12.4268 7.80567 12.4268C7.42812 12.4268 7.06338 12.4844 6.72103 12.59V1.38529H18.5528V19.2386H18.5496ZM13.7248 8.87215H9.5494V9.51205H13.7248V8.87215ZM17.0363 5.15111H9.5494V5.79102H17.0363V5.15111ZM17.0363 7.13482H9.5494V7.77472H17.0363V7.13482Z" fill="white" stroke="white" stroke-width="0.5"/>
</svg>
