<svg width="36" height="36" viewBox="0 0 36 36" fill="none" xmlns="http://www.w3.org/2000/svg">
<rect width="36" height="36" rx="18" fill="#5b6770"/>
<g clip-path="url(#clip0_9904_28527)">
<path d="M17.5749 10.3011L10.3016 17.5744C10.0665 17.8095 10.0665 18.1905 10.3016 18.4256L17.5749 25.6989C17.8099 25.9339 18.191 25.9339 18.4261 25.6989L25.6994 18.4256C25.9344 18.1905 25.9344 17.8095 25.6994 17.5744L18.4261 10.3011C18.191 10.0661 17.8099 10.0661 17.5749 10.3011Z" fill="white"/>
<path d="M15.1875 19.6875V19.125C15.1875 18.6774 15.3653 18.2482 15.6818 17.9318C15.9982 17.6153 16.4274 17.4375 16.875 17.4375H20.8125" stroke="#5b6770" stroke-width="1.125" stroke-linecap="round" stroke-linejoin="round"/>
<path d="M19.125 15.75L20.8125 17.4375L19.125 19.125" stroke="#5b6770" stroke-width="1.125" stroke-linecap="round" stroke-linejoin="round"/>
</g>
<defs>
<clipPath id="clip0_9904_28527">
<rect width="18" height="18" fill="white" transform="translate(9 9)"/>
</clipPath>
</defs>
</svg>
