<?xml version="1.0" encoding="UTF-8"?>
<svg version="1.1" xmlns="http://www.w3.org/2000/svg" width="816" height="816">
<path d="M0 0 C7.94649237 6.65560648 12.26317221 15.83834083 13.25 26 C14.35638448 43.72473103 14.35638448 43.72473103 12.5625 47.3125 C14.1259314 47.29678955 14.1259314 47.29678955 15.72094727 47.28076172 C19.66280554 47.24400846 23.60464939 47.2214027 27.54663086 47.20263672 C29.23871423 47.19270308 30.93078102 47.17915157 32.62280273 47.16162109 C57.58219213 46.90988 79.28833624 50.11827663 98.21484375 67.875 C113.29884657 83.53626083 117.96493654 102.12746048 118.12524414 123.29785156 C118.14737639 124.85838789 118.17056532 126.41890952 118.19471741 127.97941589 C118.26739317 133.05385307 118.30907396 138.12833155 118.34765625 143.203125 C118.36245169 144.96383477 118.37732383 146.72454389 118.39227104 148.48525238 C118.45226017 155.81503966 118.50420517 163.14480493 118.53426456 170.47478104 C118.57728162 180.914866 118.66807217 191.35197828 118.82643038 201.79097199 C118.93448211 209.16978781 118.98791418 216.54781719 119.00174993 223.92740417 C119.01133997 228.31822833 119.04353977 232.70593625 119.13441658 237.09589386 C119.75516729 268.62309773 119.75516729 268.62309773 110.86108398 278.58496094 C109.08124362 280.3534137 107.2608481 282.02057411 105.3567028 283.65387726 C102.23664349 286.53816733 99.81708297 289.95931605 97.3125 293.375 C95.77997026 295.41918353 94.22582012 297.36887964 92.5625 299.3125 C91.9025 299.3125 91.2425 299.3125 90.5625 299.3125 C90.5625 262.0225 90.5625 224.7325 90.5625 186.3125 C-90.6075 186.3125 -271.7775 186.3125 -458.4375 186.3125 C-458.47875 241.2575 -458.52 296.2025 -458.5625 352.8125 C-458.58070801 370.15619141 -458.59891602 387.49988281 -458.61767578 405.36914062 C-458.624365 420.92718466 -458.624365 420.92718466 -458.62838745 436.48522949 C-458.63024937 443.41037357 -458.6375724 450.33548522 -458.64865112 457.26062012 C-458.66142294 465.25596764 -458.66716229 473.25128417 -458.6643899 481.24664196 C-458.66319015 485.33259605 -458.66503151 489.41848094 -458.67593026 493.50442219 C-458.68575284 497.20964592 -458.68608915 500.91475233 -458.67930222 504.61998177 C-458.67807074 506.57269374 -458.68660854 508.52540463 -458.69566154 510.47809601 C-458.64497354 525.74353486 -457.65176065 539.64289161 -448.4375 552.3125 C-447.880625 553.1375 -447.32375 553.9625 -446.75 554.8125 C-439.2974426 562.86931881 -428.18277968 567.92762001 -417.23338628 568.4095031 C-414.53823643 568.45496745 -411.84461447 568.46798068 -409.14907837 568.47071838 C-407.59780575 568.47812535 -407.59780575 568.47812535 -406.0151943 568.48568195 C-402.55130951 568.50103488 -399.08744324 568.50941164 -395.62353516 568.51782227 C-393.13992144 568.52740252 -390.65630936 568.53741269 -388.17269897 568.54782104 C-382.82638717 568.56925884 -377.48007786 568.58770618 -372.1337471 568.60342598 C-364.40389575 568.62615922 -356.67407146 568.65429721 -348.94424312 568.68374526 C-336.4024566 568.73137888 -323.86065899 568.77465449 -311.31884766 568.81518555 C-299.13719826 568.85456202 -286.9555587 568.89599339 -274.77392578 568.94018555 C-274.02277924 568.94290982 -273.27163269 568.94563409 -272.49772413 568.94844092 C-268.72936186 568.96212075 -264.96099973 568.97584095 -261.19263768 568.98958123 C-229.9409453 569.10347953 -198.68923205 569.21003448 -167.4375 569.3125 C-167.7675 577.8925 -168.0975 586.4725 -168.4375 595.3125 C-201.35569316 595.38037965 -234.27385928 595.4340615 -267.19210632 595.46569599 C-271.08217256 595.46944792 -274.97223866 595.4733309 -278.86230469 595.47729492 C-279.6367168 595.47808185 -280.41112892 595.47886878 -281.20900807 595.47967956 C-293.73305158 595.4927183 -306.2570536 595.51636366 -318.78107253 595.54395839 C-331.640669 595.5720553 -344.50024381 595.58868531 -357.35986972 595.59476548 C-365.28906996 595.59887305 -373.2181529 595.6118264 -381.14731702 595.6362494 C-387.23684586 595.65404574 -393.32627471 595.65585483 -399.41583252 595.65182304 C-401.90703807 595.65264627 -404.39824819 595.65858546 -406.88942719 595.67011642 C-410.30105892 595.68512921 -413.71219621 595.68142136 -417.12384033 595.67326355 C-418.10053279 595.68200207 -419.07722525 595.6907406 -420.08351445 595.69974393 C-438.51559441 595.58130546 -453.52892818 587.4536346 -466.76953125 575.14453125 C-475.69636443 566.06562255 -481.66480307 553.70943422 -484.4375 541.3125 C-484.60948023 540.59386554 -484.78146045 539.87523107 -484.9586522 539.13481981 C-485.53629697 535.73019252 -485.56694097 532.4967647 -485.57172108 529.04210186 C-485.57407331 528.31681387 -485.57642554 527.59152588 -485.57884905 526.84425947 C-485.58552114 524.40695606 -485.58508136 521.96970618 -485.58467102 519.53239441 C-485.58797078 517.76994204 -485.59169658 516.00749042 -485.5958125 514.24503976 C-485.60582822 509.39595002 -485.60954862 504.54687267 -485.61220181 499.69777405 C-485.61610622 494.4698262 -485.62568459 489.24188814 -485.63441467 484.01394653 C-485.65417703 471.38403009 -485.66424581 458.75411285 -485.67314246 446.12418482 C-485.67752646 440.17447242 -485.68289304 434.22476091 -485.68813133 428.27504921 C-485.70514473 408.49232639 -485.71963784 388.70960413 -485.72688007 368.92687511 C-485.72878993 363.79312832 -485.73071027 358.65938154 -485.73266602 353.52563477 C-485.73314976 352.2496855 -485.7336335 350.97373624 -485.7341319 349.65912185 C-485.74242818 328.99996919 -485.76775785 308.34087451 -485.80024669 287.68174716 C-485.83334089 266.46439761 -485.85133104 245.2470775 -485.85452431 224.02970201 C-485.85668741 212.11989994 -485.86540661 200.21018238 -485.89098549 188.3004055 C-485.91272485 178.15494742 -485.92072703 168.00959436 -485.91101871 157.86411562 C-485.90648318 152.69151096 -485.90831671 147.51912285 -485.92778015 142.34654808 C-485.94547833 137.60191973 -485.94436039 132.85766483 -485.92888286 128.11303214 C-485.92651683 126.40563581 -485.93077755 124.69821317 -485.94271151 122.99085691 C-486.08738155 100.90770071 -480.29884089 81.60973211 -464.57421875 65.390625 C-445.98687463 47.99625741 -423.09187542 46.97797515 -399.125 47.1875 C-397.11263468 47.19755291 -395.10026448 47.20667466 -393.08789062 47.21484375 C-388.2043046 47.23666714 -383.32095743 47.27106885 -378.4375 47.3125 C-378.45321045 46.50619141 -378.4689209 45.69988281 -378.48510742 44.86914062 C-378.54781976 41.1836663 -378.5866062 37.49830465 -378.625 33.8125 C-378.65013672 32.5440625 -378.67527344 31.275625 -378.70117188 29.96875 C-378.77862536 20.05470374 -378.04471866 13.4270435 -370.9375 6 C-370.1640625 5.17886719 -369.390625 4.35773438 -368.59375 3.51171875 C-367.8821875 2.78597656 -367.170625 2.06023437 -366.4375 1.3125 C-365.93605469 0.7659375 -365.43460937 0.219375 -364.91796875 -0.34375 C-358.49893341 -6.16999843 -349.49544543 -6.42858246 -341.28125 -6.06640625 C-332.34248744 -5.18524775 -325.31394127 -1.50972045 -319.4375 5.3125 C-310.33322795 18.68566406 -311.4375 30.65200168 -311.4375 47.3125 C-226.2975 47.3125 -141.1575 47.3125 -53.4375 47.3125 C-53.4375 38.7325 -53.4375 30.1525 -53.4375 21.3125 C-49.14909095 9.51937511 -45.75917518 2.39251855 -34.921875 -3.53515625 C-23.42489699 -8.86787404 -10.42956026 -7.20040795 0 0 Z M-349.05126953 23.38549805 C-351.97970629 26.97758197 -352.11846676 28.80472849 -352.2421875 33.39453125 C-352.26618622 34.08674271 -352.29018494 34.77895416 -352.31491089 35.49214172 C-352.38402671 37.76591992 -352.41409683 40.03781845 -352.4375 42.3125 C-352.45059204 43.09026794 -352.46368408 43.86803589 -352.47717285 44.66937256 C-352.55853615 49.60268393 -352.58029548 54.5341036 -352.56787109 59.46801758 C-352.56248295 62.0080353 -352.56787055 64.54787801 -352.57421875 67.08789062 C-352.5796477 74.29551752 -352.52616735 81.50693682 -352.1796875 88.70703125 C-352.13440918 89.6813208 -352.08913086 90.65561035 -352.04248047 91.65942383 C-351.28085 94.99947155 -349.71672244 96.80455778 -347.4375 99.3125 C-343.15191948 99.00968435 -343.15191948 99.00968435 -339.78076172 96.60913086 C-338.1769689 93.86705906 -337.94545542 91.97842868 -337.7578125 88.81640625 C-337.69368164 87.75180176 -337.62955078 86.68719727 -337.56347656 85.59033203 C-337.36683553 80.4738544 -337.28895284 75.37011119 -337.3125 70.25 C-337.31660889 69.14744873 -337.32071777 68.04489746 -337.32495117 66.90893555 C-337.38021068 58.47918597 -337.51606991 50.05166875 -337.75 41.625 C-337.77239746 40.49763428 -337.79479492 39.37026855 -337.81787109 38.20874023 C-338.01848013 32.22178609 -338.43840938 27.55908433 -341.4375 22.3125 C-344.99150742 20.44196978 -345.9179022 20.90040352 -349.05126953 23.38549805 Z M-24.65515137 22.87974548 C-27.0412221 26.13652939 -26.94479129 28.21742992 -26.95507812 32.23657227 C-26.9620874 32.924841 -26.96909668 33.61310974 -26.97631836 34.32223511 C-26.99388794 36.59153891 -26.98228202 38.85959035 -26.96875 41.12890625 C-26.97144494 42.7078424 -26.97532738 44.28677693 -26.98034668 45.8657074 C-26.98624 49.17194446 -26.97768343 52.47774883 -26.95898438 55.78393555 C-26.93617565 60.02350766 -26.94933023 64.26206799 -26.97327423 68.50160313 C-26.98772109 71.7607131 -26.98313179 75.01958271 -26.97276306 78.27869987 C-26.97009363 79.84202125 -26.97337316 81.40536441 -26.98268127 82.96866035 C-26.99283138 85.15230347 -26.97737169 87.33430183 -26.95507812 89.51782227 C-26.95189575 90.76040298 -26.94871338 92.0029837 -26.94543457 93.28321838 C-26.7167233 96.37973128 -26.7167233 96.37973128 -24.60046387 98.24497986 C-21.52159068 99.76454253 -19.6678451 99.29564851 -16.4375 98.3125 C-14.01339616 94.67634425 -14.17393589 92.94156352 -14.14697266 88.60961914 C-14.14025543 87.93285629 -14.13353821 87.25609344 -14.12661743 86.55882263 C-14.10761979 84.32169249 -14.10371253 82.08486203 -14.1015625 79.84765625 C-14.09513621 78.29210791 -14.08840797 76.7365608 -14.08139038 75.18101501 C-14.06941352 71.92020871 -14.06571001 68.65950839 -14.06689453 65.39868164 C-14.06709784 61.22090396 -14.03978553 57.04380561 -14.00535011 52.866189 C-13.98311044 49.65340556 -13.97905606 46.44078643 -13.98011398 43.22793388 C-13.97775398 41.6877451 -13.96890795 40.14755205 -13.95344925 38.60743904 C-13.9338454 36.45273394 -13.93960318 34.29950439 -13.95166016 32.14477539 C-13.9473851 30.30635826 -13.9473851 30.30635826 -13.94302368 28.43080139 C-14.20482425 25.24131648 -14.20482425 25.24131648 -16.21786499 22.88548279 C-19.39846796 20.63149342 -21.47119342 20.62959752 -24.65515137 22.87974548 Z M-449.56640625 89.7734375 C-454.95560177 97.08654206 -457.72247506 104.32482471 -458.625 113.375 C-458.70468018 114.13377441 -458.78436035 114.89254883 -458.86645508 115.67431641 C-460.18604056 129.78863674 -460.02060132 144.22704251 -458.4375 158.3125 C-443.15049056 159.05173572 -427.90752619 159.45844335 -412.60360718 159.43948364 C-410.52379823 159.44063988 -408.44398949 159.44223075 -406.36418116 159.44421089 C-400.72588181 159.44833512 -395.08759966 159.44634524 -389.44930029 159.44322467 C-383.33881363 159.4409423 -377.22832972 159.44446416 -371.11784363 159.44720459 C-359.86592337 159.45137604 -348.61400853 159.45104047 -337.3620884 159.44829312 C-326.96457309 159.44576717 -316.56705977 159.44512568 -306.16954422 159.44631577 C-305.47705429 159.44639215 -304.78456435 159.44646854 -304.07108987 159.44654724 C-301.25933422 159.44685863 -298.44757858 159.44717703 -295.63582293 159.447507 C-269.31769805 159.45055861 -242.99957659 159.44780419 -216.68145223 159.4424101 C-193.3488309 159.43766427 -170.01621503 159.43809087 -146.68359375 159.44287109 C-120.40737341 159.44823652 -94.1311561 159.45034315 -67.85493529 159.44725883 C-65.04923161 159.44693816 -62.24352793 159.44662532 -59.43782425 159.44631577 C-58.74709887 159.44623669 -58.0563735 159.44615761 -57.34471705 159.44607614 C-46.95765858 159.44494322 -36.57060232 159.44626038 -26.18354416 159.44879532 C-14.3632971 159.45166582 -2.54305525 159.45082048 9.27719142 159.44551457 C15.29917978 159.44289982 21.32115711 159.44183448 27.34314537 159.44516373 C32.86994312 159.44817284 38.39671974 159.44645815 43.9235156 159.44118617 C45.90837145 159.44008149 47.89322914 159.44060905 49.87808378 159.44306196 C63.46555244 159.45854778 76.99429282 159.03886968 90.5625 158.3125 C90.57963698 156.77364173 90.59668716 155.23478249 90.61370087 153.69592285 C90.62320503 152.83897072 90.63270919 151.98201859 90.64250135 151.09909821 C90.6837034 147.17225097 90.70502297 143.24535014 90.72729492 139.31835938 C90.74228213 137.16922524 90.76267887 135.02012117 90.78881836 132.87109375 C90.99754636 115.25608788 90.83761815 100.38409511 78.4375 86.5625 C68.80181693 77.54503553 56.4525351 74.96256634 43.71484375 75.1171875 C42.81754044 75.1200174 41.92023712 75.12284729 40.9957428 75.12576294 C38.16368586 75.13685021 35.33195939 75.16193253 32.5 75.1875 C30.56575981 75.19754463 28.63151461 75.20666787 26.69726562 75.21484375 C21.9855521 75.23675186 17.27408184 75.27120099 12.5625 75.3125 C12.8925 80.5925 13.2225 85.8725 13.5625 91.3125 C12.9025 91.3125 12.2425 91.3125 11.5625 91.3125 C11.8925 92.3025 12.2225 93.2925 12.5625 94.3125 C11.86747469 103.33128087 8.46604626 111.97133825 1.8125 118.1875 C-5.92048704 124.39732292 -14.60662205 127.14458058 -24.4375 126.3125 C-33.57146865 124.6231453 -41.41684511 120.64557842 -46.8125 112.9375 C-54.59036017 100.79312184 -52.82739941 90.56501468 -53.4375 75.3125 C-138.5775 75.3125 -223.7175 75.3125 -311.4375 75.3125 C-311.7675 82.2425 -312.0975 89.1725 -312.4375 96.3125 C-314.28835504 105.9564289 -317.47864356 114.91630049 -325.8125 120.75 C-327.33287418 121.64151509 -328.87419386 122.49861381 -330.4375 123.3125 C-331.06398438 123.65152344 -331.69046875 123.99054688 -332.3359375 124.33984375 C-340.0941269 127.89158869 -349.28637639 127.3160565 -357.25 124.75 C-365.57205071 121.29762088 -371.53214364 115.41081649 -375.4375 107.3125 C-377.02741407 103.11427351 -377.71846766 99.51992212 -377.8515625 95.0390625 C-377.89023437 93.88535156 -377.92890625 92.73164063 -377.96875 91.54296875 C-377.9996875 90.35316406 -378.030625 89.16335937 -378.0625 87.9375 C-378.10117187 86.72449219 -378.13984375 85.51148438 -378.1796875 84.26171875 C-378.27363786 81.27879479 -378.35930807 78.29587175 -378.4375 75.3125 C-384.44738078 75.21255315 -390.45676263 75.14052906 -396.46728516 75.09277344 C-398.5057825 75.07283546 -400.544224 75.04567498 -402.58251953 75.01074219 C-420.39622862 74.71340978 -436.9951187 75.24149042 -449.56640625 89.7734375 Z " fill="#030303" transform="translate(530.4375,65.6875)"/>
<path d="M0 0 C0.90896206 -0.00297112 1.81792411 -0.00594224 2.75443047 -0.0090034 C5.81287396 -0.01770379 8.87127838 -0.01919978 11.92973328 -0.02069092 C14.11745793 -0.02531813 16.30518177 -0.03034265 18.49290466 -0.03573608 C24.44541908 -0.04887106 30.3979222 -0.05530713 36.35044885 -0.05974674 C40.06738643 -0.06267557 43.78432092 -0.06678 47.50125694 -0.07125092 C59.7934076 -0.08571491 72.08554977 -0.09504297 84.37770817 -0.09911743 C85.04053564 -0.0993402 85.7033631 -0.09956296 86.38627625 -0.09979248 C87.04991297 -0.10001391 87.7135497 -0.10023534 88.39729663 -0.10046348 C99.15015059 -0.10441134 109.90293678 -0.12186514 120.65576456 -0.145152 C131.69611304 -0.1688685 142.73642581 -0.18107003 153.77679986 -0.18249393 C159.97533747 -0.18354321 166.17377949 -0.18947738 172.37229347 -0.20731354 C178.20237359 -0.22376289 184.03228596 -0.22596493 189.86238098 -0.21717453 C192.0029565 -0.21640249 194.14354092 -0.2207688 196.28409386 -0.23063278 C199.20505911 -0.24330429 202.12542591 -0.23750143 205.04638672 -0.22705078 C205.89454478 -0.23510719 206.74270284 -0.24316359 207.61656266 -0.25146413 C212.5495826 -0.21015252 215.95046902 0.38743059 220.21366882 3.14044189 C224.03721027 7.99737292 225.33566745 11.69503227 225.34509659 17.76730061 C225.34893773 18.69753113 225.35277888 19.62776166 225.35673642 20.58618098 C225.35586994 21.60474703 225.35500346 22.62331307 225.35411072 23.67274475 C225.35708184 24.75744842 225.36005296 25.84215208 225.36311412 26.95972556 C225.37180971 30.60696753 225.37331009 34.2541767 225.37480164 37.90142822 C225.37942916 40.51131765 225.38445373 43.1212064 225.3898468 45.73109436 C225.40342376 52.83027294 225.40945374 59.92944586 225.41385746 67.02863526 C225.41662074 71.46168974 225.42085824 75.89474203 225.42536163 80.32779503 C225.43755306 92.60271601 225.44785289 104.87763524 225.45123672 117.15256214 C225.45156607 118.3307869 225.45156607 118.3307869 225.45190208 119.53281419 C225.45212035 120.32016974 225.45233863 121.10752529 225.45256352 121.91874009 C225.45300699 123.51420645 225.45345355 125.10967281 225.4539032 126.70513916 C225.45423534 127.89224719 225.45423534 127.89224719 225.4545742 129.10333719 C225.45852253 141.92796867 225.47597817 154.75254335 225.49926272 167.57715289 C225.52297806 180.74535009 225.53543864 193.91351879 225.53660464 207.0817377 C225.53752126 214.4746823 225.54327022 221.86755286 225.56142426 229.26047707 C225.57843773 236.21338661 225.5800765 243.16615343 225.57128525 250.11907768 C225.57051312 252.67204794 225.57488056 255.22502566 225.5847435 257.77797699 C225.59741211 261.26121596 225.59161341 264.74395289 225.5811615 268.22718811 C225.59324611 269.74499893 225.59324611 269.74499893 225.60557485 271.29347259 C225.56540587 277.01146196 225.02667284 281.11560012 222.21366882 286.14044189 C216.09478004 291.08762857 211.09150463 291.2887906 203.46566772 291.28088379 C202.57289102 291.28385491 201.68011431 291.28682603 200.76028377 291.28988719 C197.76255827 291.2985731 194.76487271 291.30008235 191.76713562 291.30157471 C189.62029434 291.30620292 187.47345388 291.31122759 185.32661438 291.31661987 C179.48979084 291.32974478 173.65297879 291.33618892 167.8161428 291.34063053 C164.17038362 291.34356087 160.5246276 291.34766559 156.87887001 291.3521347 C145.4745309 291.36580934 134.07019899 291.37547639 122.66585225 291.3793366 C109.49654904 291.3838186 96.32734956 291.40137331 83.1580779 291.43033719 C72.98132447 291.45194345 62.80460025 291.4620403 52.62782413 291.46337771 C46.5483173 291.46442642 40.46890798 291.47034831 34.38942528 291.48819733 C28.67095332 291.50465986 22.95265238 291.50684227 17.23416519 291.49805832 C15.13593526 291.497287 13.03769621 291.50164315 10.93948936 291.51151657 C8.07366245 291.52421077 5.20844353 291.51837286 2.34262085 291.50793457 C1.51362154 291.51599097 0.68462223 291.52404738 -0.16949826 291.53234792 C-6.84305119 291.47555374 -11.50209209 290.12673675 -16.66133118 285.64044189 C-19.51448303 282.28379266 -19.91120143 279.86232257 -19.91775894 275.60539627 C-19.92160009 274.67019 -19.92544123 273.73498374 -19.92939878 272.77143788 C-19.92853229 271.7421771 -19.92766581 270.71291632 -19.92677307 269.65246582 C-19.92974419 268.56044947 -19.93271532 267.46843313 -19.93577647 266.34332538 C-19.94448366 262.66533833 -19.94597343 258.98738376 -19.94746399 255.30938721 C-19.95209073 252.6799411 -19.9571152 250.05049567 -19.96250916 247.42105103 C-19.97609558 240.26396383 -19.98211777 233.10688223 -19.98651981 225.94978428 C-19.9892819 221.48105564 -19.99351921 217.01232917 -19.99802399 212.54360199 C-20.0102174 200.1717861 -20.02051635 187.79997195 -20.02389908 175.42815018 C-20.02411864 174.63619666 -20.02433821 173.84424314 -20.02456443 173.02829103 C-20.02478271 172.23443749 -20.02500099 171.44058394 -20.02522588 170.62267423 C-20.02566934 169.01401345 -20.02611591 167.40535267 -20.02656555 165.79669189 C-20.02678698 164.99873981 -20.02700841 164.20078773 -20.02723655 163.37865528 C-20.03118411 150.450496 -20.04863652 137.5223931 -20.07192507 124.5942556 C-20.09564034 111.32212893 -20.10810102 98.05003054 -20.109267 84.77788234 C-20.1101837 77.32567828 -20.11593466 69.87354766 -20.13408661 62.42136383 C-20.14949001 56.07518485 -20.1546067 49.72910202 -20.14634851 43.3829079 C-20.14244271 40.14556065 -20.14500129 36.90844741 -20.15740585 33.67111588 C-20.17007359 30.15936084 -20.1642762 26.64810384 -20.15382385 23.13635254 C-20.16188026 22.11601465 -20.16993666 21.09567675 -20.1782372 20.04441953 C-20.13819684 14.29866053 -19.57850482 10.20274391 -16.78633118 5.14044189 C-11.49405177 0.11277646 -7.00780445 -0.00710316 0 0 Z M7.21366882 27.14044189 C7.21366882 47.27044189 7.21366882 67.40044189 7.21366882 88.14044189 C34.60366882 88.14044189 61.99366882 88.14044189 90.21366882 88.14044189 C90.23429382 78.26106689 90.25491882 68.38169189 90.27616882 58.20294189 C90.28527283 55.07962402 90.29437683 51.95630615 90.30375671 48.73834229 C90.3066756 46.27992801 90.30922422 43.82151325 90.31132507 41.36309814 C90.31644104 40.0727063 90.32155701 38.78231445 90.326828 37.45281982 C90.32694885 36.23477661 90.3270697 35.0167334 90.32719421 33.76177979 C90.32941483 32.69810684 90.33163544 31.6344339 90.33392334 30.53852844 C90.48483645 28.18800775 90.48483645 28.18800775 89.21366882 27.14044189 C86.32623019 26.8952983 83.46255196 26.71640796 80.56913757 26.58575439 C79.67655746 26.5437088 78.78397736 26.50166321 77.86434937 26.45834351 C68.38122534 26.04840649 58.90332623 25.98913251 49.41264343 26.0100708 C46.51748979 26.01545804 43.62248987 26.01006841 40.7273407 26.00372314 C38.82304349 26.00438381 36.91874638 26.00566474 35.01445007 26.00762939 C34.18061295 26.00560516 33.34677582 26.00358093 32.4876709 26.00149536 C24.01166098 26.03348898 15.72319147 26.63988174 7.21366882 27.14044189 Z M116.21366882 27.14044189 C115.4689444 38.05863392 115.10704622 48.94593511 115.08866882 59.89044189 C115.0841571 60.97687988 115.07964539 62.06331787 115.07499695 63.18267822 C115.09011111 71.5779652 115.65212516 79.71728694 116.21366882 88.14044189 C143.27366882 88.14044189 170.33366882 88.14044189 198.21366882 88.14044189 C198.21366882 68.01044189 198.21366882 47.88044189 198.21366882 27.14044189 C183.66982767 26.27672958 183.66982767 26.27672958 169.14335632 26.00762939 C168.09318329 26.00667267 167.04301025 26.00571594 165.96101379 26.00473022 C163.77163126 26.00405852 161.5822466 26.00584106 159.39286804 26.0100708 C156.08699484 26.01544462 152.78125676 26.01008529 149.47538757 26.00372314 C138.34576096 26.00059491 127.30429615 26.15265829 116.21366882 27.14044189 Z M7.21366882 115.14044189 C7.21366882 135.27044189 7.21366882 155.40044189 7.21366882 176.14044189 C28.85898646 176.88683216 50.07724404 177.23423792 71.65116882 176.64044189 C73.46171085 176.59208288 75.27225771 176.54390471 77.08280945 176.49591064 C81.45982099 176.37949927 85.83676035 176.26066379 90.21366882 176.14044189 C90.23679674 168.33468994 90.25458621 160.52894595 90.265481 152.72316837 C90.27070884 149.0989823 90.27780469 145.47481959 90.28910828 141.85064697 C90.29994067 138.35584215 90.3059464 134.86105986 90.30854607 131.36623955 C90.31130433 129.37804801 90.3191157 127.38986558 90.32696533 125.40168762 C90.32707863 123.59993324 90.32707863 123.59993324 90.32719421 121.76177979 C90.32941483 120.69810684 90.33163544 119.6344339 90.33392334 118.53852844 C90.48483645 116.18800775 90.48483645 116.18800775 89.21366882 115.14044189 C86.65776994 115.04538137 84.12898911 115.01487428 81.57279968 115.0269165 C80.77286087 115.02677048 79.97292206 115.02662445 79.14874268 115.026474 C76.49197218 115.02717334 73.8352709 115.03496671 71.17851257 115.04278564 C69.34148192 115.04464975 67.50445076 115.04607369 65.66741943 115.04707336 C60.8225722 115.05089914 55.97775475 115.06072994 51.13291931 115.07177734 C45.32515325 115.08378447 39.51737726 115.08839342 33.70960236 115.09423065 C24.87760377 115.10394166 16.04567059 115.12309779 7.21366882 115.14044189 Z M116.21366882 115.14044189 C114.99116368 145.70090411 114.99116368 145.70090411 116.21366882 176.14044189 C142.61561983 176.93954228 142.61561983 176.93954228 169.02616882 177.26544189 C169.91489685 177.26995361 170.80362488 177.27446533 171.71928406 177.27911377 C180.59367084 177.25940933 189.31344498 176.63489877 198.21366882 176.14044189 C198.21366882 156.01044189 198.21366882 135.88044189 198.21366882 115.14044189 C171.15366882 115.14044189 144.09366882 115.14044189 116.21366882 115.14044189 Z M7.21366882 203.14044189 C7.21366882 223.27044189 7.21366882 243.40044189 7.21366882 264.14044189 C34.60366882 264.14044189 61.99366882 264.14044189 90.21366882 264.14044189 C89.88366882 244.01044189 89.55366882 223.88044189 89.21366882 203.14044189 C62.15366882 203.14044189 35.09366882 203.14044189 7.21366882 203.14044189 Z M116.21366882 203.14044189 C115.39196942 214.64990322 115.39196942 214.64990322 115.08085632 226.11309814 C115.0798996 226.76894394 115.07894287 227.42478973 115.07795715 228.10050964 C115.07728987 229.45862934 115.07903981 230.81675254 115.08329773 232.17486572 C115.08867635 234.20578433 115.08329744 236.23648284 115.07695007 238.26739502 C115.07761094 239.61179653 115.07889229 240.95619791 115.08085632 242.30059814 C115.08198425 243.47243652 115.08311218 244.6442749 115.08427429 245.85162354 C115.26846665 251.9567313 115.77849999 258.04807817 116.21366882 264.14044189 C143.27366882 264.14044189 170.33366882 264.14044189 198.21366882 264.14044189 C198.21366882 244.01044189 198.21366882 223.88044189 198.21366882 203.14044189 C171.15366882 203.14044189 144.09366882 203.14044189 116.21366882 203.14044189 Z " fill="#050505" transform="translate(138.7863311767578,297.85955810546875)"/>
<path d="M0 0 C7.20172605 5.19747211 12.63585848 13.15731228 18.015625 20.15625 C21.25786751 24.3628742 24.61891778 28.46709817 28 32.5625 C28.59143799 33.27929932 29.18287598 33.99609863 29.79223633 34.73461914 C33.92601962 39.73076867 38.11192916 44.68071787 42.31518555 49.6184082 C45.29873339 53.13597628 48.14806363 56.73068778 50.953125 60.390625 C55.56433676 66.26903999 60.37618406 71.98892207 65.13720703 77.74609375 C68.09643492 81.32664314 71.04796687 84.91351865 74 88.5 C75.16662669 89.91669958 76.33329344 91.33336619 77.5 92.75 C84.5 101.25 91.5 109.75 98.5 118.25 C99.36661255 119.30223755 99.36661255 119.30223755 100.25073242 120.37573242 C101.41516316 121.7897885 102.57938906 123.20401329 103.7434082 124.6184082 C106.69261193 128.20144108 109.6455243 131.78130184 112.60546875 135.35546875 C118.45437184 142.42484666 124.24692147 149.5254863 129.88745117 156.76245117 C133.36880931 161.2215687 136.92309919 165.61727349 140.5 170 C144.67417758 175.12347234 148.83416004 180.2570333 152.9375 185.4375 C153.36160156 185.96794922 153.78570313 186.49839844 154.22265625 187.04492188 C160.5126685 195.02611666 165.55893001 203.60444556 170.4375 212.5 C187.19791053 243.34898374 187.19791053 243.34898374 206.828125 272.38671875 C208 274 208 274 208 276 C208.825 275.66226562 209.65 275.32453125 210.5 274.9765625 C231.24462891 266.96580178 252.18552789 267.11327351 272.90625 275.5625 C282.17771654 279.87045415 289.73365209 285.87543449 297 293 C297.76183594 293.72574219 298.52367187 294.45148438 299.30859375 295.19921875 C313.82313093 310.01561806 320.84379683 331.30361667 321.03515625 351.7578125 C320.24134166 370.30596806 314.09229378 386.91637383 302 401 C301.51144531 401.6084375 301.02289062 402.216875 300.51953125 402.84375 C297.29585799 406.85207101 297.29585799 406.85207101 295 408 C298.88853462 416.4126951 305.59102721 422.29579426 314 426 C316.89366479 426.90050063 319.8195739 427.66650019 322.75 428.4375 C332.83007287 431.12173677 332.83007287 431.12173677 336.18359375 436.24609375 C338.231333 440.64530391 338.33203406 442.98642233 336.8125 447.625 C334.48487822 451.95919228 332.7120499 454.4293167 328 456 C313.15286503 457.5558375 298.6681969 452.12839036 286.76953125 443.35546875 C284.8125 441.75 284.8125 441.75 282 439 C282 438.34 282 437.68 282 437 C281.34 437 280.68 437 280 437 C278.4140625 435.42578125 278.4140625 435.42578125 276.625 433.3125 C276.03976562 432.62800781 275.45453125 431.94351562 274.8515625 431.23828125 C272.87340594 428.84696541 270.93142195 426.42916725 269 424 C267.9584375 424.2165625 266.916875 424.433125 265.84375 424.65625 C242.18907445 429.34932872 220.90635917 426.67975338 200.015625 414.07421875 C181.13053849 401.08460614 169.51528952 382.26324831 165 360 C164.46001298 356.98622629 164.13365711 354.05740633 164 351 C163.9484375 350.19949219 163.896875 349.39898438 163.84375 348.57421875 C163.1454128 328.93348505 170.02088709 310.18340317 183.13671875 295.62890625 C184.71282532 294.0400118 186.34878267 292.5106882 188 291 C183.869941 286.02874981 179.56101203 281.50460005 174.8125 277.125 C173.82793823 276.2110144 173.82793823 276.2110144 172.82348633 275.27856445 C168.19706496 271.01752042 163.44649065 266.99137048 158.53125 263.06640625 C155.99861847 260.99887218 153.5926884 258.83886659 151.1875 256.625 C146.14627074 252.03188001 140.82370597 247.86700635 135.44140625 243.6875 C132.4204825 241.33946763 129.45189592 238.93455334 126.5 236.5 C122.33290923 233.07044742 118.11834197 229.70913523 113.875 226.375 C113.2759082 225.89957764 112.67681641 225.42415527 112.05957031 224.93432617 C109.57059846 222.96737944 107.10280918 221.06848673 104.4609375 219.30859375 C97.45292425 214.56642224 93.73194971 207.88886368 89.58007812 200.72558594 C87.76286355 197.59094696 85.92096866 194.47116256 84.078125 191.3515625 C80.7687835 185.74135694 77.4807416 180.11897021 74.201828 174.49093628 C71.90368211 170.54686655 69.59765159 166.60755817 67.28515625 162.671875 C59.53380017 149.46482308 51.98229745 136.15517534 44.54296875 122.77001953 C43.21318386 120.382719 41.87523481 118.00041569 40.53125 115.62109375 C31.69137151 99.92772054 23.37121578 83.9464814 15 68 C14.64987854 67.33347412 14.29975708 66.66694824 13.93902588 65.98022461 C-13.8023459 13.14674329 -13.8023459 13.14674329 -13 4 C-8.9849735 -1.08570023 -6.22618487 -1.39757979 0 0 Z M115 188 C113.85934003 191.92101864 113.54759241 194.00470331 115.25 197.75 C115.8275 198.4925 116.405 199.235 117 200 C117.6496875 200.86625 117.6496875 200.86625 118.3125 201.75 C120.87185052 203.6458152 122.83510827 203.8758866 126 204 C129.33333333 203.16666667 129.33333333 203.16666667 132 201 C134.02696767 196.78390724 134.21659684 194.76445943 132.9375 190.25 C130.85739738 186.7607956 129.74502983 185.48059319 126 184 C120.97296733 183.26689107 118.40192609 184.20928236 115 188 Z M205 312 C195.77439001 322.75442536 191.4370477 335.8204267 191.7578125 349.8984375 C192.74842579 362.58467864 198.28457142 376.43691264 208 385 C221.18595307 395.43067929 234.05185549 400.07887494 251 399 C264.96860093 396.64094107 276.05179731 389.85550894 284.25 378.375 C292.23883065 365.66835598 293.98238514 351.96763378 291.33984375 337.34765625 C289.23898074 329.69905977 285.66299085 323.37446221 281 317 C280.52691406 316.34257813 280.05382812 315.68515625 279.56640625 315.0078125 C271.51421845 304.74298386 258.77780182 298.66963277 246 297 C230.05082777 295.73957909 216.5021422 301.11705958 205 312 Z " fill="#050505" transform="translate(441,301)"/>
<path d="M0 0 C0.66 0 1.32 0 2 0 C2.91233942 1.48666456 3.75399979 3.01690557 4.5625 4.5625 C7.88555792 10.23872813 11.64802708 13.30459013 17 17 C19.00166645 18.41014634 20.99653212 19.82881875 22.98461914 21.25805664 C24.35648567 22.24307325 25.73581615 23.21778677 27.12280273 24.18139648 C28.80316298 25.38122476 30.40918524 26.68375274 32 28 C32 31 32 31 30.52685547 32.56494141 C29.85541504 33.11327637 29.18397461 33.66161133 28.4921875 34.2265625 C25.61509655 36.63785078 22.80127704 39.07218617 20.0703125 41.6484375 C19.42505615 42.256875 18.7797998 42.8653125 18.11499023 43.4921875 C17.45829346 44.11351562 16.80159668 44.73484375 16.125 45.375 C10.84798612 50.34908893 5.52387319 55.25022791 0.109375 60.07421875 C-2.5052545 62.46127865 -4.981789 64.96604092 -7.4609375 67.4921875 C-9.51075367 69.50038304 -11.71442911 71.2685069 -14 73 C-12.55163142 76.24785681 -10.71363433 78.58526128 -8.375 81.25 C5.14272856 97.98740573 10.25164008 118.89256656 8.4921875 140.11328125 C6.36155636 156.93850332 -0.51512681 172.48302539 -12 185 C-12.66386719 185.75539063 -13.32773437 186.51078125 -14.01171875 187.2890625 C-27.01090013 201.27339441 -45.87508847 210.31132611 -64.9296875 211.3203125 C-86.87988295 212.01999262 -106.57553212 205.98426267 -123 191 C-123.91265625 190.22462891 -123.91265625 190.22462891 -124.84375 189.43359375 C-136.8101509 178.58224384 -144.95038067 161.2168714 -146.22143555 145.21166992 C-147.15022929 121.18779594 -143.55408487 100.01529848 -127.27734375 81.45703125 C-126.52582031 80.64621094 -125.77429688 79.83539062 -125 79 C-123.91912109 77.79923828 -123.91912109 77.79923828 -122.81640625 76.57421875 C-117.49333149 70.9285334 -111.72777812 66.82936301 -105 63 C-104.20980469 62.53722656 -103.41960937 62.07445312 -102.60546875 61.59765625 C-86.68442554 52.91105058 -66.67550521 51.16287956 -49.0625 55.25 C-44.20722642 56.75333656 -39.54865462 58.73715919 -35 61 C-34.75378906 60.33097656 -34.50757813 59.66195312 -34.25390625 58.97265625 C-32.71491625 55.32414725 -30.86157763 51.89234422 -28.9375 48.4375 C-28.51629883 47.67953125 -28.09509766 46.9215625 -27.66113281 46.140625 C-21.38048286 34.97307714 -14.62725772 24.07487952 -7.91992188 13.16015625 C-5.62338885 9.38010495 -3.40669451 5.55617521 -1.21777344 1.71289062 C-0.8159082 1.14763672 -0.41404297 0.58238281 0 0 Z M-105.4453125 98.0625 C-114.08005274 108.82338231 -118.17401565 120.52380093 -118.25 134.125 C-118.270625 135.02476562 -118.29125 135.92453125 -118.3125 136.8515625 C-118.38317343 149.14873944 -113.87480879 160.27808059 -105.6484375 169.5 C-94.656512 179.50213126 -82.38321794 183.78623305 -67.63671875 183.31640625 C-52.92845646 182.03674004 -41.09237547 175.75125364 -31.12890625 164.9765625 C-22.92539724 155.20291951 -18.38763019 142.33915253 -18.75 129.54296875 C-20.16784496 115.12082702 -25.11465427 102.30053529 -35.83984375 92.28125 C-56.67819456 75.57647798 -87.38159785 78.7023465 -105.4453125 98.0625 Z " fill="#050505" transform="translate(523,517)"/>
<path d="M0 0 C2.875 2.0625 2.875 2.0625 5 5 C5.70157441 11.13115025 3.94565789 15.29678791 1.375 20.6875 C0.97966064 21.53908691 0.58432129 22.39067383 0.17700195 23.26806641 C-8.25051015 41.23931738 -17.25644116 58.91928339 -26.859375 76.2890625 C-30.20107955 82.33810683 -33.45283698 88.4343462 -36.70440674 94.53207397 C-41.94369532 104.35374773 -47.24899365 114.12833985 -52.75683594 123.80224609 C-54.23771808 126.42025495 -55.70132139 129.04759361 -57.1640625 131.67578125 C-64.2513208 144.40310386 -71.47605899 157.03848297 -78.84375 169.60546875 C-82.6157328 176.04022718 -86.32157937 182.5113574 -90 189 C-93.81346128 187.48318506 -95.67252097 185.25546974 -98.1875 182.0625 C-98.98027344 181.06734375 -99.77304687 180.0721875 -100.58984375 179.046875 C-101.38519531 178.04140625 -102.18054688 177.0359375 -103 176 C-104.41313076 174.26794248 -105.82977257 172.53874328 -107.25 170.8125 C-107.97703125 169.91917969 -108.7040625 169.02585937 -109.453125 168.10546875 C-111.42105269 165.69371398 -113.41881045 163.30841442 -115.421875 160.92578125 C-116.61469707 159.49228214 -117.80740576 158.05868867 -119 156.625 C-119.8647998 155.60756714 -119.8647998 155.60756714 -120.74707031 154.56958008 C-126.31711766 147.83590406 -126.31711766 147.83590406 -126 144 C-124.33978905 141.45818068 -122.72499416 139.33526615 -120.75 137.0625 C-119.63065593 135.72337003 -118.51218513 134.38350969 -117.39453125 133.04296875 C-116.53915771 132.03049072 -116.53915771 132.03049072 -115.66650391 130.99755859 C-113.17925709 128.0162147 -110.81207328 124.94619555 -108.4375 121.875 C-104.36605905 116.65478905 -100.1485592 111.57916251 -95.84790039 106.546875 C-92.6991494 102.85433647 -89.68572186 99.08517995 -86.734375 95.234375 C-83.25112085 90.74693947 -79.60949237 86.38598821 -76 82 C-71.67615356 76.73330459 -67.35975566 71.46372455 -63.125 66.125 C-57.75562624 59.39467606 -52.14558435 52.86704566 -46.56347656 46.31347656 C-39.71509232 38.26906495 -39.71509232 38.26906495 -33.0625 30.0625 C-28.32913784 24.09223044 -23.34805344 18.33844314 -18.36279297 12.57861328 C-17.17455092 11.20219388 -15.99474009 9.8185049 -14.81640625 8.43359375 C-13.91728516 7.38365234 -13.91728516 7.38365234 -13 6.3125 C-12.505 5.73113281 -12.01 5.14976562 -11.5 4.55078125 C-7.86366948 0.79134579 -5.34941954 -0.87337462 0 0 Z " fill="#040404" transform="translate(705,300)"/>
<path d="" fill="#010101" transform="translate(0,0)"/>
</svg>
