<?xml version="1.0" encoding="UTF-8"?>
<svg version="1.1" xmlns="http://www.w3.org/2000/svg" width="859" height="859">
<path d="M0 0 C0.84579553 -0.00583219 1.69159107 -0.01166439 2.56301677 -0.01767331 C3.94946586 -0.01200433 3.94946586 -0.01200433 5.36392403 -0.00622082 C6.84268853 -0.01195914 6.84268853 -0.01195914 8.35132706 -0.01781338 C11.6644279 -0.02815592 14.97735584 -0.02414871 18.29046822 -0.02018261 C20.66240284 -0.02452863 23.03433605 -0.0297114 25.40626717 -0.03567028 C31.18833727 -0.04769438 36.97035332 -0.05020917 42.75243442 -0.04787002 C47.45712531 -0.04608647 52.16180211 -0.04783731 56.86649132 -0.05209446 C57.53632002 -0.05268965 58.20614872 -0.05328484 58.89627526 -0.05389806 C60.25717989 -0.05510985 61.61808451 -0.05632399 62.97898914 -0.05754044 C75.74920329 -0.06842241 88.51939106 -0.06625154 101.28960671 -0.06015559 C112.94877495 -0.054997 124.60785936 -0.06621266 136.26701103 -0.08525381 C148.2521247 -0.10467621 160.23719881 -0.11287981 172.22232831 -0.10913056 C178.94535831 -0.10722374 185.66830665 -0.10992164 192.391325 -0.1238451 C198.72294276 -0.1364658 205.05439387 -0.13443914 211.38600922 -0.12143421 C213.70221514 -0.11907737 216.01843294 -0.12177088 218.33462524 -0.13005733 C233.70801152 -0.18106252 247.29714133 0.81508719 261.798769 6.36385059 C262.97019447 6.7986977 262.97019447 6.7986977 264.16528511 7.2423296 C266.61430159 8.15404206 269.05804608 9.07901204 271.501894 10.00447559 C273.11615612 10.6068995 274.73073875 11.2084653 276.345644 11.80916309 C280.34801181 13.30137369 284.34118977 14.81666273 288.33224678 16.33882618 C290.81794823 17.27947201 293.31049131 18.20004949 295.80438423 19.11873341 C297.42635083 19.72610592 299.04818204 20.33384015 300.66986275 20.94197559 C301.41576668 21.21217518 302.16167061 21.48237476 302.93017769 21.76076221 C308.63869606 23.92581239 312.72316503 26.79088608 315.751894 32.25447559 C318.2022592 39.6055712 316.70274032 45.46364458 313.44134712 52.31502247 C312.98695259 53.223167 312.53255806 54.13131153 312.064394 55.06697559 C311.6293354 55.99445606 311.19427681 56.92193653 310.74603462 57.87752247 C307.87680732 63.77325323 305.29009863 67.39226263 299.376894 70.50447559 C292.49155128 72.47171637 286.8758281 70.58239989 280.439394 68.19197559 C279.56347603 67.87760548 278.68755806 67.56323536 277.78509712 67.23933887 C272.79317104 65.43170018 267.85829636 63.50746704 262.939394 61.51106739 C250.0849895 56.33057022 236.97969761 52.16255776 223.0409565 51.62556934 C221.74107544 51.5698048 221.74107544 51.5698048 220.41493416 51.5129137 C205.13648192 50.95576452 189.82858614 51.14569368 174.54278755 51.18581104 C169.38113591 51.19803327 164.21947191 51.20246429 159.05780983 51.20826435 C151.28914636 51.21783452 143.52056164 51.23704403 135.751894 51.25447559 C135.751894 75.01447559 135.751894 98.77447559 135.751894 123.25447559 C148.0911452 123.42450886 148.0911452 123.42450886 160.43084908 123.55232716 C172.65965387 123.73991071 182.89804793 124.6535946 192.1034565 133.53963184 C192.64744087 134.10553028 193.19142525 134.67142872 193.751894 135.25447559 C194.515019 136.03822559 195.278144 136.82197559 196.064394 137.62947559 C200.17004503 144.01604387 201.19674154 150.70934487 201.09247017 158.17073536 C201.09290825 159.01085667 201.09334633 159.85097797 201.09379768 160.7165575 C201.09172791 163.45991219 201.06848367 166.20263554 201.04486275 168.94588184 C201.03926033 170.86115657 201.03499328 172.77643562 201.03199959 174.69171619 C201.02060166 179.70753024 200.99117842 184.72307942 200.95788765 189.73878956 C200.92707734 194.86702868 200.91347091 199.99531102 200.89837837 205.12361622 C200.86630351 215.16735173 200.81516888 225.21089154 200.751894 235.25447559 C201.84322136 235.31610386 202.93454872 235.37773212 204.05894661 235.44122791 C205.50893219 235.52652981 206.9589083 235.61199263 208.40887642 235.69759083 C209.48458523 235.75769463 209.48458523 235.75769463 210.58202553 235.81901264 C216.2154012 236.15647741 221.58481408 236.93915411 227.064394 238.31697559 C227.9411982 238.53394093 228.8180024 238.75090626 229.72137642 238.9744463 C263.91714852 247.90349592 291.94374519 270.63096178 309.908144 300.80916309 C325.76516966 328.56365833 327.38596144 357.13045588 327.48285341 388.33638215 C327.4982157 392.28082235 327.52801423 396.22510757 327.55753553 400.16946334 C327.65756278 413.6311631 327.70598385 427.09286621 327.74195862 440.55487061 C327.75206228 444.31713957 327.76297825 448.07940557 327.77400398 451.84167194 C327.87977139 488.74337345 327.89679461 525.64489916 327.88135907 562.54672448 C327.87681647 573.57960144 327.87772449 584.61246791 327.88226509 595.64534473 C327.88763422 608.69621908 327.88971999 621.74708731 327.88665283 634.79796261 C327.88633445 636.18903983 327.88602008 637.58011705 327.88570976 638.97119427 C327.88555549 639.65452232 327.88540121 640.33785037 327.88524226 641.04188533 C327.88438959 645.78694528 327.88581095 650.53200119 327.88818932 655.27706051 C327.89109312 661.63033041 327.88904667 667.98358048 327.88329506 674.33684826 C327.88198498 676.64618999 327.88233134 678.95553343 327.88455772 681.26487446 C327.89375176 691.77386727 327.85151357 702.26803198 327.34146309 712.7665453 C327.29042921 713.88294292 327.29042921 713.88294292 327.23836434 715.02189404 C326.22631578 733.06656139 318.97542259 749.95993306 306.751894 763.25447559 C306.06482368 764.02146778 305.37775337 764.78845997 304.66986275 765.57869434 C290.57333747 780.53879054 270.71175563 788.9979957 250.18568039 789.63479233 C247.88828768 789.6522873 245.59073516 789.65399579 243.29330635 789.64215565 C241.37506918 789.65023395 241.37506918 789.65023395 239.41807973 789.65847546 C235.91183265 789.67278158 232.40582356 789.66873256 228.89956427 789.66130865 C225.10121941 789.65654204 221.30292351 789.66911741 217.5045948 789.67932606 C210.08021509 789.69645143 202.65592024 789.69736715 195.23152591 789.69211315 C189.19222885 789.68805855 183.1529567 789.68953027 177.11366081 789.69486141 C176.25148917 789.69560983 175.38931753 789.69635826 174.50101947 789.69712936 C172.74907164 789.69866096 170.99712382 789.70019931 169.245176 789.70174433 C152.8456933 789.71544667 136.44625841 789.71004761 120.04677682 789.69855911 C105.07225329 789.68862879 90.09785337 789.70156797 75.12334891 789.7254933 C59.7139665 789.74992628 44.30464156 789.7594819 28.89524019 789.75284058 C20.25745191 789.74935772 11.61975863 789.75151853 2.98198509 789.76909161 C-4.37086937 789.78386622 -11.72356192 789.78438072 -19.07641338 789.76702069 C-22.82128697 789.7585514 -26.56587199 789.75626021 -30.31072998 789.77167225 C-65.02947395 789.90440505 -65.02947395 789.90440505 -80.685606 781.44197559 C-81.67741875 780.92594776 -81.67741875 780.92594776 -82.68926811 780.39949512 C-88.01097762 777.55471634 -92.69586701 774.2174895 -97.248106 770.25447559 C-97.83462944 769.80974903 -98.42115288 769.36502247 -99.02544975 768.90681934 C-114.04704747 757.22335445 -122.4676772 737.6174885 -125.248106 719.25447559 C-125.54243724 716.50578586 -125.70795014 713.76169905 -125.83767509 711.00070667 C-125.87726463 710.19485066 -125.91685417 709.38899464 -125.95764339 708.55871874 C-126.46391625 696.93724273 -126.39005532 685.30285905 -126.37883067 673.67291319 C-126.37653559 670.14328524 -126.38007681 666.6136619 -126.38281059 663.08403492 C-126.38722822 656.18703691 -126.38630852 649.29004986 -126.38339795 642.39305144 C-126.38112238 636.76225941 -126.38084066 631.13147042 -126.38192177 625.50067806 C-126.382075 624.69340623 -126.38222823 623.88613439 -126.38238611 623.05439978 C-126.38270592 621.41308649 -126.38303014 619.7717732 -126.3833587 618.13045991 C-126.38620327 602.77242697 -126.38294551 587.41440002 -126.37755834 572.05636806 C-126.37311765 558.99585465 -126.37384546 545.93535016 -126.3784771 532.87483692 C-126.38388712 517.61287368 -126.38590121 502.35091572 -126.38286483 487.08895165 C-126.3825464 485.44482172 -126.38223202 483.80069178 -126.38192177 482.15656185 C-126.38176749 481.34826148 -126.38161322 480.5399611 -126.38145427 479.70716677 C-126.38060615 474.12591902 -126.38203977 468.54467477 -126.38440132 462.96342754 C-126.40601907 405.73615758 -126.40601907 405.73615758 -125.9756906 378.2506305 C-125.94420871 376.17172302 -125.91687767 374.09274715 -125.89435983 372.01372325 C-125.71798636 356.66694933 -124.86009555 341.06836394 -119.748106 326.44197559 C-119.3773394 325.36266773 -119.3773394 325.36266773 -118.99908257 324.26155567 C-113.56207731 309.25535712 -105.65044571 295.33954673 -95.248106 283.25447559 C-94.52107475 282.38951466 -93.7940435 281.52455372 -93.044981 280.63338184 C-71.17661705 255.42183276 -39.92200907 237.76164681 -6.248106 235.25447559 C-3.91478985 235.24552208 -1.58141798 235.24449314 0.751894 235.25447559 C0.74745277 234.23463078 0.74301155 233.21478596 0.73843575 232.16403675 C0.69779794 222.52777967 0.66786566 212.8915401 0.64826965 203.2552166 C0.63785632 198.30172673 0.62374203 193.34830634 0.60101509 188.39485645 C0.57919913 183.60972319 0.56730696 178.82465653 0.56213951 174.03947735 C0.55845943 172.21874348 0.55127331 170.39801303 0.54043388 168.5773077 C0.52580246 166.01657477 0.52392089 163.45611309 0.52484322 160.89534473 C0.51765266 160.15159092 0.51046211 159.4078371 0.50305367 158.6415453 C0.54111933 148.80094477 2.6733708 140.47959533 9.64642525 133.30525684 C17.84335323 125.82928238 24.98828584 124.08925515 35.77142525 124.15681934 C36.53305977 124.15782642 37.29469429 124.1588335 38.07940865 124.1598711 C40.90775255 124.1650788 43.73607488 124.17903999 46.564394 124.19197559 C56.0622065 124.22291309 56.0622065 124.22291309 65.751894 124.25447559 C65.751894 100.16447559 65.751894 76.07447559 65.751894 51.25447559 C43.40404263 51.41256776 43.40404263 51.41256776 21.0565815 51.61482716 C16.7128315 51.63289356 16.7128315 51.63289356 14.67279243 51.6362505 C13.26225917 51.64235215 11.85174545 51.65633557 10.44134712 51.67677784 C-4.44587291 51.88157601 -4.44587291 51.88157601 -11.248106 47.25447559 C-17.85231589 40.73956132 -17.48852991 35.45155474 -17.560606 26.56697559 C-17.60411186 24.80837208 -17.60411186 24.80837208 -17.64849663 23.01424122 C-17.69865062 16.18172407 -17.43032047 11.7594014 -13.248106 6.25447559 C-9.21186085 2.52094883 -5.57897822 0.00663275 0 0 Z M40.751894 166.25447559 C40.751894 187.70447559 40.751894 209.15447559 40.751894 231.25447559 C80.351894 231.25447559 119.951894 231.25447559 160.751894 231.25447559 C161.85342583 209.22383885 161.67299165 188.36081932 160.751894 166.25447559 C121.151894 166.25447559 81.551894 166.25447559 40.751894 166.25447559 Z M-52.248106 297.25447559 C-53.299981 298.03822559 -54.351856 298.82197559 -55.435606 299.62947559 C-73.91987585 316.88146078 -84.00318282 340.30310228 -85.248106 365.25447559 C-85.41050851 371.35992456 -85.37072657 377.46778809 -85.35455132 383.57478809 C-85.35342542 385.41304981 -85.35273496 387.25131183 -85.35243797 389.08957386 C-85.35028068 394.122336 -85.34171637 399.1550691 -85.33189869 404.18782139 C-85.32222351 409.63622401 -85.31796582 415.08463158 -85.3128643 420.53304005 C-85.30310071 430.04549851 -85.28912689 439.55794431 -85.27276421 449.07039356 C-85.25517153 459.31681068 -85.24143136 469.56322421 -85.2312603 479.80965137 C-85.20093113 509.86794841 -85.15026559 539.92608046 -85.06418419 569.98427296 C-85.0562527 572.77534944 -85.04839176 575.5664261 -85.04058647 578.35750294 C-85.03864554 579.04951581 -85.03670461 579.74152868 -85.03470486 580.45451164 C-85.00301022 591.90245863 -84.98648543 603.35038463 -84.97491178 614.79836762 C-84.96249897 626.77183257 -84.93509399 638.74519406 -84.89349294 650.7185936 C-84.87083366 657.35682509 -84.85518643 663.99494633 -84.85622215 670.63322926 C-84.85696609 676.79381778 -84.83912364 682.95407163 -84.80693817 689.11457348 C-84.79844494 691.36115143 -84.79668529 693.60776692 -84.80230331 695.8543539 C-84.83771226 712.18276209 -83.74943496 723.94534134 -72.3184185 736.34822559 C-60.16347464 748.28055143 -45.98448802 748.0230413 -30.02081108 748.05867481 C-27.80888411 748.08112899 -25.59697573 748.10548261 -23.38508892 748.13159466 C-17.52221902 748.19345918 -11.65966214 748.2232001 -5.79651117 748.24210358 C-2.32090921 748.25422175 1.15460132 748.27254179 4.63016319 748.29302692 C20.17361738 748.38206052 35.71664805 748.39685457 51.2603209 748.3888011 C57.19192491 748.38647298 63.12352759 748.38827919 69.05513158 748.38972829 C81.47022799 748.3925362 93.88531685 748.3893671 106.30041202 748.38392793 C116.90834786 748.3794249 127.51627279 748.38027338 138.12420845 748.38484669 C150.56823584 748.39020935 163.0122568 748.39230226 175.45628518 748.38923442 C182.00027712 748.38768424 188.54426157 748.38744412 195.08825302 748.39077091 C201.20784759 748.3936678 207.32742151 748.39164065 213.44701385 748.38587666 C215.68143746 748.38456096 217.91586283 748.38492281 220.15028572 748.38713932 C248.18804232 749.22045555 248.18804232 749.22045555 272.751894 737.25447559 C287.50302284 722.08338578 286.91542077 703.06697367 286.87887764 683.18210316 C286.88003369 681.83587507 286.88162443 680.48964729 286.88360488 679.14342016 C286.8877319 675.49127839 286.88573792 671.83916317 286.88261867 668.18702137 C286.88033741 664.22988505 286.88385765 660.27275301 286.88659859 656.31561756 C286.89102643 648.58191227 286.89009311 640.84821674 286.88718595 633.11451108 C286.88491998 626.82400627 286.88462455 620.53350418 286.88570976 614.24299908 C286.885863 613.34488323 286.88601623 612.44676738 286.88617411 611.5214359 C286.88649386 609.69644861 286.88681807 607.87146132 286.8871467 606.04647403 C286.88999278 588.96552103 286.88672823 571.88457341 286.88134633 554.80362128 C286.87687985 540.17566443 286.87765463 525.54771551 286.88226509 510.9197588 C286.88762757 493.89803116 286.88971737 476.87630823 286.88665283 459.85457987 C286.88633431 458.0363092 286.88601994 456.21803854 286.88570976 454.39976788 C286.88555549 453.50534414 286.88540121 452.6109204 286.88524226 451.68939291 C286.88438207 445.41344359 286.88582925 439.13749728 286.88818932 432.86154842 C286.89100616 425.20317773 286.89020953 417.54481727 286.88490857 409.88644774 C286.88229677 405.98571734 286.8812233 402.08500396 286.88455772 398.18427372 C286.91327369 361.4706978 285.43008483 331.15502763 259.751894 302.25447559 C228.93739774 271.43997934 186.7690742 274.09357867 146.50644183 274.08721852 C143.94054248 274.0864995 141.37464822 274.08434943 138.80875015 274.08172131 C129.80387352 274.07251646 120.79901151 274.06838025 111.79413033 274.06917286 C103.48611046 274.06977224 95.17815581 274.0592351 86.87015241 274.0434292 C79.66513744 274.03022498 72.46014345 274.02499429 65.25511652 274.02562827 C60.98387152 274.02587952 56.71268464 274.02324038 52.44145203 274.01245022 C-3.4084081 273.10977656 -3.4084081 273.10977656 -52.248106 297.25447559 Z " fill="#5b6770" transform="translate(328.2481060028076,35.745524406433105)"/>
<path d="M0 0 C1.36661665 -0.00445668 1.36661665 -0.00445668 2.76084173 -0.0090034 C5.82066277 -0.01769063 8.88044469 -0.01919869 11.9402771 -0.02069092 C14.13151127 -0.02531914 16.32274463 -0.0303438 18.51397705 -0.03573608 C24.47289897 -0.04886323 30.43180961 -0.05530587 36.39074373 -0.05974674 C40.11425077 -0.06267746 43.83775473 -0.0667823 47.56126022 -0.07125092 C59.21281771 -0.08492777 70.86436873 -0.09460892 82.51593363 -0.09845281 C83.85660021 -0.09889627 85.19726678 -0.09934283 86.53793335 -0.09979248 C87.20294595 -0.10001391 87.86795855 -0.10023534 88.55312304 -0.10046348 C99.3193775 -0.10440822 110.08556413 -0.1218524 120.85179241 -0.145152 C131.91479211 -0.1688998 142.97775612 -0.18107178 154.04078138 -0.18249393 C160.24837426 -0.1835414 166.45587152 -0.18943693 172.6634407 -0.20731354 C178.50585801 -0.22381082 184.348108 -0.22594156 190.19054031 -0.21717453 C192.33104908 -0.216405 194.4715669 -0.22073572 196.61205292 -0.23063278 C199.54251034 -0.24338415 202.47237802 -0.23745799 205.40283203 -0.22705078 C206.24254756 -0.23510719 207.08226308 -0.24316359 207.94742453 -0.25146413 C216.51510724 -0.18068818 224.50875247 1.79904296 231.25814819 7.26153564 C238.22042054 14.43252707 240.23367126 21.58686449 240.22280884 31.27429199 C240.22726552 32.51439345 240.22726552 32.51439345 240.23181224 33.77954745 C240.24049385 36.55382718 240.24200704 39.32806372 240.24349976 42.10235596 C240.24812832 44.08994133 240.25315303 46.07752581 240.25854492 48.06510925 C240.27166743 53.46812945 240.27811362 58.87113723 240.28255558 64.27417088 C240.2854866 67.64991231 240.28959147 71.02565035 240.29405975 74.40139008 C240.30773441 84.9637142 240.31740117 95.52603057 240.32126164 106.08836293 C240.32574218 118.28020098 240.34329007 130.4719269 240.37226224 142.66373086 C240.39388032 152.0880647 240.403966 161.512367 240.40530276 170.93672538 C240.40635071 176.56522414 240.41225652 182.1936175 240.43012238 187.82209015 C240.44660511 193.11786978 240.4487575 198.41346479 240.43998337 203.70926094 C240.4392131 205.65065315 240.44355433 207.59205529 240.45344162 209.53342247 C240.4661695 212.18871977 240.46027978 214.84336403 240.44985962 217.49865723 C240.46194423 218.64440417 240.46194423 218.64440417 240.47427297 219.81329751 C240.39998322 227.93678423 237.71597573 234.33299878 232.18392944 240.31231689 C224.70643156 246.81690613 216.70788278 248.28967408 207.12677002 248.28761292 C206.2116087 248.2912896 205.29644737 248.29496629 204.35355389 248.29875439 C201.27991691 248.30978765 198.20631373 248.31363449 195.13265991 248.31744385 C192.93157341 248.32370879 190.73048797 248.33035562 188.52940369 248.33735657 C181.29446143 248.35839646 174.05951896 248.36875919 166.82455444 248.37872314 C164.33346673 248.38277079 161.84237914 248.38688771 159.35129166 248.39107323 C148.98849504 248.40794202 138.62569999 248.42257642 128.26289177 248.42982197 C125.57511265 248.43173174 122.88733353 248.43365209 120.19955444 248.43560791 C119.19754962 248.43633352 119.19754962 248.43633352 118.17530228 248.43707379 C107.36052717 248.44536939 96.54586284 248.47069919 85.73113607 248.50318859 C74.61842073 248.53629997 63.50575144 248.55394195 52.39298546 248.55746621 C46.15741271 248.559816 39.92201508 248.56876754 33.68648911 248.59392738 C27.81777243 248.61722447 21.94934597 248.62143454 16.08059502 248.611166 C13.93040565 248.61067093 11.78020191 248.61698291 9.63005638 248.63072205 C6.68631418 248.6484748 3.74360971 248.64131787 0.79986572 248.62818909 C-0.04374075 248.63915833 -0.88734722 248.65012758 -1.75651753 248.66142923 C-10.86938905 248.56383085 -18.56095502 245.29550481 -25.16372681 239.06622314 C-31.64423511 231.9506539 -34.22495835 224.57906498 -34.18505859 214.97608948 C-34.18958971 214.17018079 -34.19412082 213.36427209 -34.19878924 212.53394192 C-34.2114176 209.84192542 -34.20981387 207.15011164 -34.2081604 204.45806885 C-34.21414672 202.52431479 -34.22095251 200.59056311 -34.22851562 198.65681458 C-34.24617467 193.40865198 -34.25087104 188.16055463 -34.2521472 182.9123652 C-34.25356969 179.63072486 -34.25784121 176.34910106 -34.26314163 173.06746483 C-34.28164333 161.61074141 -34.28981228 150.15406452 -34.28823853 138.69732666 C-34.28703789 128.03186865 -34.30812471 117.36661326 -34.33972585 106.70120651 C-34.36591589 97.53410084 -34.37660464 88.36706122 -34.37532771 79.19991845 C-34.37481877 73.72949773 -34.38046389 68.259257 -34.40168381 62.78887367 C-34.42111144 57.63992038 -34.42115966 52.4913179 -34.40665054 47.34235191 C-34.40456679 45.45865743 -34.40923732 43.57494073 -34.42137146 41.69128418 C-34.49756411 29.03797951 -34.22585562 17.58397189 -24.98403931 7.86309814 C-17.3877878 1.53049529 -9.60048288 -0.00975108 0 0 Z M7.08236694 42.14044189 C7.08236694 96.59044189 7.08236694 151.04044189 7.08236694 207.14044189 C70.44236694 207.14044189 133.80236694 207.14044189 199.08236694 207.14044189 C199.08236694 152.69044189 199.08236694 98.24044189 199.08236694 42.14044189 C187.7436972 41.32306307 187.7436972 41.32306307 176.45280457 41.01345825 C174.48369614 41.00922852 174.48369614 41.00922852 172.47480774 41.00491333 C171.07812485 41.00685636 169.68144211 41.00890444 168.28475952 41.01104736 C166.76821857 41.00968777 165.25167795 41.00790474 163.73513794 41.0057373 C159.66249075 41.00122727 155.58986925 41.00292626 151.51722169 41.00611639 C147.21981892 41.0086759 142.92241813 41.00629235 138.62501526 41.00473022 C131.40726331 41.00291793 124.18952163 41.00528905 116.97177124 41.0100708 C108.68020831 41.01550125 100.38867003 41.0137558 92.09710771 41.0082444 C84.92882162 41.00367396 77.76054285 41.00308208 70.59225577 41.00568306 C66.3329161 41.00722572 62.07358792 41.00749607 57.81424904 41.00414658 C53.80120342 41.00121056 49.78818883 41.00334609 45.77514648 41.00904083 C44.32094562 41.01033872 42.86674205 41.01002658 41.41254234 41.00777817 C29.92221195 40.99168117 18.58597207 41.56526164 7.08236694 42.14044189 Z " fill="#5b6770" transform="translate(325.9176330566406,404.85955810546875)"/>
</svg>
