<?xml version="1.0" encoding="utf-8"?>
<!-- Generator: Adobe Illustrator 28.0.0, SVG Export Plug-In . SVG Version: 6.00 Build 0)  -->
<svg version="1.1" id="Vrstva_1" xmlns="http://www.w3.org/2000/svg" xmlns:xlink="http://www.w3.org/1999/xlink" x="0px" y="0px"
	 viewBox="0 0 210 210" style="enable-background:new 0 0 210 210;" xml:space="preserve">
<style type="text/css">
	.st0{fill:none;stroke:#222221;stroke-miterlimit:10;}
</style>
<path id="logoMark" d="M163.1,55.9c-0.7-1.9-2.6-2.5-4.7-2.7c-2.2-0.2-4.1,0-6.4,0.3c-22.8,3.6-44.6,11.2-66.5,18.1L72.4,76
	c-3.5,1-7.2,2.3-10.6,4c-0.5-6.5,2.9-13.2,9.1-17.3l-0.4-0.9C62.8,65.2,57.4,73.6,58.5,82c-3.9,2.6-7,6-8.5,10.8
	c-2.5,8.6-0.4,17.1,3.4,24.9c-2.6,1.7-5.1,3.6-7.5,5.6l0.2,0.3c0,0,4.9-3.7,7.5-5.2c2.6,5.1,5.9,9.8,9.1,14.1
	c11.7,14.8,28,26.2,46.7,29.7c21.8,4.2,31-21.3,37.2-37.4c3.5-11.8,18.5-46.7,7.9-57.6c2.4-1.8,4.7-3.7,6.9-6.1
	c0.7-0.9,1.7-1.9,1.8-3.5C163.3,56.9,163.2,56.2,163.1,55.9L163.1,55.9z M59.5,86.2c0.2,0.4,0.3,0.8,0.5,1.2
	c5.2,11.5,19.6,14.9,30.8,13.4c0.2,0.7,0.5,1.4,0.7,2.1c-12.1,2.6-24,6.5-34.6,12.7C51.5,104.6,50.7,93.6,59.5,86.2z M151.8,97.5
	c-5.6,17-10.7,35.1-20.5,50.1c-4.9,7.8-11,11-17.8,10.5c-12.4-1-24.4-7.9-29.2-11.4c-10.3-7.3-21.2-18.9-27.1-30.5
	c10.7-6,22.5-9.8,34.6-12.3c1,2.9,2.1,6.3,3.4,9.9c-6.5-1.8-12.4-2.1-19-1.7l0,0.4c1.9,0.4,3.8,0.8,5.6,1.3
	c5.4,1.3,8.9,2.5,14.9,4.5c4.2,12.2,8.7,25,9.6,27.4l0.8-0.2c-1.4-4.2-2.7-8.6-3.9-11.9c-1.2-3.9-2.8-9.1-4.5-14.6
	c1.2,0.4,2.5,0.8,4,1.3c6.8,2.3,13.4,5,20.6,5.7c1.7,0,3.6,0.1,4.8-1.6c0.7-1,0.6-2.7,0.3-4c-0.7-4.2-4.1-8.2-3-12.3
	c0.8-2.1,2.6-1.8,4.2-2.9c0.7-0.4,0.4-1.6-0.3-1.9c-4.6-2.5-9.7-3.8-13.9-6.8l-0.3,0.4c3.3,3.2,7.7,5.2,11.6,7.3
	c-5.2,1.9-4.4,8-2.6,12.2c0.5,1.3,2,4.2,2.2,6c0.1,0.7-0.3,1.4-1.1,1.7c-1.6,0.5-4.4-0.2-5.9-0.6c-7.4-2.4-14.9-6.4-22-8.8
	c-1.2-3.8-2.3-7.5-3.4-11c6-1.2,12.1-2,18-2.7l1.3-0.1c-1.4-2.1-3.3-3.7-5.7-4.5c-5.1-1.2-10.3,1-15.4,1.2c-0.1-0.3-0.2-0.7-0.3-1
	l-0.4-1.3c-0.1-0.3-0.1-0.7,0.2-0.8c7.3-2.5,15.7-2,23.4-3c12.1-6.6,24.1-13.4,35.5-21.3c0.7-0.5,1.3-0.9,2-1.4
	C158.6,74.5,153.9,89.7,151.8,97.5L151.8,97.5z M93,100.5c6.4-1,12.8-4.7,17.4-0.9c-5.6,0.7-11.2,1.6-16.8,2.8
	C93.4,101.8,93.2,101.1,93,100.5z M159.3,58.2c-1.7,2.7-4.7,4.9-7.5,7c-2-1-4.5-1.1-6.7-1c-4.9,0.2-9.7,2.1-14.2,3.7
	c-4.8,1.8-9.4,3.9-14,6.1l0.3,0.6c8.9-3.7,17.9-7.2,27.4-8.1c1.7-0.1,3.2,0,4.4,0.4c0.3,0.1,0.6,0.2,0.6,0.2l-0.5,0.4
	c-11.3,7.9-23.3,14.8-35.3,21.5c-4.5,0-16.5,0.9-23.1,3.4c-0.6,0.2-2,1.3-1.7,2.5c0.2,0.8,0.5,1.7,0.8,2.5c0,0.1,0.1,0.2,0.1,0.3
	c-6.9,0.1-13.9-0.9-19.4-4.4c-3.9-2.4-6.4-5.6-7.5-9.1c3.2-1.7,7.9-3.1,11-4.2c21.5-7.2,43.5-14.6,65.5-20.1
	c6.2-1.3,13.4-3.5,19.4-2.8C159.3,56.9,159.7,57.6,159.3,58.2L159.3,58.2z"/>
<path class="st0" d="M175.5,127.9c-19.8,34-46.8,62.3-85.2,53.6c-38.3-8.7-90-94.3-60.2-120c11.6-10,52.5-17,91.7-18.8
	C204.6,38.9,227.9,38,175.5,127.9z"/>
<path class="st0" d="M139.3,39.3c30.2,25.1,53.7,56.5,38.8,92.9c-14.9,36.4-107.9,73.1-128.3,39.5c-8-13.1-8.1-54.6-3.4-93.6
	C56.3-4.2,59.2-27.3,139.3,39.3z"/>
<path class="st0" d="M39.3,70.8C64.4,40.5,95.8,17,132.1,31.9s73.1,107.9,39.5,128.3c-13.1,8-54.6,8.1-93.6,3.4
	C-4.2,153.7-27.3,150.8,39.3,70.8z"/>
<path class="st0" d="M70.8,170.8C40.5,145.6,17,114.3,31.9,77.9S139.8,4.8,160.2,38.4c8,13.1,8.1,54.6,3.4,93.6
	C153.7,214.2,150.8,237.3,70.8,170.8z"/>
<path class="st0" d="M170.8,139.3c-25.1,30.2-56.5,53.7-92.9,38.8S4.8,70.2,38.4,49.8c13.1-8,54.6-8.1,93.6-3.4
	C214.2,56.3,237.3,59.2,170.8,139.3z"/>
</svg>
