<svg width="20" height="20" viewBox="0 0 20 20" fill="none" xmlns="http://www.w3.org/2000/svg">
<path d="M7.1585 3.71223L6.75584 2.80625C6.49256 2.21388 6.36092 1.91768 6.16405 1.69101C5.91732 1.40694 5.59571 1.19794 5.23592 1.08785C4.94883 1 4.6247 1 3.97645 1C3.02815 1 2.554 1 2.15597 1.18229C1.68711 1.39702 1.26368 1.86328 1.09497 2.3506C0.951751 2.76429 0.992781 3.18943 1.07482 4.0397C1.94815 13.0902 6.91006 18.0521 15.9605 18.9254C16.8108 19.0075 17.236 19.0485 17.6496 18.9053C18.137 18.7366 18.6032 18.3131 18.818 17.8443C19.0002 17.4462 19.0002 16.9721 19.0002 16.0238C19.0002 15.3755 19.0002 15.0514 18.9124 14.7643C18.8023 14.4045 18.5933 14.0829 18.3092 13.8362C18.0826 13.6393 17.7864 13.5077 17.194 13.2444L16.288 12.8417C15.6465 12.5566 15.3257 12.4141 14.9998 12.3831C14.6878 12.3534 14.3733 12.3972 14.0813 12.5109C13.7762 12.6297 13.5066 12.8544 12.9672 13.3038C12.4304 13.7512 12.162 13.9749 11.834 14.0947C11.5432 14.2009 11.1588 14.2403 10.8526 14.1951C10.5071 14.1442 10.2426 14.0029 9.7135 13.7201C8.0675 12.8405 7.15977 11.9328 6.28011 10.2867C5.99738 9.7577 5.85602 9.4931 5.80511 9.1477C5.75998 8.8414 5.79932 8.457 5.90554 8.1663C6.02536 7.83828 6.24905 7.56986 6.69643 7.033C7.14586 6.49368 7.37058 6.22402 7.48939 5.91891C7.60309 5.62694 7.64686 5.3124 7.61719 5.00048C7.58618 4.67452 7.44362 4.35376 7.1585 3.71223Z" stroke="white" stroke-width="1.5" stroke-linecap="round"/>
</svg>
