<svg width="36" height="36" viewBox="0 0 36 36" fill="none" xmlns="http://www.w3.org/2000/svg">
<rect x="0.5" y="0.5" width="35" height="35" rx="17.5" stroke="black"/>
<path d="M12.6974 25.8047C12.3824 25.8047 12.0899 25.7297 11.8274 25.5797C11.2499 25.2422 10.9199 24.5597 10.9199 23.7122V13.1372C10.9199 11.2322 12.4724 9.67969 14.3774 9.67969H21.6149C23.5199 9.67969 25.0724 11.2322 25.0724 13.1372V23.7047C25.0724 24.5522 24.7424 25.2347 24.1649 25.5722C23.5874 25.9097 22.8299 25.8722 22.0874 25.4597L18.4274 23.4272C18.2099 23.3072 17.7824 23.3072 17.5649 23.4272L13.9049 25.4597C13.4999 25.6847 13.0874 25.8047 12.6974 25.8047ZM14.3849 10.8047C13.1024 10.8047 12.0524 11.8547 12.0524 13.1372V23.7047C12.0524 24.1472 12.1799 24.4772 12.4049 24.6047C12.6299 24.7322 12.9824 24.6947 13.3649 24.4772L17.0249 22.4447C17.5799 22.1372 18.4199 22.1372 18.9749 22.4447L22.6349 24.4772C23.0174 24.6947 23.3699 24.7397 23.5949 24.6047C23.8199 24.4697 23.9474 24.1397 23.9474 23.7047V13.1372C23.9474 11.8547 22.8974 10.8047 21.6149 10.8047H14.3849Z" fill="#292D32"/>
</svg>
