<svg width="20" height="20" viewBox="0 0 20 20" fill="none" xmlns="http://www.w3.org/2000/svg">
<path d="M9.23386 18.2134C11.3436 18.2134 13.2813 17.4263 14.7943 16.123L18.3047 19.784C18.4416 19.9268 18.6206 20 18.7997 20C18.9787 20 19.1577 19.9268 19.2946 19.784C19.5685 19.4984 19.5685 19.0335 19.2946 18.7479L15.7983 15.1016C17.1463 13.4981 17.9642 11.4003 17.9642 9.10855C17.9642 4.08567 14.0466 0 9.23035 0C4.41409 0 0.5 4.08201 0.5 9.10489C0.5 14.1278 4.4176 18.2134 9.23386 18.2134ZM9.23386 1.46074C13.2743 1.46074 16.5636 4.88742 16.5636 9.10489C16.5636 13.3223 13.2743 16.749 9.23386 16.749C5.19339 16.749 1.90416 13.3187 1.90416 9.10489C1.90416 4.89109 5.19339 1.46074 9.23386 1.46074Z" fill="white"/>
</svg>
