<svg width="209" height="40" viewBox="0 0 209 40" fill="none" xmlns="http://www.w3.org/2000/svg">
<path d="M118.311 0.140793C119.124 0.017674 119.788 -0.0383417 120.59 0.0283542C121.341 0.0899379 122.015 0.325733 122.261 1.00315L122.256 1.00804C122.291 1.11065 122.337 1.35205 122.316 1.56242C122.26 2.14225 121.908 2.49675 121.668 2.83542C120.907 3.70273 120.068 4.39554 119.21 5.04216C123.021 8.95265 117.662 21.4792 116.395 25.7134C114.203 31.4868 110.893 40.6481 103.107 39.1445C96.3936 37.8923 90.5793 33.781 86.4002 28.4745C85.2304 26.9453 84.0553 25.2518 83.1307 23.4147C82.2216 23.9606 80.4695 25.2822 80.4488 25.2978L80.3618 25.2059C81.2201 24.4823 82.0941 23.8094 83.029 23.1986C81.6599 20.3966 80.9138 17.3276 81.8078 14.2485C82.3239 12.5295 83.4583 11.3035 84.8427 10.3747C84.4697 7.34685 86.401 4.31863 89.1956 3.12288L89.3276 3.44064C87.0899 4.90326 85.8798 7.32622 86.0688 9.65608C87.2795 9.04031 88.5973 8.58854 89.8438 8.21393L94.5134 6.65347C102.351 4.16959 110.158 1.42892 118.311 0.140793ZM117.759 6.08345C113.687 8.90081 109.401 11.3543 105.069 13.7303C102.3 14.0639 99.3007 13.9153 96.685 14.798C96.5624 14.8339 96.583 14.9518 96.6136 15.0698L96.7564 15.5469C96.787 15.6495 96.8284 15.7831 96.859 15.896C98.7032 15.8343 100.548 15.0391 102.376 15.4804C103.235 15.7422 103.924 16.3377 104.425 17.0868L103.965 17.1279C101.835 17.364 99.6681 17.6724 97.5121 18.088C97.8851 19.3196 98.2939 20.6643 98.7128 22.0293C101.267 22.8915 103.95 24.323 106.596 25.1903C107.138 25.3289 108.119 25.6009 108.706 25.4161C108.962 25.3341 109.115 25.0826 109.085 24.8158C109.008 24.1692 108.456 23.1426 108.293 22.6756C107.639 21.1668 107.368 18.9698 109.222 18.2924C107.797 17.5175 106.238 16.7895 105.058 15.6554L105.176 15.5215C106.667 16.6043 108.476 17.092 110.137 17.9746C110.377 18.0875 110.484 18.5087 110.244 18.6678C109.687 19.063 109.018 18.9604 108.747 19.7199C108.349 21.1721 109.559 22.614 109.815 24.1226C109.897 24.5999 109.932 25.2001 109.692 25.5696C109.268 26.1701 108.588 26.1597 107.986 26.1494C105.411 25.9031 103.056 24.9236 100.634 24.1128C100.118 23.9384 99.6534 23.7845 99.2193 23.6357C99.822 25.5907 100.404 27.4637 100.838 28.8646C101.262 30.0655 101.722 31.6461 102.218 33.1549L101.942 33.2419C101.62 32.3739 100.021 27.776 98.5241 23.404C96.3887 22.6907 95.1114 22.2755 93.1906 21.8034C92.5265 21.6238 91.8519 21.4905 91.1725 21.3468L91.1872 21.1875C93.5526 21.0489 95.6479 21.1509 97.9775 21.7976C97.5382 20.5096 97.1294 19.2884 96.7769 18.2415C92.4498 19.1293 88.2043 20.5098 84.3881 22.6599C86.4929 26.8373 90.4111 30.9737 94.0793 33.6115C95.7959 34.8483 100.108 37.3526 104.537 37.6965C106.959 37.8812 109.14 36.7373 110.908 33.9302C114.397 28.5315 116.212 22.0242 118.224 15.9224H118.199C118.955 13.1408 120.641 7.66987 118.459 5.57601C118.224 5.74531 117.994 5.91414 117.759 6.08345ZM48.1523 14.27C52.8267 14.2702 55.7796 16.5897 55.7796 20.6438C55.7796 24.6979 52.6939 27.0742 48.1523 27.0744C43.6105 27.0744 40.4987 24.6775 40.4986 20.6438C40.4986 16.6101 43.4725 14.27 48.1523 14.27ZM134.486 14.2641C139.166 14.2642 142.124 16.6043 142.124 20.638C142.124 24.6716 139.145 27.0684 134.486 27.0685C129.827 27.0685 126.828 24.6922 126.827 20.638C126.827 16.5991 129.806 14.2641 134.486 14.2641ZM6.11571 14.2905C7.95985 14.2906 9.54863 14.4904 11.3417 14.8752L11.7963 17.3029L9.23175 16.246C8.27644 16.0253 7.34676 15.9175 6.34548 15.9175C4.4143 15.9175 3.18838 16.5178 3.18838 17.4672C3.18845 18.4165 3.8728 18.9806 6.77959 19.6016L6.76982 19.6074C10.6776 20.4285 12.287 21.4854 12.2872 23.4763C12.2872 25.6318 10.105 27.0587 6.10985 27.0587C3.5454 27.0382 1.72658 26.6172 0.480066 26.3812L0 23.841L2.63597 25.0114C3.81596 25.2884 4.86342 25.4317 5.95145 25.4318C8.13279 25.4318 9.22667 24.7751 9.22686 23.7129C9.22686 22.6507 8.38397 22.1213 5.47725 21.5003C1.68669 20.6998 0.117554 19.6585 0.117328 17.6676C0.117328 15.6764 2.14095 14.2905 6.11571 14.2905ZM28.232 26.7351H24.4873L24.2116 25.1649L23.7618 24.2517L23.6083 23.9535C21.8203 23.0913 20.0061 22.2652 18.1721 21.4954L17.6314 22.5475L16.7417 24.2468L16.2665 25.16L15.9957 26.7302H12.7262L15.9449 20.5979C12.946 19.4381 9.87575 18.468 6.72875 17.8162L6.75906 17.6774C7.9239 17.816 9.08886 17.9857 10.2486 18.2063C12.3177 18.6426 14.3617 19.1708 16.3848 19.7609L18.5662 15.6046L18.0245 14.6083H21.9638L28.232 26.7351ZM32.6406 16.3535V24.9957H38.1179L40.3197 24.5548L39.911 26.7302H29.2127L29.6468 24.9752V16.3535L29.2127 14.5985H33.0757L32.6406 16.3535ZM71.8369 16.3487V26.7253H67.6581L60.8677 16.7182V24.9752L61.2764 26.7302H57.915L58.3491 24.9752V16.3535L57.915 14.5985H62.5749L69.3183 24.5548V16.3535L68.9096 14.5985V14.5927H72.2661L71.8369 16.3487ZM155.674 24.5499V16.3487L155.266 14.5936H158.633L158.198 16.3487V26.7204H154.014L147.219 16.7134V24.9703L147.628 26.7253H144.266L144.7 24.9703V16.3487L144.266 14.5936H148.925L155.674 24.5499ZM191.426 24.5499V16.3487L191.018 14.5936H194.385L193.95 16.3487V26.7204H189.766L182.971 16.7134V24.9703L183.38 26.7253H180.018L180.452 24.9703V16.3487L180.018 14.5936H184.677L191.426 24.5499ZM164.492 16.3428V24.9801H169.969L172.176 24.544L171.767 26.7195H161.064L161.498 24.9644V16.3428L161.064 14.5878H164.926L164.492 16.3428ZM177.171 16.3428V24.9644L177.605 26.7195H173.743L174.177 24.9644V16.3428L173.743 14.5878H177.605L177.171 16.3428ZM208.837 16.7075L206.655 16.2704H200.223V19.7042H204.903L206.563 19.4833V21.5668L204.903 21.3468H200.223V25.0358H206.814L208.995 24.5997H209L208.591 26.7195H196.816L197.25 24.9644V16.3428L196.816 14.5878H208.428L208.837 16.7075ZM48.1719 16.0407C45.4695 16.0408 43.6303 17.4827 43.6303 20.6438C43.6304 23.8049 45.4491 25.283 48.1259 25.2832C50.8081 25.2832 52.6479 23.7845 52.6479 20.6438C52.6479 17.5031 50.8745 16.0407 48.1719 16.0407ZM134.511 16.0348C131.829 16.0348 129.964 17.4972 129.964 20.638C129.964 23.7787 131.783 25.2773 134.466 25.2773C137.148 25.2772 138.987 23.7991 138.987 20.638C138.987 17.4972 137.194 16.0349 134.511 16.0348ZM85.225 11.857C82.078 14.5358 82.3393 18.4776 84.2756 22.4292C88.0613 20.2071 92.3122 18.8006 96.6547 17.8563C96.5679 17.5845 96.48 17.3387 96.4034 17.0976C92.4032 17.6209 87.2433 16.4194 85.399 12.2832C85.3326 12.1396 85.2812 11.9957 85.225 11.8521V11.857ZM18.6991 20.4688H18.6933C19.9603 20.8742 21.2176 21.3002 22.4693 21.7467L20.2674 17.4105L18.6991 20.4688ZM103.419 16.6967C101.779 15.3214 99.4949 16.6452 97.2061 17.0096L97.2012 17.0155C97.2676 17.2257 97.3392 17.4665 97.4056 17.6921C99.4133 17.2764 101.426 16.9584 103.419 16.6967ZM120.661 1.30625C118.52 1.06 115.91 1.8446 113.713 2.30647C105.856 4.27201 97.9876 6.94565 90.2936 9.52702C89.1951 9.93758 87.5143 10.4105 86.3699 11.0366C86.794 12.2835 87.6627 13.4377 89.0675 14.3101C91.0498 15.5828 93.5586 15.9429 96.0211 15.9018C96.0109 15.871 95.9952 15.8241 95.9849 15.7933C95.9032 15.5214 95.7756 15.1879 95.7092 14.9006C95.6122 14.4646 96.1275 14.0901 96.332 14.0129C98.7026 13.125 102.979 12.8017 104.594 12.7966C108.901 10.3949 113.187 7.90054 117.217 5.0627C117.304 4.99598 117.391 4.92875 117.391 4.92875C117.387 4.92708 117.287 4.8923 117.182 4.86226C116.733 4.74423 116.211 4.69313 115.598 4.73418C112.201 5.05749 108.966 6.32035 105.789 7.65466L105.697 7.43859C107.347 6.66366 109.013 5.9144 110.719 5.25238C112.323 4.69816 114.06 4.01043 115.807 3.93342C116.594 3.89749 117.52 3.93325 118.22 4.30789C119.241 3.56385 120.298 2.76834 120.906 1.8088V1.80392C121.034 1.59864 120.896 1.33191 120.661 1.30625ZM18.0245 14.6083H18.0137L18.0196 14.5985L18.0245 14.6083Z" fill="black"/>
</svg>
