<svg width="169" height="49" viewBox="0 0 169 49" fill="none" xmlns="http://www.w3.org/2000/svg">
<g clip-path="url(#clip0_2833_6169)">
<path d="M68.0283 41.5135V36.1495L67.8125 35.0586H71.4718C73.4036 35.0586 74.2332 35.8654 74.2332 37.536C74.2332 39.1953 73.4036 39.9908 71.4263 39.9908H69.5284V41.5135L69.8806 42.6045H67.8125L68.0283 41.5135ZM71.2103 38.9566C72.324 38.9566 72.7558 38.5475 72.7558 37.5701C72.7558 36.5586 72.324 36.1041 71.2444 36.1041H69.517V38.9566H71.2103Z" fill="black"/>
<path d="M82.8119 42.6045H80.6186L80.4028 41.7182L78.9482 39.6952H77.4366V41.5135L77.6753 42.6045H75.7207L75.9365 41.5135V36.1495L75.7207 35.0586H79.4708C81.3459 35.0586 82.1981 35.8654 82.1981 37.3314C82.1981 38.3769 81.6187 39.1499 80.4369 39.4224L82.8119 42.6045ZM79.0958 38.6156C80.1187 38.6156 80.7208 38.1952 80.7208 37.3429C80.7208 36.5018 80.2663 36.0586 79.2435 36.0586H77.4025V38.6156H79.0958Z" fill="black"/>
<path d="M83.9004 38.8206C83.9004 36.3091 85.3891 34.8545 87.7302 34.8545C90.0714 34.8545 91.5485 36.3091 91.5485 38.8206C91.5485 41.3435 90.0598 42.8208 87.7302 42.8208C85.4575 42.8208 83.9004 41.3435 83.9004 38.8206ZM89.9803 38.8206C89.9803 36.8658 89.0824 35.9568 87.7416 35.9568C86.3892 35.9568 85.4688 36.8658 85.4688 38.8206C85.4688 40.7865 86.3778 41.7071 87.7189 41.7071C89.0599 41.7071 89.9803 40.7865 89.9803 38.8206Z" fill="black"/>
<path d="M97.3863 38.6734L98.2158 38.5257V39.8438L97.3863 39.6962H94.8975V41.5145L95.2498 42.6054H93.1816L93.3974 41.5145V36.1505L93.1816 35.0596H98.8863L99.091 36.3779L98 36.1051H94.8975V38.6734L97.3863 38.6734Z" fill="black"/>
<path d="M106.579 41.2871L106.375 42.6054H100.488L100.704 41.5145V36.1505L100.488 35.0596H106.295L106.5 36.3779L105.409 36.1051H102.193V38.2416H104.534L105.363 38.1053V39.4008L104.534 39.2645H102.193V41.56H105.488L106.579 41.2871Z" fill="black"/>
<path d="M108.112 42.3892L107.873 40.8096L109.191 41.5369C109.782 41.7075 110.305 41.7984 110.85 41.7984C111.941 41.7984 112.487 41.3893 112.487 40.7301C112.487 40.0709 112.067 39.7414 110.612 39.355C108.714 38.855 107.93 38.2073 107.93 36.9686C107.93 35.73 108.941 34.8662 110.93 34.8662C111.851 34.8662 112.646 34.9912 113.544 35.2299L113.771 36.7412L112.487 36.0821C112.01 35.9458 111.544 35.8774 111.044 35.8774C110.078 35.8774 109.464 36.2527 109.464 36.8435C109.464 37.4343 109.805 37.7868 111.26 38.1732C113.214 38.6844 114.021 39.3436 114.021 40.5823C114.021 41.9233 112.93 42.8098 110.93 42.8098C109.646 42.7985 108.737 42.537 108.112 42.3892Z" fill="black"/>
<path d="M115.702 42.3892L115.463 40.8096L116.781 41.5369C117.372 41.7075 117.895 41.7984 118.44 41.7984C119.531 41.7984 120.077 41.3893 120.077 40.7301C120.077 40.0709 119.656 39.7414 118.202 39.355C116.304 38.855 115.52 38.2073 115.52 36.9686C115.52 35.73 116.531 34.8662 118.52 34.8662C119.44 34.8662 120.236 34.9912 121.134 35.2299L121.361 36.7412L120.077 36.0821C119.6 35.9458 119.134 35.8774 118.634 35.8774C117.668 35.8774 117.054 36.2527 117.054 36.8435C117.054 37.4343 117.395 37.7868 118.849 38.1732C120.804 38.6844 121.611 39.3436 121.611 40.5823C121.611 41.9233 120.52 42.8098 118.52 42.8098C117.236 42.7985 116.326 42.537 115.702 42.3892Z" fill="black"/>
<path d="M123.462 41.5145V36.1505L123.246 35.0596H125.178L124.962 36.1505V41.5145L125.178 42.6054H123.246L123.462 41.5145Z" fill="black"/>
<path d="M126.803 38.8206C126.803 36.3091 128.291 34.8545 130.633 34.8545C132.974 34.8545 134.451 36.3091 134.451 38.8206C134.451 41.3435 132.962 42.8208 130.633 42.8208C128.36 42.8208 126.803 41.3435 126.803 38.8206ZM132.883 38.8206C132.883 36.8658 131.985 35.9568 130.644 35.9568C129.292 35.9568 128.371 36.8658 128.371 38.8206C128.371 40.7865 129.28 41.7071 130.621 41.7071C131.962 41.7071 132.883 40.7865 132.883 38.8206Z" fill="black"/>
<path d="M143.268 35.0586L143.052 36.1495V42.6045H140.961L137.563 36.3769V41.5135L137.768 42.6045H136.086L136.302 41.5135V36.1495L136.086 35.0586H138.416L141.791 41.2521V36.1495L141.586 35.0586H143.268Z" fill="black"/>
<path d="M152.016 42.6045H150.141L150.004 41.6271L149.777 41.059H146.265L146.027 41.6271L145.89 42.6045H144.254L147.175 35.6837L146.902 35.0586H148.879L152.016 42.6045ZM149.334 40.0021L148.027 36.8087L146.708 40.0021H149.334Z" fill="black"/>
<path d="M158.627 41.2531L158.423 42.6054H153.07L153.286 41.5145V36.1505L153.07 35.0596H155.002L154.786 36.1505V41.5258H157.525L158.627 41.2531Z" fill="black"/>
<path d="M84.6255 9.86311L85.4687 11.4137L82.0911 17.8218C78.953 16.9079 75.7865 16.0965 72.5858 15.4229C70.7896 15.0842 68.9853 14.8232 67.178 14.6055L67.1317 14.821C72.0099 15.8268 76.7629 17.3227 81.4132 19.108L76.4259 28.57H81.491L81.9127 26.1484L82.6505 24.7393L84.0263 22.118L84.8652 20.4916C87.7089 21.6774 90.515 22.9551 93.2885 24.2801L93.5296 24.7393L94.2286 26.1485L94.6558 28.5701H100.459L90.7447 9.86316L84.6255 9.86311ZM85.677 18.9177L88.1095 14.2014L91.5247 20.8866C89.5858 20.1977 87.6367 19.5401 85.677 18.9177ZM67.2056 17.5827C62.7009 16.6258 61.6413 15.752 61.6413 14.2874C61.6413 12.8227 63.5441 11.8936 66.5343 11.8936C68.0822 11.8936 69.5301 12.06 71.0058 12.3984L74.9835 14.0322L74.2789 10.2875C71.4995 9.69388 69.0363 9.38597 66.1848 9.38597C60.0268 9.38597 56.8923 11.5246 56.8923 14.5953C56.8923 17.6688 59.3222 19.272 65.1973 20.5119C69.702 21.4717 71.0057 22.2872 71.0057 23.921C71.0057 25.5548 69.3137 26.57 65.9351 26.57C64.2486 26.57 62.6287 26.3453 60.7979 25.9209L56.7148 24.1179L57.4582 28.0346C59.3888 28.4008 62.2071 29.0498 66.1848 29.0776C72.376 29.0776 75.7546 26.8807 75.7546 23.5548C75.7546 20.4842 73.2582 18.8504 67.2056 17.5827ZM107.277 25.8932V12.5676L107.948 9.86311H101.962L102.633 12.5676V25.8655L101.962 28.57H118.539L119.171 25.2164L115.759 25.8933L107.277 25.8932ZM163.475 9.86311L164.108 12.5676V25.2164L153.656 9.86311H146.438L147.11 12.5676V25.8655L146.438 28.57H151.648L151.015 25.8655V13.1307L161.539 28.57H168.013V12.5676L168.679 9.86311H163.475ZM131.315 9.35547C124.064 9.35547 119.454 12.9615 119.454 19.1888C119.454 25.4439 124.275 29.1054 131.315 29.1054C138.527 29.1054 143.137 25.4439 143.137 19.1888C143.137 12.9615 138.56 9.35547 131.315 9.35547ZM131.276 26.3454C127.127 26.3454 124.308 24.0625 124.308 19.1888C124.308 14.3429 127.16 12.0905 131.348 12.0905C135.504 12.0905 138.283 14.3429 138.283 19.1888C138.283 24.0625 135.432 26.3454 131.276 26.3454Z" fill="black"/>
<path d="M51.4157 1.22552C51.1122 0.400487 50.2892 0.106794 49.3648 0.03302C48.3781 -0.0457575 47.5644 0.0230137 46.5664 0.169421C36.5595 1.74089 26.9807 5.08843 17.3616 8.12468L11.6338 10.0306C10.1009 10.4855 8.48603 11.0381 6.99957 11.79C6.76916 8.94545 8.25395 5.98285 11.0023 4.19967L10.8397 3.80903C7.41184 5.27232 5.03996 8.97231 5.49744 12.669C3.79672 13.8008 2.40866 15.2996 1.77137 17.4038C0.67674 21.1674 1.5881 24.9142 3.2728 28.3385C2.12813 29.0847 1.05615 29.9038 0 30.7897L0.104803 30.9041C0.120251 30.8922 2.27507 29.2739 3.3981 28.6035C4.53091 30.8508 5.9723 32.9188 7.41013 34.7884C12.5411 41.2701 19.6773 46.291 27.915 47.8209C37.4681 49.6603 41.5367 38.4682 44.2218 31.4102C45.7748 26.2392 52.355 10.9306 47.6762 6.15225C48.7293 5.36255 49.7565 4.5186 50.694 3.45727C50.9875 3.04245 51.4195 2.6135 51.4906 1.90117C51.5164 1.64285 51.4613 1.3495 51.4157 1.22552ZM5.96357 14.4803C6.03326 14.6562 6.09229 14.8334 6.17681 15.0072C8.43933 20.0604 14.7714 21.5274 19.6849 20.8871C19.7815 21.179 19.883 21.4847 19.9926 21.8123C14.666 22.9687 9.44356 24.6863 4.80003 27.3974C2.42547 22.5714 2.10097 17.7552 5.96357 14.4803ZM46.4643 19.4524C43.9934 26.9097 41.7691 34.86 37.488 41.4557C35.3212 44.8878 32.6401 46.2864 29.6702 46.0571C24.2326 45.6372 18.9423 42.5742 16.8379 41.0676C12.3386 37.8464 7.52929 32.7885 4.94565 27.688C9.62718 25.0618 14.8384 23.3748 20.1522 22.289C20.5822 23.5709 21.0873 25.0581 21.6268 26.6352C18.7672 25.8449 16.1986 25.7223 13.2925 25.8895L13.2759 26.0831C14.1089 26.2618 14.9374 26.4226 15.7536 26.6441C18.1081 27.2233 19.679 27.7261 22.3009 28.6015C24.1379 33.9464 26.1005 39.5622 26.495 40.621L26.8348 40.5166C26.2296 38.6724 25.6632 36.7421 25.141 35.2733C24.6072 33.5587 23.893 31.2745 23.151 28.8857C23.6864 29.065 24.2533 29.2549 24.889 29.4668C27.8608 30.4579 30.7526 31.6542 33.9116 31.9558C34.6518 31.9713 35.4856 31.9784 36.0056 31.249C36.2999 30.7973 36.2574 30.0632 36.1587 29.4829C35.8457 27.6427 34.3581 25.8779 34.8484 24.1033C35.1806 23.1774 36.0051 23.3002 36.687 22.8162C36.9847 22.6232 36.8513 22.106 36.5576 21.9683C34.5185 20.8885 32.2993 20.2958 30.47 18.9721L30.3277 19.1365C31.7771 20.5241 33.6915 21.4152 35.4348 22.3565C33.1585 23.1818 33.4941 25.8684 34.2948 27.7133C34.4924 28.2839 35.1712 29.5363 35.2669 30.3272C35.3061 30.6508 35.1161 30.9593 34.8054 31.0578C34.0857 31.2862 32.8812 30.953 32.2164 30.7794C28.9688 29.722 25.6791 27.9677 22.5412 26.918C22.0254 25.2488 21.5224 23.6077 21.0686 22.105C23.7129 21.5974 26.3718 21.2206 28.9897 20.9312L29.5541 20.8805C28.9402 19.9671 28.0942 19.2352 27.0392 18.9158C24.7913 18.3779 22.5332 19.3511 20.27 19.4223C20.2301 19.2854 20.1816 19.1238 20.1439 18.9934L19.9702 18.4111C19.9352 18.2692 19.9088 18.1219 20.0553 18.0799C23.2651 17.0005 26.9434 17.1839 30.3461 16.7726C35.6647 13.8681 40.9229 10.871 45.9229 7.43275C46.21 7.22657 46.4961 7.02074 46.7823 6.81464C49.4615 9.37024 47.393 16.0553 46.4643 19.4524ZM20.67 20.7801C23.4759 20.3358 26.2846 18.7155 28.2969 20.3961C25.8542 20.7179 23.3804 21.106 20.9199 21.6101C20.8371 21.3346 20.7482 21.0421 20.67 20.7801ZM49.7524 2.20794C49.0038 3.38196 47.7095 4.34954 46.4554 5.26332C45.5944 4.80386 44.4612 4.7623 43.4977 4.80465C41.3552 4.89879 39.2194 5.73787 37.254 6.41808C35.1567 7.22631 33.1152 8.14184 31.0917 9.09076L31.2025 9.3572C35.1053 7.72728 39.0696 6.18736 43.2392 5.79176C43.9942 5.7405 44.632 5.80265 45.1829 5.94581C45.3165 5.98469 45.4371 6.02424 45.4371 6.02424L45.2225 6.1846C40.2739 9.65072 35.0139 12.7005 29.7319 15.6343C27.7514 15.6425 22.5047 16.0325 19.5926 17.1216C19.3405 17.2132 18.7094 17.673 18.8275 18.2082C18.9109 18.5607 19.0687 18.9655 19.1665 19.2977C19.1786 19.3357 19.1965 19.3899 19.2092 19.4296C16.1845 19.4822 13.1115 19.0414 10.6769 17.4832C8.95263 16.42 7.88815 15.0087 7.36357 13.483C8.76506 12.7168 10.8324 12.1406 12.1781 11.6402C21.6185 8.48473 31.2796 5.22066 40.9222 2.82117C43.6213 2.25972 46.8241 1.29723 49.4523 1.60032C49.7438 1.63394 49.9101 1.9605 49.7524 2.20794Z" fill="black"/>
</g>
<defs>
<clipPath id="clip0_2833_6169">
<rect width="168.678" height="48.0221" fill="white"/>
</clipPath>
</defs>
</svg>
