<svg width="36" height="33" viewBox="0 0 36 33" fill="none" xmlns="http://www.w3.org/2000/svg">
<path d="M18.3427 3.04766C10.761 5.07155 3.10032 8.1994 1.27756 10.6918C-3.39152 17.078 10.4811 31.9834 18.3491 32.0989C26.215 32.2145 30.2366 25.4025 32.5893 17.7819C38.8161 -2.39504 34.3223 -1.2205 18.3427 3.04766Z" fill="#BB9959"/>
<path d="M30.5508 5.6214C30.4034 5.21919 30.0017 5.07585 29.5529 5.03948C29.0721 5.00097 28.6768 5.0352 28.1896 5.1058C23.3175 5.87172 18.6527 7.5041 13.9686 8.98458L11.18 9.91309C10.4342 10.1356 9.64786 10.4052 8.92346 10.771C8.81021 9.38465 9.53461 7.94054 10.8723 7.0698L10.7932 6.87939C9.12433 7.59182 7.96828 9.39535 8.19265 11.1989C7.36354 11.7509 6.68828 12.4804 6.37844 13.5073C5.84635 15.343 6.28869 17.1679 7.10925 18.8388C6.55152 19.2025 6.03012 19.6026 5.51514 20.0347L5.56642 20.0903C5.56642 20.0903 6.62418 19.2966 7.16908 18.9693C7.7204 20.0647 8.42343 21.0723 9.12219 21.9837C11.6202 25.1437 15.0948 27.5912 19.1057 28.3378C23.7577 29.2343 25.7386 23.7787 27.0463 20.3385C27.8028 17.8183 31.006 10.356 28.7281 8.02612C29.2409 7.64102 29.7409 7.23025 30.1982 6.71251C30.3414 6.50927 30.5508 6.30174 30.5872 5.95301C30.6 5.82679 30.5722 5.68345 30.5508 5.62354V5.6214ZM8.41916 12.0825C8.45335 12.168 8.48113 12.2536 8.52386 12.3392C9.62649 14.8017 12.7079 15.5184 15.1012 15.206C15.1482 15.3472 15.1973 15.497 15.2508 15.6575C12.6566 16.2201 10.1137 17.0588 7.85288 18.3809C6.69683 16.0276 6.5387 13.6806 8.41916 12.0846V12.0825ZM28.1383 14.5064C26.9352 18.1413 25.8518 22.018 23.7684 25.2335C22.7128 26.9066 21.4071 27.589 19.9626 27.4756C17.315 27.2703 14.74 25.7769 13.7143 25.0431C11.524 23.4728 9.18202 21.0082 7.9234 18.52C10.2035 17.2406 12.7399 16.4169 15.3277 15.8885C15.5371 16.5132 15.7828 17.2385 16.0457 18.0065C14.6524 17.6214 13.4024 17.5615 11.9877 17.6428L11.9792 17.737C12.3852 17.8247 12.7891 17.9017 13.1865 18.0108C14.3319 18.2932 15.0969 18.5393 16.3748 18.965C17.2701 21.5708 18.2253 24.3072 18.4176 24.8249L18.5822 24.7735C18.2873 23.875 18.0116 22.9336 17.7573 22.2169C17.4966 21.3804 17.1505 20.2679 16.7893 19.1041C17.05 19.1918 17.3257 19.2838 17.6355 19.3865C19.0822 19.87 20.4904 20.4519 22.0289 20.5995C22.3901 20.6081 22.7961 20.6102 23.0482 20.2551C23.1914 20.0347 23.17 19.6774 23.123 19.395C22.9713 18.4986 22.2469 17.6386 22.4841 16.7721C22.6465 16.3207 23.0482 16.3806 23.3795 16.1452C23.5248 16.0511 23.4585 15.7987 23.3175 15.7323C22.3238 15.206 21.2447 14.9172 20.3536 14.2711L20.2853 14.3503C20.9904 15.0263 21.9221 15.4606 22.7726 15.9206C21.6635 16.3228 21.8281 17.6321 22.217 18.5328C22.3132 18.811 22.6444 19.4207 22.6914 19.8079C22.7106 19.9663 22.6187 20.116 22.467 20.1631C22.1166 20.2743 21.5311 20.1117 21.2062 20.0283C19.625 19.5127 18.0223 18.6569 16.4944 18.1456C16.2423 17.3326 15.9987 16.5325 15.7764 15.7987C17.065 15.5505 18.3578 15.3665 19.6335 15.2274L19.9092 15.2018C19.61 14.7568 19.1976 14.3995 18.6847 14.2433C17.5906 13.9801 16.4902 14.4551 15.3897 14.4893C15.3704 14.423 15.3469 14.3438 15.3277 14.2797L15.2422 13.9951C15.2251 13.9267 15.2123 13.8539 15.2828 13.8347C16.8449 13.3084 18.6377 13.3982 20.2938 13.1971C22.8837 11.7808 25.4437 10.3196 27.8776 8.64441C28.0165 8.54386 28.1575 8.44331 28.2964 8.34275C29.5999 9.5879 28.5934 12.8484 28.1426 14.5043L28.1383 14.5064ZM15.5798 15.1547C16.9453 14.9386 18.3129 14.1492 19.2937 14.9664C18.1035 15.1226 16.9004 15.313 15.7016 15.559C15.661 15.4243 15.6183 15.2831 15.5798 15.1547ZM29.7409 6.10064C29.3755 6.674 28.7473 7.14468 28.1362 7.58968C27.7173 7.36504 27.166 7.34578 26.6959 7.36504C25.6531 7.40996 24.6124 7.82073 23.6551 8.15234C22.6337 8.546 21.64 8.99314 20.6549 9.45526L20.7084 9.58576C22.608 8.79203 24.5398 8.04109 26.5698 7.84855C26.9374 7.82287 27.2472 7.85283 27.5165 7.92343C27.5806 7.94268 27.6404 7.96194 27.6404 7.96194C27.6404 7.96194 27.587 8.00045 27.5357 8.0411C25.1253 9.73124 22.5653 11.2181 19.9925 12.6473C19.0288 12.6516 16.4731 12.842 15.0563 13.3725C14.9345 13.4175 14.6268 13.6421 14.6845 13.9031C14.7251 14.0743 14.802 14.2732 14.849 14.4337C14.8554 14.453 14.864 14.4786 14.8704 14.4979C13.3981 14.5236 11.9023 14.3096 10.7163 13.548C9.87651 13.0302 9.35938 12.3413 9.10296 11.599C9.78462 11.2246 10.7911 10.9443 11.4471 10.7004C16.0435 9.16215 20.7468 7.57042 25.4437 6.40229C26.7579 6.12845 28.3178 5.65991 29.5978 5.80753C29.7388 5.82465 29.82 5.98297 29.7431 6.10277L29.7409 6.10064Z" fill="white"/>
</svg>
