<?xml version="1.0" encoding="UTF-8"?>
<svg version="1.1" xmlns="http://www.w3.org/2000/svg" width="1728" height="1728">
<path d="M0 0 C2.328616 0.00119106 4.65722752 0.00064299 6.98584366 -0.00001144 C30.13519401 0.00138578 53.21724405 0.34615779 76.30453873 2.18867874 C77.39589127 2.27262894 78.4872438 2.35657913 79.61166763 2.44307327 C87.03855429 3.05568652 87.03855429 3.05568652 89.30453873 4.18867874 C92.0592847 4.54396129 94.80321367 4.85227934 97.56625748 5.12617874 C98.39027557 5.2111763 99.21429367 5.29617386 100.06328201 5.3837471 C102.70583894 5.65574081 105.34889368 5.92246615 107.99203873 6.18867874 C110.61723353 6.45575393 113.24230591 6.72395652 115.86723709 6.99361038 C117.50100551 7.1611611 119.13494024 7.32710065 120.76906204 7.49116898 C133.94954508 8.83368509 133.94954508 8.83368509 135.30453873 10.18867874 C137.58058105 10.60733293 139.86693114 10.97015463 142.15610123 11.30977249 C142.848358 11.41459442 143.54061478 11.51941635 144.25384903 11.6274147 C147.22147323 12.07675967 150.1904674 12.51670168 153.1595192 12.95650101 C155.32563416 13.2788024 157.49086319 13.60663938 159.65610123 13.93477249 C161.60250504 14.22372391 161.60250504 14.22372391 163.58823013 14.51851273 C167.25889781 15.18044826 170.72953241 16.13486884 174.30453873 17.18867874 C175.98777414 17.54907038 177.67659903 17.88477844 179.37094498 18.18867874 C180.26877701 18.35367874 181.16660904 18.51867874 182.0916481 18.68867874 C183.9456921 19.02269371 185.79985951 19.35602431 187.6541481 19.68867874 C192.36950197 20.55649369 196.76324944 21.62799307 201.30453873 23.18867874 C204.22875186 23.89729721 207.1726161 24.5077702 210.11703873 25.12617874 C215.58930242 26.30585796 220.89904793 27.5588589 226.16781998 29.47383499 C228.86741652 30.37699069 231.59916192 31.02507598 234.36703873 31.68867874 C238.35603403 32.65965125 242.12269122 33.79732601 245.94516373 35.31367874 C249.19367205 36.51842355 252.4961387 37.53856288 255.80453873 38.56367874 C256.83176041 38.88223831 256.83176041 38.88223831 257.87973404 39.20723343 C260.02080456 39.8694508 262.16254472 40.52945495 264.30453873 41.18867874 C281.3231321 46.42635053 281.3231321 46.42635053 288.30453873 49.18867874 C289.53430435 49.65467484 289.53430435 49.65467484 290.78891373 50.13008499 C298.51588815 53.06347343 306.19202398 56.12240874 313.86703873 59.18867874 C315.42732803 59.81141678 315.42732803 59.81141678 317.01913834 60.44673538 C337.03339525 68.46031467 337.03339525 68.46031467 344.41391373 72.27461624 C347.6226549 73.82594978 350.95009709 74.99066387 354.30453873 76.18867874 C354.30453873 76.84867874 354.30453873 77.50867874 354.30453873 78.18867874 C354.96453873 78.27117874 355.62453873 78.35367874 356.30453873 78.43867874 C359.41356128 79.21593438 362.00285867 80.45838009 364.83578873 81.93477249 C369.91355361 84.51382712 375.12594086 86.82041752 380.30453873 89.18867874 C380.30453873 89.84867874 380.30453873 90.50867874 380.30453873 91.18867874 C380.91942154 91.39363968 381.53430435 91.59860062 382.16781998 91.80977249 C387.23617935 93.49922562 387.23617935 93.49922562 392.30453873 95.18867874 C392.30453873 95.84867874 392.30453873 96.50867874 392.30453873 97.18867874 C393.24426529 97.49612015 393.24426529 97.49612015 394.20297623 97.80977249 C395.02024185 98.07918655 395.83750748 98.34860062 396.67953873 98.62617874 C397.4916481 98.89301468 398.30375748 99.15985062 399.14047623 99.43477249 C401.30453873 100.18867874 401.30453873 100.18867874 403.30453873 101.18867874 C403.30453873 101.84867874 403.30453873 102.50867874 403.30453873 103.18867874 C403.94262466 103.37043655 404.5807106 103.55219437 405.23813248 103.73945999 C406.06442154 103.99082718 406.8907106 104.24219437 407.74203873 104.50117874 C408.97760513 104.86662796 408.97760513 104.86662796 410.23813248 105.23945999 C410.92004654 105.55270218 411.6019606 105.86594437 412.30453873 106.18867874 C412.63453873 107.17867874 412.96453873 108.16867874 413.30453873 109.18867874 C414.00578873 109.29180374 414.70703873 109.39492874 415.42953873 109.50117874 C418.6959152 110.28226877 421.35172393 111.60926617 424.30453873 113.18867874 C424.30453873 113.84867874 424.30453873 114.50867874 424.30453873 115.18867874 C425.21203873 115.47742874 426.11953873 115.76617874 427.05453873 116.06367874 C429.6265678 116.9539965 431.91800639 117.90362287 434.30453873 119.18867874 C434.30453873 119.84867874 434.30453873 120.50867874 434.30453873 121.18867874 C435.23266373 121.47742874 436.16078873 121.76617874 437.11703873 122.06367874 C440.30453873 123.18867874 440.30453873 123.18867874 443.30453873 125.18867874 C443.30453873 125.84867874 443.30453873 126.50867874 443.30453873 127.18867874 C444.00578873 127.27117874 444.70703873 127.35367874 445.42953873 127.43867874 C448.95070027 128.35724262 451.40765826 130.08243159 454.30453873 132.18867874 C459.90997524 136.21579268 465.44544243 139.98179787 471.58969498 143.14570999 C473.30453873 144.18867874 473.30453873 144.18867874 474.30453873 146.18867874 C475.92612593 147.13460461 477.55137693 148.07484775 479.19516373 148.98164749 C484.29830953 151.90178092 489.17044703 154.99652396 493.30453873 159.18867874 C494.12953873 159.68367874 494.95453873 160.17867874 495.80453873 160.68867874 C498.06503659 162.04497746 499.50313442 163.30895251 501.30453873 165.18867874 C502.38735123 165.96211624 502.38735123 165.96211624 503.49203873 166.75117874 C504.09016373 167.22555374 504.68828873 167.69992874 505.30453873 168.18867874 C505.30453873 168.84867874 505.30453873 169.50867874 505.30453873 170.18867874 C506.13985123 170.34336624 506.13985123 170.34336624 506.99203873 170.50117874 C510.27776105 171.47801511 513.14561744 172.98208031 515.53891373 175.47383499 C518.67716454 178.52182638 522.31092546 181.0131219 525.82992935 183.60469437 C527.35686733 184.75376243 528.83527079 185.96673408 530.30453873 187.18867874 C530.30453873 187.84867874 530.30453873 188.50867874 530.30453873 189.18867874 C530.85367935 189.42973343 531.40281998 189.67078812 531.96860123 189.91914749 C534.84306696 191.48135713 537.16659139 193.40705596 539.67953873 195.50117874 C541.12393326 196.70387405 541.12393326 196.70387405 542.59750748 197.93086624 C543.49082779 198.67594437 544.3841481 199.42102249 545.30453873 200.18867874 C545.98129654 200.72750687 546.65805435 201.26633499 547.35531998 201.82149124 C548.70806518 202.89981319 550.01349123 204.03720395 551.30453873 205.18867874 C551.30453873 205.84867874 551.30453873 206.50867874 551.30453873 207.18867874 C552.04703873 207.41555374 552.78953873 207.64242874 553.55453873 207.87617874 C556.84769037 209.44791021 558.0793203 211.33761763 560.30453873 214.18867874 C561.95986495 215.20734103 563.62714011 216.20678687 565.30453873 217.18867874 C569.90073825 221.35732482 569.90073825 221.35732482 571.36703873 224.37617874 C572.60211061 226.76398439 573.90829249 227.02478771 576.30453873 228.18867874 C578.81736184 230.51304012 581.04004341 232.84209867 583.11703873 235.56367874 C585.62859524 238.57754656 588.43865529 240.95083721 591.41781998 243.48945999 C593.6721336 245.51974244 595.43614485 247.80486587 597.30453873 250.18867874 C598.95456701 251.5425481 600.62197743 252.87546017 602.30453873 254.18867874 C603.99216724 255.83411654 605.65857362 257.50156451 607.30453873 259.18867874 C608.46469498 260.31983109 608.46469498 260.31983109 609.64828873 261.47383499 C613.2908342 265.19673073 616.51297599 269.21901439 619.80453873 273.25117874 C622.1855244 276.04883691 624.6869524 278.61407412 627.30453873 281.18867874 C629.69714911 283.80358544 631.98980287 286.50474666 634.30453873 289.18867874 C635.34331821 290.37512451 636.38240538 291.56130092 637.42172623 292.74727249 C638.52877667 294.01916459 639.63554602 295.2913014 640.74203873 296.56367874 C641.55910294 297.49264969 641.55910294 297.49264969 642.39267349 298.44038773 C646.30453873 302.96155447 646.30453873 302.96155447 646.30453873 305.18867874 C646.96453873 305.18867874 647.62453873 305.18867874 648.30453873 305.18867874 C652.30453873 310.60044345 652.30453873 310.60044345 652.30453873 313.18867874 C652.92328873 313.43617874 653.54203873 313.68367874 654.17953873 313.93867874 C656.72957797 315.43870183 657.06676221 316.55840364 658.30453873 319.18867874 C658.90524185 319.78422562 659.50594498 320.37977249 660.12485123 320.99336624 C662.44251688 323.32764599 664.27358225 325.75962346 666.17953873 328.43867874 C666.87176529 329.40289749 667.56399185 330.36711624 668.27719498 331.36055374 C668.94621841 332.29383499 669.61524185 333.22711624 670.30453873 334.18867874 C671.40311887 335.69277505 672.50659575 337.19331912 673.61703873 338.68867874 C674.06692154 339.29711624 674.51680435 339.90555374 674.98031998 340.53242874 C676.27455574 342.22036676 676.27455574 342.22036676 677.83578873 343.68477249 C680.48866789 346.40115142 683.30453873 350.34360572 683.30453873 354.18867874 C683.96453873 354.18867874 684.62453873 354.18867874 685.30453873 354.18867874 C689.30453873 360.93867874 689.30453873 360.93867874 689.30453873 363.18867874 C690.29453873 363.51867874 691.28453873 363.84867874 692.30453873 364.18867874 C693.79797722 366.27193827 695.12739962 368.30471333 696.42953873 370.50117874 C696.78918716 371.08319046 697.1488356 371.66520218 697.51938248 372.26485062 C698.96958999 374.66285294 700.21352261 376.80218072 700.85922623 379.54414749 C701.07965591 380.35819046 701.07965591 380.35819046 701.30453873 381.18867874 C702.29453873 381.51867874 703.28453873 381.84867874 704.30453873 382.18867874 C705.51547623 383.97383499 705.51547623 383.97383499 706.67953873 386.25117874 C708.73448221 390.16119278 710.96298868 393.86847175 713.38656998 397.55977249 C714.30453873 399.18867874 714.30453873 399.18867874 714.30453873 401.18867874 C714.96453873 401.18867874 715.62453873 401.18867874 716.30453873 401.18867874 C716.6216481 401.77391312 716.93875748 402.35914749 717.26547623 402.96211624 C720.03137962 408.05076723 722.82176044 413.12418742 725.64340591 418.18208694 C731.8020398 429.22511223 737.83374453 440.33515982 743.83285904 451.46553421 C745.12579604 453.85793954 746.42753333 456.24517683 747.73422623 458.63008499 C751.28017725 465.13342062 754.47408178 471.64833946 757.21078873 478.53633499 C758.21115331 480.96221911 759.32793263 483.24626936 760.55453873 485.56367874 C762.19706946 488.72952426 762.94674867 491.61077821 763.30453873 495.18867874 C763.96453873 495.18867874 764.62453873 495.18867874 765.30453873 495.18867874 C765.97982095 496.76835681 766.64443567 498.35259777 767.30453873 499.93867874 C767.67578873 500.82039749 768.04703873 501.70211624 768.42953873 502.61055374 C769.30453873 505.18867874 769.30453873 505.18867874 769.30453873 509.18867874 C769.96453873 509.18867874 770.62453873 509.18867874 771.30453873 509.18867874 C771.75893326 510.49578812 771.75893326 510.49578812 772.22250748 511.82930374 C774.64835754 518.72618208 777.22147367 525.50181414 780.06625748 532.23945999 C787.41753503 549.74802324 793.13441509 567.94716881 798.66293716 586.10176468 C799.39769406 588.49168169 800.15236979 590.87499299 800.90610123 593.25899124 C801.45607556 595.02706646 802.00556036 596.79529403 802.55453873 598.56367874 C802.94246597 599.77652542 802.94246597 599.77652542 803.33823013 601.01387405 C805.08935986 606.72169249 805.91150648 612.2350262 806.30453873 618.18867874 C806.96453873 618.18867874 807.62453873 618.18867874 808.30453873 618.18867874 C808.44552994 618.88952591 808.58652115 619.59037308 808.73178482 620.31245804 C809.37616441 623.50137177 810.02777602 626.68876617 810.67953873 629.87617874 C810.90125748 630.97897171 811.12297623 632.08176468 811.35141373 633.21797562 C811.57055435 634.28467484 811.78969498 635.35137405 812.01547623 636.45039749 C812.21447525 637.42968216 812.41347427 638.40896683 812.61850357 639.41792679 C813.23587694 642.18814144 813.23587694 642.18814144 814.32260513 644.71553421 C815.36027464 647.32905786 815.85924933 649.72390475 816.30453873 652.49727249 C816.55203873 653.98904007 816.55203873 653.98904007 816.80453873 655.51094437 C817.05203873 657.05298538 817.05203873 657.05298538 817.30453873 658.62617874 C817.63337455 660.66727299 817.96658487 662.70766813 818.30453873 664.74727249 C818.44891373 665.64760208 818.59328873 666.54793167 818.74203873 667.47554398 C819.25983921 670.25566546 819.25983921 670.25566546 820.30234146 673.1115303 C821.3671007 676.38076915 821.88740037 679.45810867 822.33969498 682.86445999 C822.5092067 684.10389359 822.67871841 685.34332718 822.85336685 686.62031937 C823.02287857 687.90100296 823.19239029 689.18168655 823.36703873 690.50117874 C823.70833628 693.06027602 824.05318666 695.61890289 824.40219498 698.17695999 C824.55180679 699.30658157 824.70141861 700.43620316 824.85556412 701.60005569 C825.03519119 704.11128711 825.03519119 704.11128711 826.30453873 705.18867874 C826.667243 707.70722559 826.97306409 710.2104178 827.24203873 712.73945999 C827.32703629 713.50864258 827.41203384 714.27782516 827.49960709 715.07031631 C827.67980192 716.7085856 827.85787733 718.34708914 828.03403091 719.98579788 C828.29936093 722.4530318 828.57084909 724.91952116 828.84360123 727.38594437 C829.70697106 735.25910727 830.51694976 743.12186679 831.05844498 751.02534866 C831.18437669 753.23439843 831.18437669 753.23439843 832.30453873 755.18867874 C832.83244123 759.62996221 833.06971241 764.10068995 833.35141373 768.56367874 C833.39578316 769.26005447 833.44015259 769.95643021 833.48586655 770.67390823 C834.61284174 788.91898805 834.60921226 807.16928686 834.56528091 825.44258499 C834.55388758 830.22860126 834.56066408 835.01439492 834.57217026 839.80040359 C834.60880967 857.83007736 834.49818069 875.81523534 833.35141373 893.81367874 C833.30831322 894.49651932 833.26521271 895.17935989 833.22080612 895.88289261 C832.51249954 906.77275712 832.51249954 906.77275712 831.30453873 909.18867874 C830.94852277 912.07756876 830.64031954 914.95580481 830.36703873 917.85274124 C830.28204117 918.71877975 830.19704361 919.58481827 830.10947037 920.47710037 C829.83743042 923.25561124 829.57076845 926.03460566 829.30453873 928.81367874 C829.03732175 931.57122286 828.76897433 934.32865221 828.49960709 937.08598709 C828.33228069 938.802173 828.16634837 940.51849561 828.00204849 942.23497391 C826.58249331 956.91072416 826.58249331 956.91072416 825.30453873 958.18867874 C824.88417753 960.54535838 824.51744223 962.88970411 824.18344498 965.25899124 C823.96795519 966.72774198 823.75246023 968.19649195 823.5369606 969.66524124 C823.20224158 971.98211303 822.86911463 974.29920728 822.53671646 976.61641312 C822.21456666 978.85203201 821.88667233 981.08675779 821.55844498 983.32149124 C821.46253571 984.00405991 821.36662643 984.68662857 821.26781082 985.38988113 C820.62017491 989.78843784 819.56501203 993.93008637 818.30453873 998.18867874 C817.94414709 999.87191415 817.60843903 1001.56073904 817.30453873 1003.25508499 C817.13953873 1004.15291702 816.97453873 1005.05074905 816.80453873 1005.97578812 C816.47052376 1007.82983211 816.13719316 1009.68399953 815.80453873 1011.53828812 C814.93642032 1016.25529089 813.85044029 1020.64190944 812.30453873 1025.18867874 C811.40289615 1029.08412042 810.65713585 1033.01249106 809.89242935 1036.93672562 C808.91024768 1041.80067709 807.64022494 1046.41820537 806.01181412 1051.10493851 C805.01793359 1054.03306082 804.25573027 1057.00569455 803.49203873 1060.00117874 C801.85234832 1066.24461528 800.08909015 1072.44093034 798.24203873 1078.62617874 C797.99671402 1079.4541597 797.75138931 1080.28214066 797.49863052 1081.13521194 C796.34650603 1084.96572697 795.13104807 1088.74150008 793.71078873 1092.48164749 C792.62678447 1095.33920314 791.68540255 1098.1257018 790.86703873 1101.06367874 C789.65595239 1105.18137228 788.18403759 1109.09774572 786.55063248 1113.06367874 C784.82604702 1117.38865794 783.22287964 1121.75595063 781.61703873 1126.12617874 C781.30734146 1126.96785599 780.9976442 1127.80953323 780.67856216 1128.67671585 C779.51876785 1131.83801849 778.36946894 1134.9938881 777.30453873 1138.18867874 C776.64453873 1138.18867874 775.98453873 1138.18867874 775.30453873 1138.18867874 C775.18336685 1138.76875687 775.06219498 1139.34883499 774.93735123 1139.94649124 C773.96718398 1144.46896316 772.8705609 1148.8261884 771.30453873 1153.18867874 C770.64453873 1153.18867874 769.98453873 1153.18867874 769.30453873 1153.18867874 C769.20141373 1153.84867874 769.09828873 1154.50867874 768.99203873 1155.18867874 C768.11240308 1159.02708883 766.73483976 1162.51964565 765.30453873 1166.18867874 C764.64453873 1166.18867874 763.98453873 1166.18867874 763.30453873 1166.18867874 C763.23235123 1166.96598343 763.16016373 1167.74328812 763.08578873 1168.54414749 C762.01452677 1173.54158452 759.95216742 1177.88040204 757.80453873 1182.50117874 C757.36037613 1183.46870071 756.91621353 1184.43622269 756.45859146 1185.43306351 C753.27652853 1192.28981943 749.8920475 1199.01502646 746.26156998 1205.64497757 C744.01977404 1209.74535199 742.08392469 1213.86571912 740.30453873 1218.18867874 C739.64453873 1218.18867874 738.98453873 1218.18867874 738.30453873 1218.18867874 C738.20141373 1218.88992874 738.09828873 1219.59117874 737.99203873 1220.31367874 C737.2109487 1223.58005522 735.88395129 1226.23586394 734.30453873 1229.18867874 C733.64453873 1229.18867874 732.98453873 1229.18867874 732.30453873 1229.18867874 C732.20141373 1229.88992874 732.09828873 1230.59117874 731.99203873 1231.31367874 C731.2109487 1234.58005522 729.88395129 1237.23586394 728.30453873 1240.18867874 C727.64453873 1240.18867874 726.98453873 1240.18867874 726.30453873 1240.18867874 C726.01578873 1241.07555374 725.72703873 1241.96242874 725.42953873 1242.87617874 C724.47305125 1245.69250298 723.43654926 1248.4395103 722.30453873 1251.18867874 C721.64453873 1251.18867874 720.98453873 1251.18867874 720.30453873 1251.18867874 C720.01578873 1252.11680374 719.72703873 1253.04492874 719.42953873 1254.00117874 C718.30453873 1257.18867874 718.30453873 1257.18867874 716.30453873 1260.18867874 C715.64453873 1260.18867874 714.98453873 1260.18867874 714.30453873 1260.18867874 C714.20141373 1260.72492874 714.09828873 1261.26117874 713.99203873 1261.81367874 C712.38669706 1267.3594045 709.2119893 1271.94801366 705.99203873 1276.66524124 C703.4899293 1280.40682154 701.16129697 1284.2549473 698.82016373 1288.09883499 C698.32000748 1288.78848343 697.81985123 1289.47813187 697.30453873 1290.18867874 C696.64453873 1290.18867874 695.98453873 1290.18867874 695.30453873 1290.18867874 C695.21043716 1290.74555374 695.1163356 1291.30242874 695.01938248 1291.87617874 C694.1226164 1294.77719249 692.66009618 1296.7432615 690.86703873 1299.18867874 C688.31430569 1302.67875235 688.31430569 1302.67875235 686.20688248 1306.43867874 C685.30453873 1308.18867874 685.30453873 1308.18867874 683.30453873 1309.18867874 C682.18819721 1310.83919162 682.18819721 1310.83919162 681.17953873 1312.75117874 C680.56078873 1313.88555374 679.94203873 1315.01992874 679.30453873 1316.18867874 C678.64453873 1316.18867874 677.98453873 1316.18867874 677.30453873 1316.18867874 C677.01578873 1316.93117874 676.72703873 1317.67367874 676.42953873 1318.43867874 C674.7868888 1322.45404524 673.36102725 1325.13219022 670.30453873 1328.18867874 C669.80953873 1329.01367874 669.31453873 1329.83867874 668.80453873 1330.68867874 C667.43816099 1332.96597497 666.17003275 1334.34873943 664.30453873 1336.18867874 C663.42216971 1337.25757554 662.55791652 1338.34164184 661.71078873 1339.43867874 C661.23770279 1340.04711624 660.76461685 1340.65555374 660.27719498 1341.28242874 C659.79121841 1341.91149124 659.30524185 1342.54055374 658.80453873 1343.18867874 C657.83771252 1344.44016731 656.86902052 1345.69021715 655.89828873 1346.93867874 C655.25923599 1347.76625687 655.25923599 1347.76625687 654.6072731 1348.61055374 C653.30453873 1350.18867874 653.30453873 1350.18867874 651.70492935 1351.76289749 C650.18215953 1353.16151496 650.18215953 1353.16151496 649.30453873 1355.25117874 C648.30453873 1357.18867874 648.30453873 1357.18867874 645.30453873 1359.18867874 C644.28587643 1360.84400497 643.2864306 1362.51128012 642.30453873 1364.18867874 C641.32515082 1365.20887447 640.32558424 1366.21017679 639.30453873 1367.18867874 C638.53110123 1368.27149124 638.53110123 1368.27149124 637.74203873 1369.37617874 C637.03047623 1370.27336624 637.03047623 1370.27336624 636.30453873 1371.18867874 C635.64453873 1371.18867874 634.98453873 1371.18867874 634.30453873 1371.18867874 C634.05317154 1371.7468428 633.80180435 1372.30500687 633.54281998 1372.88008499 C630.05718877 1379.37853307 624.63088499 1385.15024308 619.30453873 1390.18867874 C618.47953873 1391.01367874 617.65453873 1391.83867874 616.80453873 1392.68867874 C615.20033824 1394.29287923 613.58651916 1395.88755112 611.96078873 1397.46992874 C609.23426286 1400.26060815 606.77125206 1403.16695491 604.30453873 1406.18867874 C601.13752922 1410.06826538 597.89052501 1413.69234212 594.30453873 1417.18867874 C593.47953873 1418.03430374 592.65453873 1418.87992874 591.80453873 1419.75117874 C589.4127547 1422.08316817 586.91059534 1424.10383345 584.30453873 1426.18867874 C583.54141373 1426.95180374 582.77828873 1427.71492874 581.99203873 1428.50117874 C579.82041676 1430.6728007 577.62402334 1432.68252038 575.30453873 1434.68867874 C571.37719516 1438.09286773 567.73917393 1441.71305396 564.11703873 1445.43867874 C559.96960075 1449.49395143 555.64153627 1453.33807345 551.30453873 1457.18867874 C550.6007106 1457.82031937 549.89688248 1458.45195999 549.17172623 1459.10274124 C544.54357901 1463.18867874 544.54357901 1463.18867874 542.30453873 1463.18867874 C541.97453873 1464.17867874 541.64453873 1465.16867874 541.30453873 1466.18867874 C539.65382477 1467.21479823 537.98483867 1468.21176017 536.30453873 1469.18867874 C534.96555575 1470.51633839 533.63304119 1471.85053198 532.30453873 1473.18867874 C530.61654522 1474.62952055 528.90748684 1476.04600414 527.17953873 1477.43867874 C526.3107106 1478.14508499 525.44188248 1478.85149124 524.54672623 1479.57930374 C522.30453873 1481.18867874 522.30453873 1481.18867874 520.30453873 1481.18867874 C519.97453873 1482.17867874 519.64453873 1483.16867874 519.30453873 1484.18867874 C513.93311016 1488.18867874 513.93311016 1488.18867874 511.30453873 1488.18867874 C510.97453873 1489.17867874 510.64453873 1490.16867874 510.30453873 1491.18867874 C505.97120539 1494.18867874 505.97120539 1494.18867874 503.30453873 1494.18867874 C503.07766373 1494.78680374 502.85078873 1495.38492874 502.61703873 1496.00117874 C500.92340508 1498.82390149 499.17878949 1499.59187276 496.30453873 1501.18867874 C494.46915378 1502.50192832 492.65930716 1503.84440713 490.85531998 1505.20039749 C489.30453873 1506.18867874 489.30453873 1506.18867874 487.30453873 1506.18867874 C487.30453873 1506.84867874 487.30453873 1507.50867874 487.30453873 1508.18867874 C485.79281998 1509.38008499 485.79281998 1509.38008499 483.61703873 1510.75117874 C480.6813607 1512.63673347 477.77304694 1514.54320009 474.91781998 1516.54805374 C474.34056168 1516.95338333 473.76330338 1517.35871292 473.1685524 1517.77632523 C472.02258794 1518.58347161 470.87817713 1519.39282902 469.73544693 1520.20454788 C467.25760533 1521.94095257 465.19545547 1523.22503983 462.30453873 1524.18867874 C461.72703873 1524.78680374 461.14953873 1525.38492874 460.55453873 1526.00117874 C457.77988222 1528.69876145 454.68696338 1530.38252965 451.30453873 1532.18867874 C449.67701274 1533.05897131 448.05204733 1533.93406756 446.42953873 1534.81367874 C445.28871841 1535.42082718 445.28871841 1535.42082718 444.12485123 1536.04024124 C442.14977107 1537.06668576 442.14977107 1537.06668576 441.30453873 1539.18867874 C439.81407672 1540.01671319 438.28589923 1540.77756779 436.74203873 1541.50117874 C431.28222188 1544.1495394 426.25858269 1547.23031813 421.20688248 1550.57930374 C417.59868587 1552.92631761 414.70081121 1554.7765282 410.30453873 1555.18867874 C410.30453873 1555.84867874 410.30453873 1556.50867874 410.30453873 1557.18867874 C408.84828423 1557.85987423 407.38946006 1558.52549681 405.92953873 1559.18867874 C405.11742935 1559.55992874 404.30531998 1559.93117874 403.46860123 1560.31367874 C401.30453873 1561.18867874 401.30453873 1561.18867874 399.30453873 1561.18867874 C399.30453873 1561.84867874 399.30453873 1562.50867874 399.30453873 1563.18867874 C398.03762365 1563.86276182 396.76583124 1564.52768371 395.49203873 1565.18867874 C394.78434341 1565.55992874 394.0766481 1565.93117874 393.34750748 1566.31367874 C391.30453873 1567.18867874 391.30453873 1567.18867874 388.30453873 1567.18867874 C388.30453873 1567.84867874 388.30453873 1568.50867874 388.30453873 1569.18867874 C386.87024872 1569.86222374 385.43196816 1570.52727575 383.99203873 1571.18867874 C383.19153091 1571.55992874 382.3910231 1571.93117874 381.56625748 1572.31367874 C379.30453873 1573.18867874 379.30453873 1573.18867874 376.30453873 1573.18867874 C376.30453873 1573.84867874 376.30453873 1574.50867874 376.30453873 1575.18867874 C374.34804476 1576.02632142 372.38928317 1576.85866933 370.42953873 1577.68867874 C368.79371841 1578.38477249 368.79371841 1578.38477249 367.12485123 1579.09492874 C364.30453873 1580.18867874 364.30453873 1580.18867874 362.30453873 1580.18867874 C362.30453873 1580.84867874 362.30453873 1581.50867874 362.30453873 1582.18867874 C360.70303987 1582.86172892 359.09822843 1583.52690101 357.49203873 1584.18867874 C356.59871841 1584.55992874 355.7053981 1584.93117874 354.78500748 1585.31367874 C352.30453873 1586.18867874 352.30453873 1586.18867874 349.30453873 1586.18867874 C349.30453873 1586.84867874 349.30453873 1587.50867874 349.30453873 1588.18867874 C347.70303987 1588.86172892 346.09822843 1589.52690101 344.49203873 1590.18867874 C343.59871841 1590.55992874 342.7053981 1590.93117874 341.78500748 1591.31367874 C339.30453873 1592.18867874 339.30453873 1592.18867874 336.30453873 1592.18867874 C336.30453873 1592.84867874 336.30453873 1593.50867874 336.30453873 1594.18867874 C335.38672623 1594.50320999 334.46891373 1594.81774124 333.52328873 1595.14180374 C332.29610123 1595.56977249 331.06891373 1595.99774124 329.80453873 1596.43867874 C328.59797623 1596.85633499 327.39141373 1597.27399124 326.14828873 1597.70430374 C322.7359731 1598.9565658 319.56282036 1600.53229583 316.33188248 1602.18916702 C312.98812997 1603.83768855 309.53438444 1605.1701652 306.05453873 1606.50117874 C304.88519791 1606.95110184 304.88519791 1606.95110184 303.69223404 1607.41011429 C294.63099583 1610.86721683 285.48526907 1614.06504875 276.30453873 1617.18867874 C275.11022232 1617.59586136 273.91590591 1618.00304398 272.6853981 1618.42256546 C269.3879171 1619.54505267 266.08800899 1620.66018382 262.78659439 1621.77104568 C261.48655861 1622.20894805 260.1869806 1622.64821231 258.88791275 1623.08897781 C251.60274529 1625.55735588 244.34463159 1627.79815703 236.85312271 1629.55293655 C234.46696036 1630.1481628 232.18350093 1630.86681679 229.86703873 1631.68867874 C225.13631581 1633.33713392 220.30390551 1634.35663904 215.41781998 1635.43867874 C212.85029539 1636.05720411 210.46530026 1636.78071275 207.99203873 1637.68867874 C203.14105345 1639.41086868 198.12324562 1640.24234258 193.06308365 1641.09883499 C190.12697568 1641.60626595 187.34858736 1642.17335478 184.53110123 1643.15352249 C179.73648371 1644.69174724 174.82994189 1645.38201004 169.86703873 1646.18867874 C162.34999709 1647.36521751 162.34999709 1647.36521751 154.97641373 1649.18867874 C149.08103777 1650.79422794 143.04419659 1651.40814856 136.99203873 1652.18867874 C127.11996459 1653.4251916 127.11996459 1653.4251916 117.33969498 1655.21602249 C111.30813569 1656.48523676 105.20618452 1657.00549952 99.07455826 1657.56636429 C97.07125756 1657.74964911 95.06874991 1657.94014283 93.06625748 1658.13203812 C85.45102691 1658.84854503 77.83854014 1659.45381515 70.20395279 1659.9228096 C67.47200829 1660.08692674 67.47200829 1660.08692674 65.56084061 1660.67065811 C53.42235831 1663.45751226 39.69764315 1662.3374019 27.30844498 1662.32149124 C25.42147687 1662.3221674 23.53450886 1662.32314001 21.64754105 1662.32439041 C17.71866389 1662.32585308 13.78980967 1662.32375961 9.86093521 1662.31904984 C4.87458878 1662.31335743 -0.11170375 1662.3166377 -5.09804821 1662.3226223 C-8.98727942 1662.32627026 -12.87649828 1662.32507001 -16.7657299 1662.32249451 C-18.60216974 1662.32183669 -20.43861077 1662.32261261 -22.27504921 1662.32497406 C-31.28474788 1662.33402119 -40.26862595 1662.24801937 -49.26601791 1661.74287796 C-49.97437758 1661.70415636 -50.68273726 1661.66543476 -51.41256237 1661.62553978 C-54.38311159 1661.43770878 -56.85565661 1661.1352803 -59.69546127 1660.18867874 C-62.29402777 1659.9209909 -64.8802367 1659.69564906 -67.48452377 1659.50508499 C-68.26121414 1659.44465515 -69.03790451 1659.38422531 -69.83813095 1659.32196426 C-72.3319797 1659.12810623 -74.82615828 1658.93909577 -77.32046127 1658.75117874 C-108.86700322 1656.37072297 -108.86700322 1656.37072297 -121.24526596 1653.68867874 C-127.52200936 1652.40781281 -133.90158643 1651.61566843 -140.23843002 1650.68867874 C-145.46257962 1649.90658383 -150.56831686 1649.05604223 -155.67055893 1647.68867874 C-160.95555415 1646.38367872 -166.37552577 1645.60762351 -171.73843002 1644.68867874 C-176.5710728 1643.83781454 -181.04751461 1642.78332002 -185.69546127 1641.18867874 C-188.97238939 1640.40794614 -192.26956852 1639.73479399 -195.57046127 1639.06367874 C-196.4496019 1638.88192093 -197.32874252 1638.70016312 -198.23452377 1638.51289749 C-200.38752595 1638.06825574 -202.54115298 1637.62694045 -204.69546127 1637.18867874 C-204.69546127 1636.52867874 -204.69546127 1635.86867874 -204.69546127 1635.18867874 C-205.56944565 1635.13260452 -205.56944565 1635.13260452 -206.46108627 1635.07539749 C-215.75879412 1634.32982658 -224.52912471 1632.03485841 -233.32436752 1628.99336624 C-236.05764117 1628.06576431 -238.80975212 1627.21866502 -241.57046127 1626.37617874 C-247.22238314 1624.64531928 -252.86792717 1622.89533263 -258.50796127 1621.12617874 C-259.29606186 1620.88085403 -260.08416245 1620.63552933 -260.89614487 1620.38277054 C-265.13560026 1619.04951583 -269.30942273 1617.61676153 -273.46035385 1616.03023148 C-276.17179754 1615.00933072 -278.8991319 1614.03798149 -281.62905502 1613.06758499 C-282.69059799 1612.68924515 -283.75214096 1612.3109053 -284.8458519 1611.92110062 C-287.03255825 1611.14282545 -289.22005713 1610.36677335 -291.4083519 1609.59297562 C-297.63660669 1607.36832912 -303.68651755 1604.94629313 -309.69546127 1602.18867874 C-312.02671057 1601.18382991 -314.35989665 1600.18345627 -316.69546127 1599.18867874 C-325.75424345 1595.31466579 -334.73378187 1591.2816961 -343.69546127 1587.18867874 C-344.69448471 1586.7362178 -345.69350815 1586.28375687 -346.72280502 1585.81758499 C-354.83530863 1582.11732068 -362.81357098 1578.18069994 -370.76968002 1574.15864944 C-372.768532 1573.15187474 -374.77292965 1572.1566827 -376.77749252 1571.16133499 C-380.2478234 1569.42764521 -383.66444463 1567.60861603 -387.07046127 1565.75117874 C-392.55744181 1562.78039815 -398.09228274 1559.93335084 -403.69546127 1557.18867874 C-403.69546127 1556.52867874 -403.69546127 1555.86867874 -403.69546127 1555.18867874 C-404.95229721 1554.82129593 -404.95229721 1554.82129593 -406.23452377 1554.44649124 C-410.13972974 1553.02721774 -413.50517399 1551.17010108 -417.07046127 1549.06367874 C-418.03145737 1548.50487015 -418.03145737 1548.50487015 -419.01186752 1547.93477249 C-420.57594604 1547.02433873 -422.13611661 1546.10719683 -423.69546127 1545.18867874 C-423.69546127 1544.52867874 -423.69546127 1543.86867874 -423.69546127 1543.18867874 C-424.60296127 1542.89992874 -425.51046127 1542.61117874 -426.44546127 1542.31367874 C-429.01749035 1541.42336098 -431.30892893 1540.47373462 -433.69546127 1539.18867874 C-433.69546127 1538.52867874 -433.69546127 1537.86867874 -433.69546127 1537.18867874 C-434.57073471 1536.92828812 -435.44600815 1536.66789749 -436.34780502 1536.39961624 C-439.68246701 1535.19337912 -442.29390999 1533.74473918 -445.25796127 1531.81367874 C-446.16675034 1531.22844437 -447.0755394 1530.64320999 -448.01186752 1530.04024124 C-450.69546127 1528.18867874 -450.69546127 1528.18867874 -453.31655502 1526.08711624 C-455.2528342 1524.54190823 -457.02002339 1523.33796668 -459.19546127 1522.18867874 C-462.30460853 1520.47561279 -464.93569849 1518.42632424 -467.69546127 1516.18867874 C-469.00685032 1515.4798198 -470.33323145 1514.79411422 -471.69546127 1514.18867874 C-471.69546127 1513.52867874 -471.69546127 1512.86867874 -471.69546127 1512.18867874 C-472.64421127 1511.94117874 -473.59296127 1511.69367874 -474.57046127 1511.43867874 C-478.13106095 1510.01443887 -478.21288786 1509.47151987 -479.69546127 1506.18867874 C-481.55290335 1505.5780073 -481.55290335 1505.5780073 -483.69546127 1505.18867874 C-486.44546127 1503.75117874 -486.44546127 1503.75117874 -488.69546127 1502.18867874 C-488.69546127 1501.52867874 -488.69546127 1500.86867874 -488.69546127 1500.18867874 C-489.27296127 1499.89992874 -489.85046127 1499.61117874 -490.44546127 1499.31367874 C-491.18796127 1498.94242874 -491.93046127 1498.57117874 -492.69546127 1498.18867874 C-493.71639877 1497.72461624 -493.71639877 1497.72461624 -494.75796127 1497.25117874 C-496.69546127 1496.18867874 -496.69546127 1496.18867874 -497.92983627 1494.92305374 C-500.39507964 1492.50144301 -503.13690408 1490.4639211 -505.88296127 1488.37617874 C-506.45941391 1487.9340303 -507.03586655 1487.49188187 -507.62978745 1487.03633499 C-511.50495892 1484.07019451 -515.42172609 1481.16840019 -519.40249252 1478.34492874 C-520.04251205 1477.77258499 -520.04251205 1477.77258499 -520.69546127 1477.18867874 C-520.69546127 1476.52867874 -520.69546127 1475.86867874 -520.69546127 1475.18867874 C-521.47921127 1474.94117874 -522.26296127 1474.69367874 -523.07046127 1474.43867874 C-526.16040115 1472.9672788 -526.23205355 1472.1154942 -527.69546127 1469.18867874 C-528.52046127 1468.85867874 -529.34546127 1468.52867874 -530.19546127 1468.18867874 C-533.27305836 1466.95763991 -533.27334994 1466.03290141 -534.69546127 1463.18867874 C-535.52046127 1462.85867874 -536.34546127 1462.52867874 -537.19546127 1462.18867874 C-540.27305836 1460.95763991 -540.27334994 1460.03290141 -541.69546127 1457.18867874 C-542.43925034 1456.91797562 -543.1830394 1456.64727249 -543.94936752 1456.36836624 C-547.33662796 1454.91324156 -549.11646905 1452.99316651 -551.63296127 1450.31367874 C-555.5425644 1446.21870876 -555.5425644 1446.21870876 -560.07046127 1442.87617874 C-563.01517912 1440.98314584 -564.59386138 1438.96821408 -566.69546127 1436.18867874 C-568.34089907 1434.50105023 -570.00834704 1432.83464385 -571.69546127 1431.18867874 C-572.52046127 1430.34305374 -573.34546127 1429.49742874 -574.19546127 1428.62617874 C-576.66129885 1426.1313925 -576.66129885 1426.1313925 -579.50796127 1424.00117874 C-580.22983627 1423.40305374 -580.95171127 1422.80492874 -581.69546127 1422.18867874 C-581.69546127 1421.52867874 -581.69546127 1420.86867874 -581.69546127 1420.18867874 C-582.68546127 1419.85867874 -583.67546127 1419.52867874 -584.69546127 1419.18867874 C-584.69546127 1418.52867874 -584.69546127 1417.86867874 -584.69546127 1417.18867874 C-585.68546127 1416.85867874 -586.67546127 1416.52867874 -587.69546127 1416.18867874 C-591.04888776 1413.09320813 -593.85150254 1409.74362716 -596.69546127 1406.18867874 C-598.34089907 1404.50105023 -600.00834704 1402.83464385 -601.69546127 1401.18867874 C-603.36212794 1399.52201207 -605.02879461 1397.85534541 -606.69546127 1396.18867874 C-607.29358627 1395.63180374 -607.89171127 1395.07492874 -608.50796127 1394.50117874 C-609.69546127 1393.18867874 -609.69546127 1393.18867874 -609.69546127 1391.18867874 C-610.35546127 1391.18867874 -611.01546127 1391.18867874 -611.69546127 1391.18867874 C-613.31655502 1389.57930374 -613.31655502 1389.57930374 -615.13296127 1387.43867874 C-616.02821518 1386.39453812 -616.02821518 1386.39453812 -616.94155502 1385.32930374 C-621.69546127 1379.52720881 -621.69546127 1379.52720881 -621.69546127 1377.18867874 C-622.31421127 1376.89992874 -622.93296127 1376.61117874 -623.57046127 1376.31367874 C-625.69546127 1375.18867874 -625.69546127 1375.18867874 -627.69546127 1373.18867874 C-627.69546127 1372.19867874 -627.69546127 1371.20867874 -627.69546127 1370.18867874 C-628.24589096 1369.9837178 -628.79632065 1369.77875687 -629.36343002 1369.56758499 C-632.5825299 1367.66416412 -634.67394562 1364.98567254 -637.00796127 1362.12617874 C-637.73209213 1361.25424881 -637.73209213 1361.25424881 -638.4708519 1360.36470413 C-642.31233342 1355.71735775 -646.06029814 1350.99934299 -649.69546127 1346.18867874 C-650.25233627 1345.4887178 -650.80921127 1344.78875687 -651.38296127 1344.06758499 C-652.69546127 1342.18867874 -652.69546127 1342.18867874 -652.69546127 1340.18867874 C-653.35546127 1340.18867874 -654.01546127 1340.18867874 -654.69546127 1340.18867874 C-655.63947169 1338.43086624 -656.58348211 1336.67305374 -657.52749252 1334.91524124 C-658.7430962 1332.88365509 -658.7430962 1332.88365509 -661.69546127 1331.18867874 C-664.69546127 1326.7442343 -664.69546127 1326.7442343 -664.69546127 1324.18867874 C-665.35546127 1324.18867874 -666.01546127 1324.18867874 -666.69546127 1324.18867874 C-670.69546127 1318.77691404 -670.69546127 1318.77691404 -670.69546127 1316.18867874 C-671.35546127 1316.18867874 -672.01546127 1316.18867874 -672.69546127 1316.18867874 C-673.86654492 1314.36316599 -675.02733004 1312.5303774 -676.14077377 1310.66914749 C-677.87159987 1307.90765359 -679.75832576 1305.30929414 -681.69546127 1302.68867874 C-684.47232964 1298.91151258 -687.10165167 1295.11490377 -689.53139877 1291.10664749 C-690.37153743 1289.72239219 -691.23377558 1288.35146616 -692.10952377 1286.98945999 C-692.57100815 1286.27145218 -693.03249252 1285.55344437 -693.50796127 1284.81367874 C-693.92690659 1284.16656937 -694.3458519 1283.51945999 -694.77749252 1282.85274124 C-695.69546127 1281.18867874 -695.69546127 1281.18867874 -695.69546127 1279.18867874 C-696.35546127 1279.18867874 -697.01546127 1279.18867874 -697.69546127 1279.18867874 C-697.96100815 1278.6227803 -698.22655502 1278.05688187 -698.50014877 1277.47383499 C-698.8533519 1276.74035843 -699.20655502 1276.00688187 -699.57046127 1275.25117874 C-700.09253159 1274.15483109 -700.09253159 1274.15483109 -700.62514877 1273.03633499 C-701.56395897 1271.02535415 -701.56395897 1271.02535415 -703.69546127 1270.18867874 C-704.76577377 1268.41133499 -704.76577377 1268.41133499 -705.82046127 1266.25117874 C-706.1736644 1265.5409053 -706.52686752 1264.83063187 -706.89077377 1264.09883499 C-707.69546127 1262.18867874 -707.69546127 1262.18867874 -707.69546127 1260.18867874 C-708.35546127 1260.18867874 -709.01546127 1260.18867874 -709.69546127 1260.18867874 C-710.10796127 1259.41266312 -710.52046127 1258.63664749 -710.94546127 1257.83711624 C-715.86766299 1248.62996213 -720.8992304 1239.48169715 -726.29311752 1230.54024124 C-727.56345687 1228.41003431 -728.75327563 1226.27111046 -729.88296127 1224.06367874 C-730.22714096 1223.40110062 -730.57132065 1222.73852249 -730.92593002 1222.05586624 C-731.69546127 1220.18867874 -731.69546127 1220.18867874 -731.69546127 1217.18867874 C-732.35546127 1217.18867874 -733.01546127 1217.18867874 -733.69546127 1217.18867874 C-742.65290808 1200.03974257 -742.65290808 1200.03974257 -744.69546127 1191.18867874 C-745.35546127 1191.18867874 -746.01546127 1191.18867874 -746.69546127 1191.18867874 C-747.36633247 1189.56541004 -748.03203156 1187.94000296 -748.69546127 1186.31367874 C-749.06671127 1185.40875687 -749.43796127 1184.50383499 -749.82046127 1183.57149124 C-750.69546127 1181.18867874 -750.69546127 1181.18867874 -750.69546127 1179.18867874 C-751.35546127 1179.18867874 -752.01546127 1179.18867874 -752.69546127 1179.18867874 C-753.00999252 1178.34305374 -753.32452377 1177.49742874 -753.64858627 1176.62617874 C-755.80086886 1170.92133332 -757.98444435 1165.3461753 -760.79702377 1159.93477249 C-768.69546127 1144.58433092 -768.69546127 1144.58433092 -768.69546127 1137.18867874 C-769.35546127 1137.18867874 -770.01546127 1137.18867874 -770.69546127 1137.18867874 C-771.00999252 1136.22188187 -771.32452377 1135.25508499 -771.64858627 1134.25899124 C-772.08071006 1132.9438319 -772.51301143 1131.6287309 -772.94546127 1130.31367874 C-773.15042221 1129.68203812 -773.35538315 1129.05039749 -773.56655502 1128.39961624 C-774.79469447 1124.67798155 -776.14075905 1121.03651131 -777.62124252 1117.40742874 C-779.86482031 1111.86889387 -781.76649825 1106.23867949 -783.63296127 1100.56367874 C-783.97851059 1099.51695999 -784.32405991 1098.47024124 -784.68008041 1097.39180374 C-785.68940498 1094.32545358 -786.69281812 1091.25721881 -787.69546127 1088.18867874 C-787.97132065 1087.35239944 -788.24718002 1086.51612015 -788.53139877 1085.65449905 C-789.24014171 1083.50178372 -789.93879877 1081.34613265 -790.63296127 1079.18867874 C-791.01323471 1078.01305374 -791.39350815 1076.83742874 -791.78530502 1075.62617874 C-792.80161554 1071.78775276 -793.28444443 1068.13444044 -793.69546127 1064.18867874 C-794.35546127 1064.18867874 -795.01546127 1064.18867874 -795.69546127 1064.18867874 C-795.83645248 1063.57871048 -795.9774437 1062.96874222 -796.12270737 1062.34029007 C-796.7678755 1059.5596207 -797.41910856 1056.78040563 -798.07046127 1054.00117874 C-798.29218002 1053.04147171 -798.51389877 1052.08176468 -798.74233627 1051.09297562 C-798.9614769 1050.16162796 -799.18061752 1049.2302803 -799.40639877 1048.27070999 C-799.6053978 1047.41710892 -799.80439682 1046.56350784 -800.00942612 1045.68404007 C-800.72296492 1043.08863788 -801.69627088 1040.68578326 -802.69546127 1038.18867874 C-803.05606196 1036.77880897 -803.37873202 1035.35862052 -803.66030502 1033.93086624 C-803.81894028 1033.14639114 -803.97757553 1032.36191605 -804.14101791 1031.55366898 C-804.30335922 1030.7319722 -804.46570053 1029.91027542 -804.63296127 1029.06367874 C-805.68749324 1023.86357622 -806.74887447 1018.71736106 -808.25796127 1013.62617874 C-809.86887391 1008.04926924 -810.73717579 1002.37440106 -811.60586166 996.64351273 C-812.11839682 993.3304301 -812.68452213 990.2247292 -813.66030502 987.00899124 C-815.23523091 981.19662325 -815.89966659 975.27592175 -816.69546127 969.31367874 C-817.02535918 966.85748571 -817.35862089 964.40174182 -817.69546127 961.94649124 C-817.83983627 960.86512894 -817.98421127 959.78376663 -818.13296127 958.66963577 C-818.56211352 956.01388373 -819.08026872 953.4707582 -819.69546127 950.85811234 C-820.76354517 946.16441516 -821.28073753 941.51022366 -821.69546127 936.71992874 C-821.77667221 935.84074783 -821.85788315 934.96156693 -821.94155502 934.05574417 C-822.19830322 931.26718717 -822.44734788 928.47801608 -822.69546127 925.68867874 C-823.02576188 922.03214786 -823.35981266 918.37597225 -823.69546127 914.71992874 C-823.77723618 913.81895462 -823.85901108 912.9179805 -823.94326401 911.98970413 C-824.38402328 907.21849586 -824.88926425 902.46506995 -825.49668503 897.71229935 C-828.07847308 877.40719902 -827.8834755 856.94400428 -827.88076401 836.5099678 C-827.88068332 833.48386458 -827.88755131 830.45791462 -827.90127182 827.4318428 C-828.02068357 800.6155062 -827.31935246 773.85814784 -823.94546127 747.22285843 C-823.4825388 743.45618845 -823.09557813 739.68118713 -822.69546127 735.90742874 C-822.52924708 734.37092139 -822.36258287 732.83446266 -822.19546127 731.29805374 C-821.94308026 728.97733143 -821.6920441 726.65650927 -821.44546127 724.33516312 C-819.82393702 709.09536876 -819.82393702 709.09536876 -818.19546127 701.62569046 C-816.90316685 695.32701715 -816.11916234 688.91908882 -815.19546127 682.55781937 C-814.35695817 676.94050368 -813.30391264 671.64233415 -811.69546127 666.18867874 C-810.76365941 661.54195393 -809.99218876 656.86597542 -809.19546127 652.19453812 C-808.34595807 647.34639679 -807.31334693 642.84641988 -805.69546127 638.18867874 C-804.96467846 635.20238903 -804.33078593 632.1965439 -803.69546127 629.18867874 C-802.61259599 624.06198843 -801.38643645 619.15550387 -799.69546127 614.18867874 C-799.02964122 611.58739796 -798.38341035 608.98692425 -797.75796127 606.37617874 C-796.51392136 601.28492659 -795.16666221 596.30689129 -793.42202377 591.36055374 C-791.97386635 587.03165306 -790.85838205 582.60117956 -789.69546127 578.18867874 C-789.03546127 578.18867874 -788.37546127 578.18867874 -787.69546127 578.18867874 C-787.61296127 577.11617874 -787.53046127 576.04367874 -787.44546127 574.93867874 C-786.55587503 567.77115532 -783.77670526 561.04147016 -781.23843002 554.32149124 C-779.96806854 550.95039345 -778.77461446 547.55832998 -777.60317612 544.15181351 C-775.04318169 536.72956525 -772.22345147 529.51656161 -769.06655502 522.32539749 C-767.52712935 518.80357751 -766.10080324 515.24681628 -764.68764877 511.67305374 C-763.16628333 507.8636505 -761.57945769 504.08208503 -759.99624252 500.29805374 C-758.22533373 496.06489038 -756.46884227 491.82575571 -754.71108627 487.58711624 C-754.08221651 486.1020161 -753.41671014 484.63117647 -752.69546127 483.18867874 C-752.03546127 483.18867874 -751.37546127 483.18867874 -750.69546127 483.18867874 C-750.59233627 482.32242874 -750.48921127 481.45617874 -750.38296127 480.56367874 C-749.64672216 476.949414 -748.39301344 474.45861794 -746.69546127 471.18867874 C-746.08265303 469.96839248 -745.4720695 468.74698709 -744.86343002 467.52461624 C-743.84974586 465.49699315 -742.83581958 463.4694929 -741.8211937 461.44234085 C-740.21334057 458.22920012 -738.60925129 455.01445438 -737.01577377 451.79414749 C-734.44731093 446.61064347 -731.81372437 441.49163824 -728.96889877 436.45430374 C-727.55748864 433.94320597 -726.18915509 431.41079692 -724.82046127 428.87617874 C-719.79211136 419.66393462 -714.4690052 410.6842902 -708.71572495 401.90816116 C-706.86335235 399.07113868 -705.12086812 396.2657475 -703.69546127 393.18867874 C-703.03546127 393.18867874 -702.37546127 393.18867874 -701.69546127 393.18867874 C-701.40671127 392.28117874 -701.11796127 391.37367874 -700.82046127 390.43867874 C-699.93014352 387.86664966 -698.98051715 385.57521108 -697.69546127 383.18867874 C-697.03546127 383.18867874 -696.37546127 383.18867874 -695.69546127 383.18867874 C-695.50983627 382.40492874 -695.32421127 381.62117874 -695.13296127 380.81367874 C-693.43713757 376.53725374 -691.06519613 373.24666555 -688.35171127 369.55586624 C-686.89897858 367.47955489 -685.80242442 365.4572086 -684.69546127 363.18867874 C-683.69546127 362.18867874 -682.69546127 361.18867874 -681.69546127 360.18867874 C-681.17983627 359.30180374 -680.66421127 358.41492874 -680.13296127 357.50117874 C-679.65858627 356.73805374 -679.18421127 355.97492874 -678.69546127 355.18867874 C-678.03546127 355.18867874 -677.37546127 355.18867874 -676.69546127 355.18867874 C-676.54077377 354.35336624 -676.54077377 354.35336624 -676.38296127 353.50117874 C-675.55367719 350.71176864 -674.35247072 348.57477234 -672.69546127 346.18867874 C-672.03546127 346.18867874 -671.37546127 346.18867874 -670.69546127 346.18867874 C-670.40671127 345.61117874 -670.11796127 345.03367874 -669.82046127 344.43867874 C-669.44921127 343.69617874 -669.07796127 342.95367874 -668.69546127 342.18867874 C-668.36546127 341.46680374 -668.03546127 340.74492874 -667.69546127 340.00117874 C-666.69546127 338.18867874 -666.69546127 338.18867874 -664.69546127 337.18867874 C-663.57911975 335.53816586 -663.57911975 335.53816586 -662.57046127 333.62617874 C-661.95171127 332.49180374 -661.33296127 331.35742874 -660.69546127 330.18867874 C-660.03546127 330.18867874 -659.37546127 330.18867874 -658.69546127 330.18867874 C-658.40671127 329.42555374 -658.11796127 328.66242874 -657.82046127 327.87617874 C-656.69546127 325.18867874 -656.69546127 325.18867874 -654.69546127 322.18867874 C-654.03546127 322.18867874 -653.37546127 322.18867874 -652.69546127 322.18867874 C-652.40671127 321.61117874 -652.11796127 321.03367874 -651.82046127 320.43867874 C-651.44921127 319.69617874 -651.07796127 318.95367874 -650.69546127 318.18867874 C-650.40671127 317.50805374 -650.11796127 316.82742874 -649.82046127 316.12617874 C-648.69546127 314.18867874 -648.69546127 314.18867874 -646.75796127 312.75117874 C-644.2930486 310.88382066 -643.23178983 308.84233715 -641.69546127 306.18867874 C-641.03546127 305.85867874 -640.37546127 305.52867874 -639.69546127 305.18867874 C-639.22108627 304.36367874 -638.74671127 303.53867874 -638.25796127 302.68867874 C-636.69546127 300.18867874 -636.69546127 300.18867874 -633.69546127 299.18867874 C-633.42733627 298.48742874 -633.15921127 297.78617874 -632.88296127 297.06367874 C-630.79544293 292.00968696 -626.88026379 288.34592771 -623.00796127 284.56367874 C-620.6407272 282.31428082 -620.6407272 282.31428082 -619.19546127 279.68867874 C-617.39435552 276.68683582 -615.22720654 274.59986471 -612.69546127 272.18867874 C-609.38633831 268.97147586 -606.2718449 265.62669025 -603.19546127 262.18867874 C-600.11907764 258.75066723 -597.00458424 255.40588162 -593.69546127 252.18867874 C-592.87046127 251.36367874 -592.04546127 250.53867874 -591.19546127 249.68867874 C-590.37046127 248.86367874 -589.54546127 248.03867874 -588.69546127 247.18867874 C-587.87046127 246.34305374 -587.04546127 245.49742874 -586.19546127 244.62617874 C-583.69546127 242.18867874 -583.69546127 242.18867874 -581.13296127 240.18867874 C-578.55069074 238.06989267 -576.74656042 235.81664952 -574.69546127 233.18867874 C-573.05002347 231.50105023 -571.38257551 229.83464385 -569.69546127 228.18867874 C-568.89108627 227.34305374 -568.08671127 226.49742874 -567.25796127 225.62617874 C-564.58090446 223.07971007 -561.76436119 221.23461202 -558.69546127 219.18867874 C-556.2644159 216.92724119 -554.11013797 214.77613739 -552.19546127 212.06367874 C-550.33226813 209.73468731 -548.25185721 208.71034299 -545.69546127 207.18867874 C-544.00612205 205.54499734 -542.34286203 203.87439114 -540.69546127 202.18867874 C-539.3346191 200.90269626 -537.9587452 199.63248686 -536.57046127 198.37617874 C-535.90788315 197.77160843 -535.24530502 197.16703812 -534.56264877 196.54414749 C-532.69546127 195.18867874 -532.69546127 195.18867874 -529.69546127 195.18867874 C-529.40671127 194.56992874 -529.11796127 193.95117874 -528.82046127 193.31367874 C-527.69546127 191.18867874 -527.69546127 191.18867874 -525.69546127 189.18867874 C-524.70546127 189.18867874 -523.71546127 189.18867874 -522.69546127 189.18867874 C-522.44796127 188.56992874 -522.20046127 187.95117874 -521.94546127 187.31367874 C-520.45256503 184.77575512 -519.29118186 184.44720994 -516.69546127 183.18867874 C-515.98389877 182.22961624 -515.98389877 182.22961624 -515.25796127 181.25117874 C-513.39060319 178.78626607 -511.34911968 177.7250073 -508.69546127 176.18867874 C-508.36546127 175.52867874 -508.03546127 174.86867874 -507.69546127 174.18867874 C-506.13686752 173.11836624 -506.13686752 173.11836624 -504.25796127 172.06367874 C-503.64050034 171.71047562 -503.0230394 171.35727249 -502.38686752 170.99336624 C-500.69546127 170.18867874 -500.69546127 170.18867874 -498.69546127 170.18867874 C-498.36546127 169.19867874 -498.03546127 168.20867874 -497.69546127 167.18867874 C-493.36212794 164.18867874 -493.36212794 164.18867874 -490.69546127 164.18867874 C-490.35514877 163.29149124 -490.35514877 163.29149124 -490.00796127 162.37617874 C-488.31432762 159.55345599 -486.56971204 158.78548472 -483.69546127 157.18867874 C-481.86007632 155.87542916 -480.05022971 154.53295036 -478.24624252 153.17695999 C-476.69546127 152.18867874 -476.69546127 152.18867874 -474.69546127 152.18867874 C-474.69546127 151.52867874 -474.69546127 150.86867874 -474.69546127 150.18867874 C-467.94546127 146.18867874 -467.94546127 146.18867874 -465.69546127 146.18867874 C-465.36546127 145.19867874 -465.03546127 144.20867874 -464.69546127 143.18867874 C-462.61220174 141.69524025 -460.57942669 140.36581785 -458.38296127 139.06367874 C-457.80094955 138.7040303 -457.21893784 138.34438187 -456.6192894 137.97383499 C-454.22128708 136.52362747 -452.08195929 135.27969486 -449.33999252 134.63399124 C-448.79729721 134.48703812 -448.2546019 134.34008499 -447.69546127 134.18867874 C-447.36546127 133.19867874 -447.03546127 132.20867874 -446.69546127 131.18867874 C-445.17202377 130.02070999 -445.17202377 130.02070999 -443.32046127 129.00117874 C-442.7146019 128.65699905 -442.10874252 128.31281937 -441.48452377 127.95820999 C-439.69546127 127.18867874 -439.69546127 127.18867874 -436.69546127 127.18867874 C-436.69546127 126.52867874 -436.69546127 125.86867874 -436.69546127 125.18867874 C-429.94546127 121.18867874 -429.94546127 121.18867874 -427.69546127 121.18867874 C-427.69546127 120.52867874 -427.69546127 119.86867874 -427.69546127 119.18867874 C-427.08057846 118.93473343 -426.46569565 118.68078812 -425.83218002 118.41914749 C-424.61981674 117.90287796 -424.61981674 117.90287796 -423.38296127 117.37617874 C-422.58245346 117.03973343 -421.78194565 116.70328812 -420.95718002 116.35664749 C-418.70349937 115.19282967 -417.42373208 114.00893034 -415.69546127 112.18867874 C-410.36212794 109.18867874 -410.36212794 109.18867874 -406.69546127 109.18867874 C-406.69546127 108.52867874 -406.69546127 107.86867874 -406.69546127 107.18867874 C-405.35922714 106.47904984 -405.35922714 106.47904984 -403.99599838 105.75508499 C-400.61311577 103.95850474 -397.23032603 102.16174969 -393.84756088 100.36494827 C-392.39804098 99.59504563 -390.94849763 98.82518712 -389.49892807 98.05537796 C-388.09091972 97.30763316 -386.68295573 96.55980484 -385.27503586 95.81189346 C-383.86134848 95.06102983 -382.44749866 94.31047197 -381.03348923 93.560215 C-377.52075779 91.69526908 -374.01220135 89.82317683 -370.51162338 87.93550491 C-369.50640388 87.39488419 -369.50640388 87.39488419 -368.48087692 86.84334183 C-367.22674656 86.16837839 -365.97375002 85.49130173 -364.72217941 84.81160355 C-360.08491451 82.31913778 -355.33348208 80.28034817 -350.44936752 78.32930374 C-347.83292474 77.24561397 -345.33846452 76.04498203 -342.82046127 74.75117874 C-333.66786869 70.07220914 -324.06091404 66.33264396 -314.56655502 62.41133499 C-311.70173024 61.19134838 -308.88847746 59.88771159 -306.07046127 58.56367874 C-301.90950405 56.64461657 -297.80982034 55.20394932 -293.37514877 54.05977249 C-291.03269231 53.29830341 -288.93802198 52.40671828 -286.70718002 51.37617874 C-280.83337722 48.71866478 -274.75487875 46.75331797 -268.63296127 44.75117874 C-266.84801254 44.16348709 -266.84801254 44.16348709 -265.02700424 43.56392288 C-261.5848425 42.43360846 -258.1402907 41.3108305 -254.69546127 40.18867874 C-253.79488998 39.8918721 -252.8943187 39.59506546 -251.96645737 39.28926468 C-249.75363927 38.56015744 -247.53802942 37.84068376 -245.32046127 37.12617874 C-243.54542221 36.5519014 -243.54542221 36.5519014 -241.73452377 35.96602249 C-238.90012938 35.24102958 -236.60204722 35.01994435 -233.69546127 35.18867874 C-233.69546127 34.52867874 -233.69546127 33.86867874 -233.69546127 33.18867874 C-232.82594833 32.97719193 -232.82594833 32.97719193 -231.93886948 32.76143265 C-229.29429697 32.11595078 -226.65113377 31.46486864 -224.00796127 30.81367874 C-222.6399437 30.48110062 -222.6399437 30.48110062 -221.2442894 30.14180374 C-216.11529294 28.88940291 -216.11529294 28.88940291 -211.14077377 27.14961624 C-207.30319662 25.64155877 -203.29466924 24.98421164 -199.25796127 24.18867874 C-192.94823815 22.97118889 -192.94823815 22.97118889 -186.78530502 21.18867874 C-181.25247801 19.39802929 -175.47406673 18.66037834 -169.75014877 17.68867874 C-168.33089096 17.44117874 -168.33089096 17.44117874 -166.88296127 17.18867874 C-165.6048558 16.97211624 -165.6048558 16.97211624 -164.30093002 16.75117874 C-161.61038028 16.22264849 -161.61038028 16.22264849 -158.75722885 15.18867874 C-155.65355961 14.17499329 -152.75063327 13.63615291 -149.51968002 13.18867874 C-148.36145737 13.02367874 -147.20323471 12.85867874 -146.0099144 12.68867874 C-144.2145726 12.44117874 -144.2145726 12.44117874 -142.38296127 12.18867874 C-140.01141982 11.85854573 -137.64031286 11.52527442 -135.26968002 11.18867874 C-134.2238475 11.04430374 -133.17801498 10.89992874 -132.10049057 10.75117874 C-129.46890242 10.31644876 -126.93174157 9.79595256 -124.33877182 9.19087601 C-119.85269153 8.1715791 -115.40241858 7.60297683 -110.82827377 7.15352249 C-110.02686966 7.06993988 -109.22546555 6.98635727 -108.39977646 6.90024185 C-105.87381878 6.63727215 -103.34724004 6.38112821 -100.82046127 6.12617874 C-98.2723411 5.86698669 -95.72441663 5.60623464 -93.17687607 5.34140396 C-91.60018315 5.17767192 -90.02314252 5.01724584 -88.44573593 4.86053848 C-85.37089839 4.5426702 -82.63895914 4.1698447 -79.69546127 3.18867874 C-77.96386766 2.98389527 -76.22690079 2.82311128 -74.48843002 2.68867874 C-73.42430893 2.60617874 -72.36018784 2.52367874 -71.26382065 2.43867874 C-70.14813705 2.35617874 -69.03245346 2.27367874 -67.88296127 2.18867874 C-66.84075424 2.10617874 -65.79854721 2.02367874 -64.72475815 1.93867874 C-61.04991466 1.66018261 -57.37384723 1.41445805 -53.69546127 1.18867874 C-52.95910446 1.14310837 -52.22274765 1.09753799 -51.464077 1.0505867 C-34.31943957 0.03343456 -17.168172 -0.00972363 0 0 Z " fill="#5B6770" transform="translate(854.6954612731934,31.811321258544922)"/>
<path d="M0 0 C115.83 0 231.66 0 351 0 C351 327.36 351 654.72 351 992 C238.8 992 126.6 992 11 992 C11 964.94 11 937.88 11 910 C5.92482058 912.02378762 5.92482058 912.02378762 2.5625 915.6875 C1.964375 916.40164063 1.36625 917.11578125 0.75 917.8515625 C0.1725 918.56054688 -0.405 919.26953125 -1 920 C-4.63927176 924.454317 -8.37857371 928.35812793 -12.7734375 932.078125 C-14.31142664 933.40565247 -15.81521393 934.77347943 -17.2890625 936.171875 C-28.8371657 947.1121833 -41.9244737 956.21107705 -55.3125 964.75 C-56.09431641 965.25128418 -56.87613281 965.75256836 -57.68164062 966.26904297 C-61.69341011 968.77683534 -65.39219175 970.7399952 -70 972 C-70 972.66 -70 973.32 -70 974 C-76.75 977 -76.75 977 -79 977 C-79.33 977.99 -79.66 978.98 -80 980 C-82.30227715 980.965661 -84.5004602 981.76536194 -86.875 982.5 C-92.54873148 984.30244993 -92.54873148 984.30244993 -97 988 C-99.06938408 988.40709195 -101.13916998 988.81224819 -103.2109375 989.20703125 C-106.68632044 990.19513032 -109.75435691 991.76588852 -112.9375 993.4375 C-122.49682534 998.41947981 -133.11144129 1002 -144 1002 C-144 1002.66 -144 1003.32 -144 1004 C-145.47778411 1004.46277164 -146.95733215 1004.91991034 -148.4375 1005.375 C-149.67306641 1005.75785156 -149.67306641 1005.75785156 -150.93359375 1006.1484375 C-159.32862424 1008.47979628 -167.90141371 1009.91944379 -176.4765625 1011.41210938 C-181.31181222 1012.27163323 -186.04217124 1013.26546454 -190.796875 1014.49609375 C-200.54564263 1016.78605819 -210.54330577 1017.31507894 -220.5 1018.125 C-222.49876982 1018.2947283 -224.49746854 1018.46529607 -226.49609375 1018.63671875 C-240.68416331 1019.84469496 -240.68416331 1019.84469496 -247.265625 1020.30371094 C-248.44640625 1020.3865332 -249.6271875 1020.46935547 -250.84375 1020.5546875 C-251.83568359 1020.61897949 -252.82761719 1020.68327148 -253.84960938 1020.74951172 C-255.97897975 1020.77213187 -255.97897975 1020.77213187 -257 1022 C-267.38006215 1023.26827627 -277.87793176 1023.14832351 -288.31640625 1023.1328125 C-289.9467724 1023.13348859 -291.57713846 1023.13446114 -293.20750427 1023.13571167 C-296.60017877 1023.13717387 -299.99282668 1023.13508188 -303.38549805 1023.13037109 C-307.69745529 1023.12467014 -312.0093503 1023.12796463 -316.32130527 1023.13394356 C-319.68023636 1023.13758547 -323.03915309 1023.13639412 -326.39808464 1023.13381577 C-327.98663274 1023.13315674 -329.57518222 1023.13393833 -331.16372871 1023.13629532 C-354.95681351 1023.16387056 -354.95681351 1023.16387056 -363 1021 C-364.59325294 1020.82562599 -366.19041162 1020.68510179 -367.7890625 1020.5703125 C-368.72290771 1020.4986084 -369.65675293 1020.4269043 -370.61889648 1020.35302734 C-371.61091064 1020.27777832 -372.6029248 1020.2025293 -373.625 1020.125 C-383.87134378 1019.30100186 -393.90055624 1017.8912816 -404 1016 C-404 1015.34 -404 1014.68 -404 1014 C-405.34578125 1013.94392578 -405.34578125 1013.94392578 -406.71875 1013.88671875 C-419.49664149 1013.21350339 -431.63713714 1010.98283161 -444.02734375 1007.76171875 C-449.32674679 1006.40379024 -454.66590111 1005.21307733 -460 1004 C-460 1003.34 -460 1002.68 -460 1002 C-461.09699219 1001.81824219 -462.19398438 1001.63648438 -463.32421875 1001.44921875 C-464.77873967 1001.19585059 -466.2331617 1000.94191427 -467.6875 1000.6875 C-468.40873047 1000.56955078 -469.12996094 1000.45160156 -469.87304688 1000.33007812 C-474.2552677 999.54968264 -477.18659333 998.36589346 -481 996 C-483.50560167 995.25921342 -485.96173296 994.59310002 -488.5 994 C-493.14976793 992.91351957 -496.9322901 991.5490982 -501 989 C-502.64868497 988.44356882 -504.31696871 987.94179571 -506 987.5 C-509.78601015 986.42943454 -512.64446826 985.06494261 -516 983 C-518.28943928 982.21644859 -520.5880317 981.51059842 -522.9140625 980.84375 C-525 980 -525 980 -526.44921875 978.51171875 C-528.5114842 976.50139953 -530.42784981 976.06513187 -533.1875 975.3125 C-534.53908203 974.93544922 -534.53908203 974.93544922 -535.91796875 974.55078125 C-536.60503906 974.36902344 -537.29210937 974.18726563 -538 974 C-538 973.34 -538 972.68 -538 972 C-539.216875 971.649375 -540.43375 971.29875 -541.6875 970.9375 C-548.20117877 968.79402104 -554.0504996 965.35636422 -560 962 C-560 961.34 -560 960.68 -560 960 C-560.9075 959.71125 -561.815 959.4225 -562.75 959.125 C-565.32202908 958.23468224 -567.61346766 957.28505587 -570 956 C-570 955.34 -570 954.68 -570 954 C-570.68320312 953.75894531 -571.36640625 953.51789062 -572.0703125 953.26953125 C-575.57837358 951.74937145 -578.69067672 949.77933167 -581.875 947.6875 C-582.49197754 947.28523193 -583.10895508 946.88296387 -583.74462891 946.46850586 C-585.50073291 945.3187145 -587.25140802 944.16117436 -589 943 C-589.8146875 942.46117187 -590.629375 941.92234375 -591.46875 941.3671875 C-593.02164824 940.30434321 -594.52031458 939.16260998 -596 938 C-596 937.34 -596 936.68 -596 936 C-596.69480469 935.76539063 -597.38960937 935.53078125 -598.10546875 935.2890625 C-601.55161638 933.75434088 -604.36479201 931.68773686 -607.3125 929.375 C-607.88572998 928.92987061 -608.45895996 928.48474121 -609.04956055 928.02612305 C-612.98823243 924.91927556 -616.59435889 921.62383988 -620.04980469 917.98095703 C-621.8556266 916.14665069 -623.71217153 914.47525984 -625.671875 912.80859375 C-630.28184255 908.80641724 -634.6241333 904.56796517 -638.9375 900.25 C-639.72801758 899.45867676 -640.51853516 898.66735352 -641.33300781 897.85205078 C-648.79587526 890.31064305 -655.41636011 882.37004585 -661.61328125 873.75390625 C-663.01874846 871.90231837 -663.01874846 871.90231837 -664.95703125 870.0703125 C-667.05585994 867.94339242 -668.68609728 865.77449199 -670.375 863.3125 C-670.97957031 862.43335938 -671.58414063 861.55421875 -672.20703125 860.6484375 C-674.33377767 857.50696893 -676.4526352 854.36114748 -678.54296875 851.1953125 C-679.49197311 849.76544533 -680.45240817 848.34307854 -681.42578125 846.9296875 C-684.62293873 842.25890757 -687.5471538 837.46280882 -690.375 832.5625 C-690.73319824 831.94673096 -691.09139648 831.33096191 -691.46044922 830.6965332 C-694 826.2414745 -694 826.2414745 -694 824 C-694.66 824 -695.32 824 -696 824 C-707 802.55617978 -707 802.55617978 -707 798 C-707.66 798 -708.32 798 -709 798 C-709.24234375 797.23816406 -709.4846875 796.47632813 -709.734375 795.69140625 C-711.58293784 789.99641075 -713.56900582 784.49748154 -716.0703125 779.05859375 C-717.55538799 775.77021231 -718.77696993 772.39164356 -720 769 C-720.3815625 767.97003906 -720.763125 766.94007813 -721.15625 765.87890625 C-724.15608557 757.67508765 -726.73017113 749.4334292 -729 741 C-729.47566406 739.32550781 -729.47566406 739.32550781 -729.9609375 737.6171875 C-732.81712088 727.03788425 -734.55129679 716.28521679 -736.24975586 705.47070312 C-736.44835205 704.22095703 -736.64694824 702.97121094 -736.8515625 701.68359375 C-737.02510254 700.56525146 -737.19864258 699.44690918 -737.37744141 698.29467773 C-738.04056845 694.78530542 -739.01125274 691.42986002 -740 688 C-740.2294031 685.73464439 -740.39601985 683.46206588 -740.5 681.1875 C-740.79718083 676.17788034 -741.34512197 671.45538293 -742.5 666.57421875 C-744.22294293 657.70375474 -744.16331403 648.82943125 -744.16796875 639.828125 C-744.17119538 638.34104381 -744.17456041 636.85396291 -744.17805481 635.36688232 C-744.18402467 632.24685944 -744.1858976 629.12686412 -744.18530273 626.00683594 C-744.18522245 622.87135933 -744.19200784 619.73603186 -744.20581055 616.60058594 C-744.28937803 597.33677135 -743.84712859 578.29145698 -742.24958801 559.08253479 C-741.92117626 555.02648807 -741.64639587 550.96755874 -741.37715149 546.9072113 C-740.50371733 534.66950553 -738.2455876 522.81883693 -735.62158203 510.84765625 C-735.06045 508.27693984 -734.52314266 505.70287505 -733.99609375 503.125 C-729.67979299 482.36404296 -723.22379755 461.55020963 -715 442 C-714.33089681 440.33431001 -713.66365444 438.6678684 -713 437 C-712.34 437 -711.68 437 -711 437 C-710.87882812 436.39671875 -710.75765625 435.7934375 -710.6328125 435.171875 C-710.46523438 434.37265625 -710.29765625 433.5734375 -710.125 432.75 C-709.96257812 431.96109375 -709.80015625 431.1721875 -709.6328125 430.359375 C-709.00849925 428.03168856 -708.15161458 426.10968048 -707 424 C-706.34 424 -705.68 424 -705 424 C-704.855625 422.845 -704.71125 421.69 -704.5625 420.5 C-702.98253448 413.29353857 -698.80952804 407.18203973 -695.10449219 400.89794922 C-693.62883935 398.36220095 -692.25051234 395.77866784 -690.875 393.1875 C-680.57774319 374.29986862 -667.45317691 356.76551817 -652.80859375 341.0546875 C-650.71445857 338.80284445 -648.69493819 336.49733026 -646.6875 334.16796875 C-642.82709449 329.73835709 -638.72718481 325.57969326 -634.5625 321.4375 C-633.85029297 320.72142578 -633.13808594 320.00535156 -632.40429688 319.26757812 C-627.76688844 314.63859369 -622.97462996 310.26236391 -618 306 C-617.02417969 305.14277344 -616.04835938 304.28554688 -615.04296875 303.40234375 C-586.63080895 278.87693632 -586.63080895 278.87693632 -572 274 C-571.67 273.01 -571.34 272.02 -571 271 C-568.71656402 270.05149582 -566.41923272 269.47853022 -564.03125 268.84375 C-563.02578125 268.42609375 -563.02578125 268.42609375 -562 268 C-561.67 267.01 -561.34 266.02 -561 265 C-559.00882592 264.30741771 -557.0078864 263.64252365 -555 263 C-554.52949219 262.52433594 -554.05898438 262.04867188 -553.57421875 261.55859375 C-551.73068298 259.7333561 -550.08594243 259.02767631 -547.6875 258.0625 C-544.81959252 256.85057781 -542.54404398 255.69292758 -539.9375 253.9375 C-534.56561857 250.39434417 -526.52387433 247 -520 247 C-520 246.34 -520 245.68 -520 245 C-518.35 244.67 -516.7 244.34 -515 244 C-515 243.34 -515 242.68 -515 242 C-511.71358712 240.69468724 -508.42003461 239.40837602 -505.125 238.125 C-503.74828125 237.57779297 -503.74828125 237.57779297 -502.34375 237.01953125 C-496.2937736 234.67623053 -490.40456624 233.04276575 -484 232 C-484 231.34 -484 230.68 -484 230 C-480.23073331 228.99402985 -476.45934588 227.99625198 -472.6875 227 C-471.61564453 226.71382812 -470.54378906 226.42765625 -469.43945312 226.1328125 C-468.41142578 225.86210938 -467.38339844 225.59140625 -466.32421875 225.3125 C-464.9024231 224.93544922 -464.9024231 224.93544922 -463.4519043 224.55078125 C-461 224 -461 224 -458 224 C-458 223.34 -458 222.68 -458 222 C-457.44352783 221.90501221 -456.88705566 221.81002441 -456.3137207 221.7121582 C-445.89965964 219.91809902 -435.56998564 217.98930096 -425.3125 215.4375 C-417.54138887 213.50427445 -409.79010025 212.03220241 -401.86254883 210.90014648 C-397.80728171 210.386605 -397.80728171 210.386605 -394 209 C-392.40737934 208.84824451 -390.80935144 208.75099675 -389.2109375 208.68359375 C-387.79941406 208.62075195 -387.79941406 208.62075195 -386.359375 208.55664062 C-385.37453125 208.51732422 -384.3896875 208.47800781 -383.375 208.4375 C-381.88613281 208.37272461 -381.88613281 208.37272461 -380.3671875 208.30664062 C-377.91160162 208.20038931 -375.45591297 208.09835036 -373 208 C-373 207.34 -373 206.68 -373 206 C-369.87543302 205.68261302 -366.75043795 205.37110417 -363.625 205.0625 C-362.77421875 204.97548828 -361.9234375 204.88847656 -361.046875 204.79882812 C-342.14626733 202.94985564 -323.2906692 202.79577077 -304.3125 202.8125 C-303.63497429 202.81276688 -302.95744858 202.81303375 -302.25939178 202.81330872 C-271.48097247 202.82853122 -241.47480071 204.62639463 -211 209 C-209.79811035 209.16790039 -208.5962207 209.33580078 -207.35791016 209.50878906 C-194.63548861 211.29359549 -182.33186139 213.34892065 -170 217 C-163.19650589 218.81370789 -156.42912069 220.37095374 -149.47265625 221.47265625 C-146.81396011 222.03967675 -144.50317283 222.94834752 -142 224 C-140.60805426 224.47000765 -139.21218615 224.92857102 -137.8125 225.375 C-134.47170437 226.46643738 -131.24191052 227.70624194 -128 229.0625 C-124.10539174 230.65766413 -120.36733646 231.62092498 -116.25 232.4296875 C-112.28862868 233.43378509 -108.66301846 235.21611867 -105 237 C-105 237.66 -105 238.32 -105 239 C-102.03 239.66 -99.06 240.32 -96 241 C-96 241.66 -96 242.32 -96 243 C-94.576875 243.3403125 -94.576875 243.3403125 -93.125 243.6875 C-88.09727991 245.11963845 -83.61783564 247.59412918 -79 250 C-77.45982912 250.77381768 -75.91830209 251.54494622 -74.375 252.3125 C-73.26125 252.869375 -72.1475 253.42625 -71 254 C-71 254.66 -71 255.32 -71 256 C-70.113125 256.2475 -69.22625 256.495 -68.3125 256.75 C-64.87542827 258.0470082 -62.82079237 259.69882728 -60 262 C-57.81785432 262.77833534 -57.81785432 262.77833534 -56 263 C-56 263.66 -56 264.32 -56 265 C-55.4740625 265.23847656 -54.948125 265.47695313 -54.40625 265.72265625 C-44.81243084 270.81547908 -36.44451785 278.11104127 -28.62109375 285.5546875 C-26.16844942 287.84284749 -23.62923733 289.9205526 -21 292 C-19.31237149 293.6454378 -17.6459651 295.31288577 -16 297 C-15.195625 297.78375 -14.39125 298.5675 -13.5625 299.375 C-11.04483729 301.95406912 -8.7775854 304.63797503 -6.52734375 307.44921875 C-4.82471705 309.17797272 -3.17771488 309.96739298 -1 311 C-1.00056958 310.01664369 -1.00056958 310.01664369 -1.00115067 309.0134216 C-1.02350536 270.20046968 -1.04067471 231.38751859 -1.05106533 192.57456154 C-1.05231611 187.91925521 -1.05361042 183.26394889 -1.05493164 178.60864258 C-1.05519395 177.68181431 -1.05545626 176.75498604 -1.05572652 175.80007207 C-1.06008355 160.77253813 -1.06797127 145.74500799 -1.0771528 130.71747632 C-1.08648844 115.30975265 -1.09205542 99.90203098 -1.09408849 84.4943046 C-1.09546391 74.97897498 -1.09981549 65.46365611 -1.10791647 55.9483298 C-1.11318282 49.43250736 -1.11480455 42.91669052 -1.11350138 36.4008661 C-1.11285782 32.6357644 -1.11387746 28.87068157 -1.11920547 25.10558319 C-1.12492632 21.03339403 -1.1230012 16.96124557 -1.12025452 12.88905334 C-1.12316736 11.68577221 -1.1260802 10.48249108 -1.12908131 9.24274689 C-1.12709026 8.16090321 -1.12509921 7.07905954 -1.12304783 5.96443272 C-1.12361741 4.55244267 -1.12361741 4.55244267 -1.1241985 3.11192757 C-1 1 -1 1 0 0 Z " fill="#FEFEFE" transform="translate(991,324)"/>
<path d="M0 0 C1.15825287 -0.0014502 2.31650574 -0.00290039 3.50985718 -0.00439453 C15.74625781 -0.00266459 27.55695854 0.23821234 39.625 2.375 C41.33273807 2.5898768 43.04238033 2.79039161 44.75390625 2.97265625 C45.49833984 3.05193359 46.24277344 3.13121094 47.00976562 3.21289062 C48.08774414 3.32407227 48.08774414 3.32407227 49.1875 3.4375 C53.70861876 3.90546867 58.1825239 4.38094099 62.625 5.375 C62.625 6.035 62.625 6.695 62.625 7.375 C63.54539062 7.38917969 64.46578125 7.40335938 65.4140625 7.41796875 C75.71449151 7.80607045 84.44324892 9.69847055 93.75390625 14.46484375 C95.77676539 15.44882325 97.68726833 15.98952928 99.875 16.5 C101.1125 16.78875 102.35 17.0775 103.625 17.375 C103.625 18.035 103.625 18.695 103.625 19.375 C104.36105469 19.55675781 105.09710937 19.73851562 105.85546875 19.92578125 C116.07277135 22.55771521 116.07277135 22.55771521 119.625 25.375 C119.625 26.035 119.625 26.695 119.625 27.375 C120.346875 27.4575 121.06875 27.54 121.8125 27.625 C125.23966923 28.53891179 126.93758808 30.08086787 129.625 32.375 C130.97658203 33.25478516 130.97658203 33.25478516 132.35546875 34.15234375 C135.95675399 36.6005293 139.21326933 39.27701218 142.5 42.125 C143.11568848 42.65794678 143.73137695 43.19089355 144.36572266 43.73999023 C152.65465542 50.96632332 159.31450932 58.33674884 165.625 67.375 C166.54111077 68.60458104 167.45769184 69.833812 168.375 71.0625 C171.9580318 76.10038699 174.41795685 81.7116814 176.7734375 87.40625 C177.42936073 88.92269636 178.13107865 90.41939161 178.8515625 91.90625 C182.40445403 99.30291306 184.625 106.12194466 184.625 114.375 C185.285 114.375 185.945 114.375 186.625 114.375 C188.32098449 118.78455968 188.99575861 122.85138557 189.37890625 127.51953125 C189.43540615 129.38807206 189.43540615 129.38807206 190.625 130.375 C192.52398376 140.93809714 193.2939772 151.66089533 193.625 162.375 C193.66431641 163.51227539 193.70363281 164.64955078 193.74414062 165.82128906 C194.22698019 181.79182158 193.81137406 197.31241008 191.375 213.125 C191.22136993 214.14025757 191.22136993 214.14025757 191.06463623 215.17602539 C189.10964346 227.80496234 185.55978305 239.62125551 180.75 251.4375 C180.40267822 252.29529053 180.05535645 253.15308105 179.69750977 254.03686523 C173.57953932 268.96358669 165.91359638 281.94382994 155.625 294.375 C154.965 295.22449219 154.305 296.07398438 153.625 296.94921875 C151.80318388 299.15888244 149.98966672 300.96346024 147.8125 302.8125 C147.11382813 303.40804688 146.41515625 304.00359375 145.6953125 304.6171875 C145.01210938 305.19726562 144.32890625 305.77734375 143.625 306.375 C143.04492188 306.89320313 142.46484375 307.41140625 141.8671875 307.9453125 C137.96415164 311.41266064 133.86177049 314.29351081 129.4453125 317.078125 C127.48806596 318.25806413 127.48806596 318.25806413 126.625 320.375 C124.98037446 321.12045127 123.33069865 321.85670958 121.65771484 322.53613281 C119.61913774 323.37741926 117.63448351 324.2920083 115.64453125 325.2421875 C114.96140869 325.56807861 114.27828613 325.89396973 113.57446289 326.22973633 C112.86926514 326.56642334 112.16406738 326.90311035 111.4375 327.25 C101.97950909 331.72319396 92.60504546 336.0216223 82.48828125 338.796875 C80.62980144 339.2149303 80.62980144 339.2149303 79.625 340.375 C78.22403484 340.64719283 76.81245311 340.86532664 75.3984375 341.05859375 C74.53089844 341.18169922 73.66335938 341.30480469 72.76953125 341.43164062 C70.94670667 341.68231114 69.12379215 341.93232871 67.30078125 342.18164062 C61.1453345 343.05645743 55.52618075 344.40793975 49.625 346.375 C35.82066563 349.01323268 21.77988826 348.71686327 7.78417969 348.69067383 C3.79343785 348.68379927 -0.19683206 348.71096788 -4.1875 348.73632812 C-40.81109861 348.82440238 -40.81109861 348.82440238 -57.375 344.375 C-57.375 343.715 -57.375 343.055 -57.375 342.375 C-57.93783691 342.31030518 -58.50067383 342.24561035 -59.08056641 342.17895508 C-73.71219543 340.44206412 -86.46129805 337.74076418 -99.625 330.8125 C-101.77769128 329.68722956 -103.93608979 328.61335132 -106.125 327.5625 C-136.0394032 313.13256666 -159.60944872 290.08626648 -173.65625 259.86328125 C-175.26324623 256.37844342 -175.26324623 256.37844342 -177.3984375 253.484375 C-179.87626418 249.58645003 -181.16403094 245.71010151 -182.5 241.3125 C-182.75861816 240.47630127 -183.01723633 239.64010254 -183.28369141 238.77856445 C-185.90339224 230.0453903 -187.51026774 221.53262591 -187.375 212.375 C-188.035 212.375 -188.695 212.375 -189.375 212.375 C-191.36116424 200.83805509 -191.68601074 189.52874804 -191.63574219 177.84130859 C-191.62501693 174.87967462 -191.63569937 171.91864699 -191.6484375 168.95703125 C-191.66858371 141.98407106 -191.66858371 141.98407106 -187.14453125 131.62109375 C-186.2886522 129.12296962 -185.86800168 126.63590178 -185.45092773 124.03320312 C-184.29975088 116.8519291 -182.48775382 110.23310684 -179.875 103.4375 C-179.57819336 102.65004395 -179.28138672 101.86258789 -178.97558594 101.05126953 C-178.20234702 99.11902854 -177.2981864 97.24025616 -176.375 95.375 C-174.89 94.88 -174.89 94.88 -173.375 94.375 C-172.56936362 92.26915562 -172.56936362 92.26915562 -172.1875 89.8125 C-172.02894531 88.98621094 -171.87039063 88.15992188 -171.70703125 87.30859375 C-171.59746094 86.67050781 -171.48789062 86.03242187 -171.375 85.375 C-170.715 85.375 -170.055 85.375 -169.375 85.375 C-168.13138798 82.98343842 -167.07406459 80.61631646 -166.078125 78.10546875 C-160.14143835 64.23997921 -146.33608251 51.59273411 -135.125 41.8125 C-134.57102539 41.32386475 -134.01705078 40.83522949 -133.44628906 40.33178711 C-129.9015293 37.32692637 -126.35904975 35.29840479 -122.16162109 33.32568359 C-119.78693302 32.06208215 -118.21103141 30.32242243 -116.375 28.375 C-114.4565566 27.08445939 -112.49439793 25.8572423 -110.5 24.6875 C-109.49195313 24.08550781 -108.48390625 23.48351562 -107.4453125 22.86328125 C-104.34810428 21.36196276 -101.77825367 20.75596123 -98.375 20.375 C-98.375 19.715 -98.375 19.055 -98.375 18.375 C-97.69695312 18.13265625 -97.01890625 17.8903125 -96.3203125 17.640625 C-95.38960937 17.30546875 -94.45890625 16.9703125 -93.5 16.625 C-92.48035156 16.25890625 -91.46070313 15.8928125 -90.41015625 15.515625 C-87.8602224 14.5573487 -85.41834345 13.49337666 -82.9375 12.375 C-74.83659758 9.05560584 -64.1770937 6.375 -55.375 6.375 C-55.375 5.715 -55.375 5.055 -55.375 4.375 C-36.95512316 0.46373433 -18.77368268 -0.0231752 0 0 Z " fill="#5B6770" transform="translate(797.375,762.625)"/>
<path d="M0 0 C115.83 0 231.66 0 351 0 C351 327.36 351 654.72 351 992 C238.8 992 126.6 992 11 992 C11 991.67 11 991.34 11 991 C122.54 991 234.08 991 349 991 C349 664.63 349 338.26 349 2 C233.83 2 118.66 2 0 2 C0 104.3 0 206.6 0 312 C-1.65 311.67 -3.3 311.34 -5 311 C-4.34 310.67 -3.68 310.34 -3 310 C-2.34 310.33 -1.68 310.66 -1 311 C-1.00037972 310.34442913 -1.00075944 309.68885825 -1.00115067 309.0134216 C-1.02350536 270.20046968 -1.04067471 231.38751859 -1.05106533 192.57456154 C-1.05231611 187.91925521 -1.05361042 183.26394889 -1.05493164 178.60864258 C-1.05532511 177.21840017 -1.05532511 177.21840017 -1.05572652 175.80007207 C-1.06008355 160.77253813 -1.06797127 145.74500799 -1.0771528 130.71747632 C-1.08648844 115.30975265 -1.09205542 99.90203098 -1.09408849 84.4943046 C-1.09546391 74.97897498 -1.09981549 65.46365611 -1.10791647 55.9483298 C-1.11318282 49.43250736 -1.11480455 42.91669052 -1.11350138 36.4008661 C-1.11285782 32.6357644 -1.11387746 28.87068157 -1.11920547 25.10558319 C-1.12492632 21.03339403 -1.1230012 16.96124557 -1.12025452 12.88905334 C-1.12316736 11.68577221 -1.1260802 10.48249108 -1.12908131 9.24274689 C-1.12709026 8.16090321 -1.12509921 7.07905954 -1.12304783 5.96443272 C-1.12342755 5.02310602 -1.12380727 4.08177932 -1.1241985 3.11192757 C-1 1 -1 1 0 0 Z " fill="#BBC0C4" transform="translate(991,324)"/>
<path d="M0 0 C0.33 0 0.66 0 1 0 C1.13193861 7.16475544 0.74136434 14.18201711 0.0625 21.3125 C-1.08615349 33.76050036 -2.12114522 46.13917721 -2.31640625 58.64453125 C-2.33718735 59.78033127 -2.35796844 60.91613129 -2.37937927 62.08634949 C-2.44398691 65.66168041 -2.50334021 69.23707522 -2.5625 72.8125 C-2.60576999 75.25846975 -2.64938674 77.7044334 -2.69335938 80.15039062 C-2.7995751 86.10019581 -2.90149445 92.05006243 -3 98 C-3.33 98 -3.66 98 -4 98 C-4.52422532 20.6191126 -4.52422532 20.6191126 -1 1 C-0.67 0.67 -0.34 0.34 0 0 Z " fill="#AEB4B8" transform="translate(250,863)"/>
<path d="M0 0 C0.66 0.33 1.32 0.66 2 1 C-9.55 12.55 -21.1 24.1 -33 36 C-33.66 35.67 -34.32 35.34 -35 35 C-29.54642126 28.69808678 -23.82040477 22.71183746 -17.9375 16.8125 C-17.2775 16.14798828 -16.6175 15.48347656 -15.9375 14.79882812 C-11.97873831 10.85182513 -7.9081268 7.09329308 -3.66625977 3.4519043 C-2.40075569 2.3492006 -1.18689848 1.18689848 0 0 Z " fill="#DDE0E2" transform="translate(375,628)"/>
<path d="M0 0 C0.33 0 0.66 0 1 0 C1.20462296 7.03865079 0.64144884 13.68375705 -0.5 20.625 C-0.71462891 21.98818359 -0.71462891 21.98818359 -0.93359375 23.37890625 C-1.28225889 25.58711883 -1.63778827 27.79397643 -2 30 C-2.33 30 -2.66 30 -3 30 C-2.85991329 26.4789137 -2.71189018 22.95820288 -2.5625 19.4375 C-2.52318359 18.44685547 -2.48386719 17.45621094 -2.44335938 16.43554688 C-1.81176758 1.81176758 -1.81176758 1.81176758 0 0 Z " fill="#899298" transform="translate(250,863)"/>
<path d="M0 0 C-16.70842825 4.40774487 -16.70842825 4.40774487 -25 5 C-23 2 -23 2 -20.171875 1.3046875 C-19.04265625 1.16289063 -17.9134375 1.02109375 -16.75 0.875 C-15.63109375 0.72804688 -14.5121875 0.58109375 -13.359375 0.4296875 C-12.25078125 0.28789063 -11.1421875 0.14609375 -10 0 C-8.42992187 -0.30550781 -8.42992187 -0.30550781 -6.828125 -0.6171875 C-4.13222175 -0.98210258 -2.53906926 -0.87890859 0 0 Z " fill="#A9AFB4" transform="translate(567,540)"/>
<path d="M0 0 C0.33 0 0.66 0 1 0 C1.13277344 1.12019531 1.26554688 2.24039063 1.40234375 3.39453125 C1.58056569 4.86720729 1.75896011 6.33986247 1.9375 7.8125 C2.02451172 8.55048828 2.11152344 9.28847656 2.20117188 10.04882812 C2.58216546 13.16733121 3.00369374 16.01108122 4 19 C4.06740865 20.56118428 4.08514456 22.1250252 4.0625 23.6875 C4.05347656 24.49574219 4.04445312 25.30398438 4.03515625 26.13671875 C4.02355469 26.75160156 4.01195312 27.36648438 4 28 C-0.64358875 20.07858389 -0.37150389 8.95737154 0 0 Z " fill="#838C93" transform="translate(247,979)"/>
<path d="M0 0 C1.32 0.33 2.64 0.66 4 1 C0.7 4.3 -2.6 7.6 -6 11 C-6.99 10.67 -7.98 10.34 -9 10 C-8.27683594 9.29423828 -8.27683594 9.29423828 -7.5390625 8.57421875 C-6.90742187 7.95160156 -6.27578125 7.32898437 -5.625 6.6875 C-4.68527344 5.76517578 -4.68527344 5.76517578 -3.7265625 4.82421875 C-1.81913393 2.91187472 -1.81913393 2.91187472 0 0 Z " fill="#7C868D" transform="translate(997,1235)"/>
<path d="M0 0 C-4.92485079 1.54222885 -9.85891543 3.03145034 -14.875 4.25 C-15.92300781 4.50523438 -15.92300781 4.50523438 -16.9921875 4.765625 C-19.24658326 5.02878404 -20.84836999 4.67539955 -23 4 C-22.21753906 3.79503906 -21.43507813 3.59007812 -20.62890625 3.37890625 C-19.61699219 3.10949219 -18.60507812 2.84007812 -17.5625 2.5625 C-16.55316406 2.29566406 -15.54382813 2.02882813 -14.50390625 1.75390625 C-12.08247999 1.24021923 -12.08247999 1.24021923 -11 0 C-6.97279717 -0.75984959 -3.92759816 -1.16180608 0 0 Z " fill="#B3B9BD" transform="translate(847,1328)"/>
<path d="M0 0 C0.66 0.33 1.32 0.66 2 1 C1.04882866 2.1725131 0.08882991 3.33787015 -0.875 4.5 C-1.67550781 5.47453125 -1.67550781 5.47453125 -2.4921875 6.46875 C-2.98976563 6.9740625 -3.48734375 7.479375 -4 8 C-4.66 8 -5.32 8 -6 8 C-6.66 9.32 -7.32 10.64 -8 12 C-8.66 12 -9.32 12 -10 12 C-8.52278578 8.54798361 -6.56205999 6.35038064 -3.875 3.75 C-3.15054688 3.04359375 -2.42609375 2.3371875 -1.6796875 1.609375 C-1.12539063 1.07828125 -0.57109375 0.5471875 0 0 Z " fill="#879096" transform="translate(657,809)"/>
<path d="M0 0 C6.33393082 -0.34548714 11.10261508 0.70657253 17 3 C13.12813552 4.44715727 10.1767672 3.5441918 6.25 2.5625 C5.07953125 2.27503906 3.9090625 1.98757813 2.703125 1.69140625 C1.81109375 1.46324219 0.9190625 1.23507812 0 1 C0 0.67 0 0.34 0 0 Z " fill="#C5C9CC" transform="translate(531,1327)"/>
<path d="M0 0 C0 0.33 0 0.66 0 1 C-5.80766296 2.5056904 -10.9981863 3.21824777 -17 3 C-16.67 2.34 -16.34 1.68 -16 1 C-10.74469407 -0.34751434 -5.38420602 -0.09576651 0 0 Z " fill="#879097" transform="translate(856,1106)"/>
<path d="M0 0 C5.54050113 0.56825653 10.03715966 2.62886517 15 5 C12.24022114 6.37988943 10.98021199 5.62402826 8.0625 4.75 C6.74958984 4.37101563 6.74958984 4.37101563 5.41015625 3.984375 C2.95383848 2.98114635 1.70251753 2.00031763 0 0 Z " fill="#B9BEC2" transform="translate(871,556)"/>
<path d="M0 0 C-3.07692746 2.6815279 -5.19734663 3.42087807 -9.25 3.6875 C-10.14203125 3.75324219 -11.0340625 3.81898437 -11.953125 3.88671875 C-12.62859375 3.92410156 -13.3040625 3.96148438 -14 4 C-13.67 3.34 -13.34 2.68 -13 2 C-8.55499776 0.66649933 -4.6681169 -0.29175731 0 0 Z " fill="#7C858D" transform="translate(881,1100)"/>
</svg>
