<svg width="59" height="47" viewBox="0 0 59 47" fill="none" xmlns="http://www.w3.org/2000/svg">
<g clip-path="url(#clip0_2760_7011)">
<path d="M28.2574 10.4453C26.1688 12.9012 22.8619 14.4801 20.2512 15.8834V15.708C20.2512 15.5326 20.0772 15.5326 20.0772 15.5326H20.2512C21.6436 15.708 22.6879 16.936 22.5138 18.3394C22.5138 20.0936 21.1215 22.3741 21.1215 23.9529C20.9474 24.4792 22.5138 24.3038 23.7322 24.1283C30.346 22.1987 36.6116 18.5148 43.9216 19.2165V19.3919C39.7445 20.269 35.5674 21.3216 31.7383 23.0758C28.6055 24.3038 25.2986 25.5317 21.9917 25.5317C21.6436 25.5317 21.1215 25.5317 20.7734 25.1809C17.8146 23.2512 24.0803 17.9885 20.5993 16.2343C20.2512 16.0589 19.381 15.8834 19.7291 15.1817C20.4253 14.4801 21.1215 14.4801 21.6436 14.1292C23.9062 13.6029 26.1688 12.1995 28.2574 10.4453Z" fill="white"/>
<path d="M58.9488 36.9124C58.6004 39.7149 54.2452 42.167 53.0257 38.4888C52.6773 37.613 52.8515 36.5621 52.6773 35.8615C51.8062 31.4826 47.451 35.6863 46.2315 37.7882C44.141 40.4155 42.3989 44.0937 39.089 45.4949C36.1274 46.8962 31.4237 47.0713 30.0301 43.3931C28.6364 39.1894 29.8559 34.8106 30.7269 30.6069C31.598 25.8777 35.0821 16.2443 36.3016 11.6903L36.4758 11.34C36.4758 10.9897 36.4758 11.5151 36.4758 11.5151C32.2948 10.1139 27.0685 10.289 22.5391 9.93873L25.849 8.5375C29.3332 7.13627 31.7722 3.10773 35.4306 1.18104C39.4374 -1.27111 44.4895 0.480426 47.7994 2.93258C55.9873 7.83688 55.8131 18.5213 49.8899 25.1771C46.58 29.2056 41.0053 32.8839 36.3016 33.9348C45.8831 30.782 56.3357 20.6231 51.8062 9.93873C49.7157 5.38473 44.4895 1.88166 39.7858 1.7065C37.3469 1.7065 35.0821 3.28289 33.1658 5.03442C31.2495 6.78596 29.3332 9.06296 26.3717 10.1139L26.1975 8.5375C28.288 8.71265 30.3785 8.88781 32.469 9.06296C33.8627 9.41327 38.2179 9.41327 37.5211 11.5151C37.5211 11.6903 37.1727 12.3909 37.1727 12.566C35.779 16.7697 32.2948 26.4032 31.4237 30.6069C30.5527 34.4603 29.3332 38.8391 30.5527 42.8676C31.2495 44.9695 33.5143 45.4949 35.2564 45.3198C40.3084 44.9695 42.3989 40.5906 45.0121 36.9124C46.58 33.9348 52.1547 29.7311 53.1999 35.5112C53.3741 37.0876 52.8515 39.1894 54.7678 39.5397C56.6841 39.89 58.252 38.4888 58.9488 36.9124Z" fill="white"/>
<path d="M19.519 35.6766C19.519 30.3967 16.5263 17.7251 9.13267 20.541C2.6192 25.1169 3.67544 36.2045 7.54831 42.3644C11.0691 47.6442 16.3503 46.7642 18.6388 40.9564H18.8148C18.2867 43.5963 16.7024 46.0602 14.0618 46.9402C1.56297 48.3482 -0.725549 24.5889 8.60455 19.6611C16.8784 16.3172 20.3992 30.2207 19.519 35.6766Z" fill="white"/>
<path d="M1.15625 35.2422L3.50527 40.6171L6.35765 39.4413L5.01535 34.2344L1.15625 35.2422Z" fill="white"/>
<path d="M28.3187 34.3516C22.2449 34.8843 15.9975 36.3047 9.92369 36.4823C8.88246 36.4823 7.49416 37.015 6.97355 35.7721C6.45293 34.5291 5.06463 33.2862 3.50279 32.9311L4.19694 32.2208C4.37048 32.9311 4.54402 34.8843 4.71756 35.5945L3.84987 35.4169C1.2468 34.7067 0.379109 37.9028 1.76741 39.6784C2.28803 40.2111 2.80864 40.3887 3.50279 40.3887C4.54402 40.3887 5.41171 40.2111 6.10586 39.6784C6.2794 39.5009 6.2794 39.3233 6.62647 39.1457C7.49416 38.4355 8.88247 38.7906 9.57662 38.9682C15.6504 40.3887 21.7243 41.0989 27.9716 41.4541C22.2449 42.1643 15.3034 41.6316 9.22954 40.5662C8.01478 40.2111 8.18831 40.0336 6.97355 40.7438C5.93232 41.4541 4.71756 41.4541 3.50279 41.4541C2.80864 41.6316 1.42034 41.0989 0.899722 40.2111C-1.18273 37.5477 0.552646 33.6413 4.0234 33.9964L3.32925 34.7067C3.32925 33.9964 2.98218 31.8657 2.80864 31.333C4.89109 31.8657 6.97355 33.1086 7.84124 35.2394C7.6677 35.2394 8.01478 35.4169 8.53539 35.4169C9.40308 35.4169 11.6591 35.4169 12.5268 35.4169C17.7329 35.4169 23.4596 33.9964 28.3187 34.3516Z" fill="white"/>
<path d="M7.65234 40.5195C10.1563 43.9929 13.7335 44.3402 16.4164 41.0405C15.1644 46.0769 9.0832 44.1665 7.65234 40.5195Z" fill="white"/>
<path d="M17.8459 35.6573C18.0247 29.7526 13.0167 18.8116 6.93555 26.8003C7.1144 25.5846 8.36641 24.3689 9.43955 23.6743C15.8784 20.8956 18.3824 31.3156 17.8459 35.6573Z" fill="white"/>
<path d="M7.65058 30.2739C7.82944 31.1423 8.72372 31.6633 9.43915 31.4896L12.122 30.9686C13.7317 30.6213 16.0569 30.6213 16.4146 28.7109C16.5935 29.0583 16.4146 29.7529 16.0569 30.1003C14.2683 31.8369 11.7643 31.8369 9.43915 32.1843C8.54487 32.1843 7.47172 31.3159 7.65058 30.2739Z" fill="white"/>
<path d="M14.4479 33.3639C14.4479 35.9837 10.5709 36.1583 10.4023 33.3639C10.5709 30.5694 14.4479 30.7441 14.4479 33.3639ZM14.4479 33.3639C14.4479 31.4427 11.7509 31.6173 11.7509 33.3639C11.7509 35.1104 14.4479 35.2851 14.4479 33.3639Z" fill="white"/>
</g>
<defs>
<clipPath id="clip0_2760_7011">
<rect width="58.9492" height="47" fill="white"/>
</clipPath>
</defs>
</svg>
