<svg width="61" height="47" viewBox="0 0 61 47" fill="none" xmlns="http://www.w3.org/2000/svg">
<g clip-path="url(#clip0_2760_7057)">
<path d="M51.7383 15.8633C54.2296 18.3503 57.2547 19.4162 60.2799 20.8373C60.6358 21.3702 60.2799 21.7255 59.924 21.7255C56.187 22.969 60.2799 27.0549 60.1019 29.5419C59.5681 33.8053 47.4675 28.2984 45.1542 27.2325C42.129 25.989 38.926 25.2784 35.5449 24.7455V24.5678C43.0188 23.8573 49.425 27.4101 56.187 29.5419C57.2547 29.8972 59.0342 29.8972 58.8563 29.3642C58.8563 28.476 58.3224 27.0549 57.7886 25.8113C57.0768 23.8573 57.0768 21.1926 59.746 20.8373C60.1019 20.6597 59.5681 20.8373 59.746 21.1926C57.0768 20.1267 53.6957 18.3503 51.7383 15.8633Z" fill="white"/>
<path d="M3.79277 25.9083C4.68457 33.1467 13.4242 35.6184 19.4884 35.7949C26.4444 34.9122 26.4444 30.4985 26.0877 24.6725C25.5526 19.5526 26.8011 13.7266 30.725 10.0191C39.1079 3.1338 48.7393 4.89927 53.555 14.7859L53.9118 15.6686C51.4147 15.8452 49.0961 16.0217 46.599 16.1983C45.1722 16.3748 43.2102 16.7279 42.3184 17.081C42.3184 17.081 42.3184 16.9044 42.3184 16.7279C42.3184 16.7279 42.3184 16.7279 42.3184 16.9044L42.4968 17.6106L46.599 29.4393C48.0259 33.4998 49.4528 38.09 47.3125 42.3272C44.9938 46.7408 39.1079 47.447 34.8273 45.505C30.5467 43.0334 25.0175 41.4444 20.5586 44.2692C19.31 44.9754 18.5966 46.0346 17.1697 46.5643C12.5324 48.5063 8.60848 43.563 8.0734 39.5024C8.25176 36.6777 6.28981 35.2653 3.61441 34.9122C2.54426 34.9122 1.11738 34.3826 0.403945 33.3233C-0.487852 32.0875 0.225586 30.6751 1.29574 29.9689C1.65246 29.6158 2.18754 29.0862 2.18754 28.7331C2.18754 28.38 1.29574 28.38 0.939023 27.6738C0.760664 27.3207 0.939023 26.9676 1.11738 26.7911C2.00918 26.438 2.90098 26.0849 3.79277 25.9083ZM3.79277 26.0849C2.90098 26.2614 0.225586 27.6738 2.00918 28.38C2.18754 28.38 2.72262 28.7331 2.72262 29.0862C2.72262 29.7924 2.18754 30.1454 1.83082 30.6751C0.939023 31.3813 0.582305 32.6171 1.11738 33.3233C1.65246 34.206 2.90098 34.3826 3.97113 34.3826C7.1816 34.5591 9.50027 36.5011 9.50027 39.5024C10.0354 42.8568 13.0675 46.9174 16.813 45.3285C22.8772 39.8555 28.9414 39.8555 35.8975 43.9161C38.7512 45.1519 44.102 45.1519 45.8856 41.4444C47.6692 37.9135 46.599 33.6764 45.3505 29.9689L41.4266 17.9637C41.2482 17.4341 40.8915 16.7279 41.2482 16.3748C41.4266 16.0217 41.605 16.0217 41.7833 15.8452C45.3505 14.4328 49.2744 14.6093 53.02 14.2562L52.4849 15.139C50.7013 11.4315 47.4908 7.90056 43.3886 7.01783C36.6109 5.95855 29.4765 10.5488 27.6929 16.9044C25.9093 21.8478 28.0497 27.1442 26.4444 32.264C23.2339 38.2666 14.8511 35.9715 9.85699 33.6764C6.46816 32.4406 3.97113 29.2627 3.79277 26.0849Z" fill="white"/>
<path d="M11.5018 16.3662C11.8576 16.9044 12.7471 16.9044 13.1029 16.3662C13.4587 15.828 12.925 15.1104 12.5692 14.5722C13.4587 13.6753 13.2808 12.2401 12.925 10.9844C12.2134 8.83166 10.7902 6.14076 9.0113 4.88501C8.12183 4.34683 7.05446 4.88501 5.98709 5.42319C5.8092 5.60258 4.91973 6.14076 4.74183 6.49955C4.38605 7.9347 5.8092 9.90802 6.34288 11.3432C7.41025 13.4959 9.0113 16.1868 11.6797 15.1104V15.2898C9.0113 17.2631 6.34288 14.2135 5.09762 11.8814C4.38605 10.4462 3.31868 8.83166 2.96289 7.03773C3.31868 4.70562 7.76604 2.5529 9.54498 3.98804C11.8576 5.96137 15.0597 12.0607 12.925 14.7516V14.5722C13.2808 15.1104 13.8144 16.0074 13.2808 16.725C12.7471 17.2631 11.6797 17.0838 11.5018 16.3662Z" fill="white"/>
<path d="M12.6464 16.4492C13.3589 18.4242 14.2495 20.5787 13.0026 22.5536C12.2901 23.4513 11.7557 24.349 11.9339 25.2468C11.9339 25.7854 12.4682 25.9649 12.8245 26.324C13.1807 26.8626 13.537 27.4013 13.537 28.1194C13.3589 28.299 12.6464 28.1194 12.4682 28.1194C11.2214 27.7603 10.8651 26.6831 10.687 25.6058C10.5089 24.1695 11.3995 22.7332 12.2901 22.015C13.3589 20.5787 12.8245 18.2446 12.6464 16.4492Z" fill="white"/>
<path d="M20.6141 12.883C20.2666 13.593 19.2243 13.7705 18.7031 13.0605C18.1819 12.3505 18.7031 11.6405 19.0506 10.9305V11.108C16.9659 8.44542 20.0929 2.23281 22.3513 0.457779C24.2622 -0.962247 28.6053 1.16779 28.4316 3.47533C28.2579 5.25037 27.2155 6.67039 26.3469 8.26792C25.3046 10.5755 22.525 13.4155 19.9192 11.6405V11.463C21.1352 11.9955 22.3513 11.6405 23.2199 10.753C24.7834 8.97793 25.8258 6.31539 26.6944 4.18535C27.3893 2.94282 26.3469 2.23281 25.652 1.7003C22.8725 -0.0747305 21.8301 1.7003 20.4403 4.00784C19.7455 5.96038 18.1819 8.80043 19.398 10.9305C19.5717 11.108 19.5717 11.108 19.398 11.108C19.0506 11.6405 18.7031 12.173 18.8768 12.7055C19.2243 13.238 20.2666 13.238 20.6141 12.883Z" fill="white"/>
<path d="M19.648 12.9258C20.3696 15.3813 21.2715 18.1875 20.0088 20.643C18.7461 22.3969 18.3853 24.5016 19.648 26.2555C20.1892 26.9571 21.2715 27.8341 21.8126 29.2372C21.993 29.9388 21.993 30.8157 21.4518 31.3419C21.0911 31.8681 20.0088 32.5696 19.648 32.2189C20.3696 30.8157 20.3696 29.588 19.648 28.3602C18.5657 27.1325 17.4834 25.3786 17.8442 23.4493C18.0246 22.2215 18.7461 20.9938 19.2873 20.2922C20.7303 17.8367 19.4676 15.0305 19.648 12.9258Z" fill="white"/>
<path d="M24.2896 6.16953C24.2896 8.82207 20.3154 8.9989 20.1426 6.16953C20.3154 3.34016 24.2896 3.517 24.2896 6.16953ZM24.2896 6.16953C24.2896 4.22434 21.5249 4.40117 21.5249 6.16953C21.5249 8.11472 24.2896 8.29156 24.2896 6.16953Z" fill="white"/>
<path d="M6.51758 9.22566C7.89576 8.38408 9.10167 7.5425 10.6521 6.53261C10.9967 6.36429 11.3412 6.53261 11.3412 6.70093L12.8917 8.88903C13.2362 9.22566 12.8917 9.89892 12.5471 10.0672L8.06803 11.7504C7.89576 11.7504 7.72349 11.7504 7.72349 11.5821L6.51758 9.22566ZM6.51758 9.22566C7.0344 10.0672 7.55121 10.7405 8.06803 11.4138L7.72349 11.2454L11.6858 8.72071L11.3412 9.7306L10.3076 7.37419L11.1689 7.5425C9.79076 8.04745 8.24031 8.5524 6.51758 9.22566Z" fill="white"/>
</g>
<defs>
<clipPath id="clip0_2760_7057">
<rect width="60.4286" height="47" fill="white"/>
</clipPath>
</defs>
</svg>
