<svg width="57" height="47" viewBox="0 0 57 47" fill="none" xmlns="http://www.w3.org/2000/svg">
<g clip-path="url(#clip0_2760_7030)">
<path d="M12.8774 40.2909C12.8774 40.457 12.7102 40.2909 12.7102 40.2909V40.1247C12.7102 39.9586 12.543 39.6263 12.543 39.6263C12.543 39.1279 12.2085 37.7987 12.2085 37.4664C11.2051 30.1561 10.3689 22.5135 9.53276 15.2032C9.53276 15.037 9.36552 14.3725 9.36552 14.0402C9.36552 13.874 9.36552 13.7079 9.36552 13.5418C10.2017 12.5449 11.5396 12.8772 12.543 12.8772C15.5532 12.8772 18.5634 13.5418 21.5736 13.7079C26.5906 13.7079 30.9387 10.8835 34.9523 8.22516C36.9591 6.56372 40.3038 4.40386 41.14 2.07785C40.8055 1.74556 40.3038 1.74556 39.8021 1.57942C30.1025 1.57942 20.2357 4.07157 10.3689 5.56686C-2.00638 8.88973 -0.501275 18.3599 4.51574 27.664C-2.00638 18.5261 -2.50808 7.39444 10.0345 4.07157C17.8945 2.41013 25.7544 0.914842 33.9489 0.250267C51.8429 -1.74346 37.4608 8.72359 30.437 12.2126C27.7612 13.5418 24.751 14.7048 21.5736 14.5386C18.5634 14.3725 15.7204 13.7079 12.7102 13.7079C11.874 13.7079 10.8706 13.7079 10.2017 13.874C11.0379 22.6796 11.3723 31.9837 12.8774 40.2909Z" fill="white"/>
<path d="M38.0977 19.4273C36.091 21.751 33.0811 23.2448 30.4055 24.5726V24.4067C30.4055 24.2407 30.2383 24.2407 30.2383 24.2407H30.4055C32.7466 24.7386 32.9138 27.0623 32.2449 28.8881C31.9105 30.2159 31.0744 31.3778 31.4088 32.3736C31.4088 32.3736 31.4088 32.3736 31.5761 32.3736C31.5761 32.3736 31.7433 32.3736 31.9105 32.3736C34.9205 32.3736 38.4321 30.5479 40.7732 29.884C44.2849 28.2242 48.1309 27.7262 51.977 27.7262V27.8922C49.3015 28.5561 46.6259 29.22 43.9504 30.2159C41.7765 31.2118 30.5727 36.1912 30.2383 32.2077C30.0711 29.884 33.9172 25.9005 30.4055 24.9046C30.0711 24.9046 29.7366 24.5726 29.9039 24.0747C30.5727 23.4108 31.2416 23.4108 31.7433 23.0788C34.0844 22.2489 36.091 20.9211 38.0977 19.4273Z" fill="white"/>
<path d="M17.899 16.0352C19.0543 18.3801 20.7046 20.39 22.685 22.065C22.8501 22.2324 23.1801 22.3999 23.1801 22.7349C23.3452 23.0699 23.0151 23.4049 22.685 23.4049C19.2193 23.5724 21.5298 28.4297 20.5396 30.6072C18.7242 34.1245 11.2976 26.4198 9.81234 24.9124C7.99696 23.2374 6.01654 21.8975 3.87109 20.5575V20.39C6.18158 21.06 8.49206 22.2324 10.4725 23.7399C13.113 25.7498 15.5885 28.9322 18.8892 30.1047C19.2193 30.1047 19.2193 30.1047 19.3843 29.6022C19.7144 27.2573 18.7242 22.2324 22.52 22.3999C22.52 22.3999 22.52 22.2324 22.355 22.5674V22.7349C22.355 22.5674 22.0249 22.3999 22.0249 22.2324C20.3746 20.5575 18.7242 18.5476 17.899 16.0352Z" fill="white"/>
<path d="M14.4812 33.6799C12.1433 33.1828 4.46139 30.5317 3.4594 33.1828C3.2924 34.3427 4.29439 35.6682 4.96238 36.6623C6.96635 38.982 9.30431 40.9703 11.9763 42.6273C19.9922 47.2667 30.179 47.4324 38.8629 44.6156C46.3778 41.9645 50.7197 35.0054 53.0577 27.8807C54.3936 24.0697 56.2306 18.7676 53.5587 15.1224C51.2207 11.3114 46.7118 8.66035 42.3698 10.483C39.3639 11.6428 36.3579 13.9625 35.1889 16.945C35.0219 17.442 35.0219 17.9391 35.1889 18.1048C35.1889 18.2705 35.6899 18.4362 36.1909 18.2705C39.6979 17.6077 43.2048 16.945 46.8788 17.7734C49.8847 19.099 46.2108 21.253 44.8748 22.2471C41.2008 25.3953 37.8609 30.6974 39.6979 35.5025C41.2008 39.6448 45.7098 38.1536 47.2127 34.8397H47.3797C46.7118 36.4967 45.3758 37.8222 43.5388 38.3193C39.3639 38.982 37.8609 33.5142 38.6959 30.366C39.5309 26.058 42.7038 22.2471 46.2108 19.7617C46.5448 19.4304 46.7118 19.099 46.7118 18.9333C46.7118 18.7676 46.5448 18.7676 46.3778 18.6019C43.2048 17.9391 39.5309 18.9333 36.3579 19.4303C35.5229 19.596 34.5209 19.4304 34.0199 18.6019C32.517 14.791 38.8629 9.98589 42.0358 8.99173C47.0458 6.83773 52.3897 9.98589 54.7276 14.1282C56.8986 16.7793 56.5646 20.4245 55.8966 23.5727C54.0597 29.5376 51.8887 35.6682 47.3797 40.1419C40.5328 47.101 29.845 47.9294 20.6601 46.2725C14.4812 45.1127 8.80332 41.4674 4.79538 36.6623C2.62441 33.6799 2.45742 31.1945 6.96635 31.5259C9.47131 32.023 11.9763 32.6857 14.4812 33.6799Z" fill="white"/>
<path d="M28.2013 35.4928C25.8555 36.321 22.0016 36.321 23.5097 32.6768C24.1799 31.3517 25.6879 29.5296 25.8555 28.2044C25.8555 27.7075 23.3421 27.2106 22.6719 26.8793V26.7136C23.3421 26.3824 24.0123 26.0511 24.8501 26.0511C26.1906 25.7198 28.3688 26.7136 28.0337 28.7014C27.8662 30.0265 26.8608 30.8547 26.023 31.8486C23.1745 34.8302 24.515 35.1615 28.2013 35.1615V35.4928Z" fill="white"/>
<path d="M26.7566 37.836C26.4156 38.1318 26.0746 38.4276 25.904 38.8713C25.904 38.8713 25.904 39.1671 26.0746 38.7234C26.2451 38.2797 25.7335 37.9839 25.563 37.836C25.7335 37.9839 26.0746 37.9839 26.7566 38.1318C27.4387 38.5755 26.9271 39.315 26.5861 39.6108C25.3925 40.3504 23.5168 38.8713 24.7104 37.9839C25.3925 37.5402 26.0746 37.5402 26.7566 37.6881C26.7566 37.5402 26.7566 37.836 26.7566 37.836Z" fill="white"/>
</g>
<defs>
<clipPath id="clip0_2760_7030">
<rect width="56.4" height="47" fill="white"/>
</clipPath>
</defs>
</svg>
