<svg width="56" height="47" viewBox="0 0 56 47" fill="none" xmlns="http://www.w3.org/2000/svg">
<g clip-path="url(#clip0_2760_7044)">
<path d="M20.1687 9.29004C22.4405 11.6035 25.199 12.595 27.9576 13.917C28.2821 14.4128 27.9576 14.7433 27.633 14.7433C24.2254 15.9001 27.9576 19.7008 27.7953 22.0143C27.3085 25.9803 16.2743 20.8576 14.1648 19.8661C11.4063 18.7093 8.48543 18.0483 5.40234 17.5526V17.3873C12.2176 16.7263 18.0592 20.0313 24.2254 22.0143C25.199 22.3448 26.8217 22.3448 26.6594 21.8491C26.6594 21.0228 26.1726 19.7008 25.6858 18.5441C25.0368 16.7263 25.0368 14.2475 27.4708 13.917C27.7953 13.7518 27.3085 13.917 27.4708 14.2475C25.0368 13.256 21.9537 11.6035 20.1687 9.29004Z" fill="white"/>
<path d="M31.2219 41.535C35.7562 35.6994 39.8047 28.3632 45.4725 24.0281C48.2255 22.5275 51.3024 23.3612 54.0553 22.1941L54.2173 22.0273C54.2173 22.0273 54.0553 22.1941 54.2173 22.3608C50.9785 21.5271 46.4442 21.8606 43.2054 23.5279C38.1853 26.6958 33.489 31.6978 28.6309 34.8657C31.8696 31.5311 35.2704 28.1964 38.6711 25.1952C41.2621 22.6943 44.339 20.8602 47.9016 20.8602C50.0068 20.6935 52.112 20.6935 54.2173 21.3604C54.5411 21.5271 54.7031 21.5271 55.027 22.0273C55.6747 23.6947 51.9501 23.8614 50.9785 24.0281C49.521 24.1949 46.93 24.1949 45.7964 24.8618C39.9666 29.0301 36.0801 36.3663 31.2219 41.535Z" fill="white"/>
<path d="M18.0622 29.4538C20.5236 35.0819 23.9695 40.8756 29.7126 43.1931C25.6104 45.345 20.8517 47.0004 16.0931 47.0004C11.4986 46.8348 6.90404 44.1863 5.26313 39.8824C3.29404 35.7441 4.44267 31.1091 3.62222 26.6397C2.80177 22.3358 1.16086 18.1975 0.340406 13.7281C-1.62868 4.95479 5.26313 1.64412 12.8113 1.14752C16.4213 0.981982 25.7745 -1.00442 27.4154 3.29945C27.7436 5.28586 25.9386 6.77566 24.4617 7.60333C21.1799 9.09314 16.5854 8.26547 12.9754 9.4242C12.6472 9.58974 12.319 9.75527 11.9908 9.9208C11.9908 9.9208 11.9908 9.9208 11.9908 9.75527C13.7958 13.7281 18.7186 22.3358 12.9754 25.6465C11.0063 26.4742 8.70903 25.9776 7.39631 24.6533C6.08358 22.998 6.73994 21.3426 8.87312 21.5082C9.3654 21.5082 9.85767 21.6737 10.3499 21.6737V21.8392C8.38085 21.3426 6.08358 22.0048 7.88858 24.1567C9.20131 25.3154 11.3345 25.6465 12.8113 24.8188C17.5699 21.6737 13.4677 13.7281 11.1704 9.9208C10.8422 7.4378 20.8517 7.76887 22.6567 7.27226C26.759 5.78246 28.564 2.14072 22.8208 1.64412C19.539 1.14752 16.2572 1.47858 13.1395 1.97518C8.87312 2.80285 4.11449 3.63052 2.1454 7.4378C-0.315957 13.5625 3.62222 20.1839 4.44267 26.4742C4.93495 28.6261 4.77086 30.9436 4.77086 33.0955C4.77086 37.3994 6.41176 42.0343 10.1858 44.1863C16.0931 47.1659 22.9849 45.345 28.7281 42.6965V43.5242C23.3131 41.0411 19.539 34.9164 18.0622 29.4538Z" fill="white"/>
<path d="M46.0124 5.77445C53.4799 3.13742 47.3111 -2.7959 45.0383 5.60964L44.5513 5.44482C45.363 -2.30146 35.1356 -0.158869 44.5513 5.77445C43.7396 5.77445 40.4928 5.93926 39.6811 6.10408C38.0578 6.26889 35.9473 6.10408 34.6486 7.42259C33.8369 8.90592 34.4863 11.0485 34.6486 12.6967C34.9733 13.8504 34.9733 15.8281 35.1356 16.9818C35.785 19.9485 39.5188 19.1244 41.7915 19.2892C44.5513 19.2892 46.9864 18.7948 49.5838 18.63C50.7202 18.4652 52.0189 18.63 52.8306 18.1355C54.2916 16.817 53.967 13.3559 53.967 11.7078C53.8046 9.56518 53.967 7.75222 51.5319 7.25778C49.5838 6.92815 47.6357 6.92815 45.5253 7.09297C42.7656 6.92815 45.85 15.9929 44.876 18.1355H44.7136C44.876 16.1578 44.389 14.18 44.0643 12.0374C44.0643 10.3893 43.2526 6.59852 45.85 6.59852C48.6098 6.59852 53.1553 5.60963 54.6163 8.57629C54.941 9.72999 54.941 10.7189 55.1033 11.7078C54.941 14.18 55.5904 17.3115 53.6423 19.1244C51.3695 20.4429 48.7721 19.7837 46.337 20.4429C42.7656 20.4429 34.9733 22.2559 34.1616 17.3115C33.1876 6.10408 31.5642 5.28001 43.5773 5.28001L43.4149 5.93926C42.4409 5.11519 41.4669 4.29112 40.6552 3.30223C39.6811 2.14853 39.6811 0.17076 41.4669 0.00594538C44.389 -0.158869 45.5253 3.13742 45.0383 5.60964L44.5513 5.44482C45.0383 3.79668 45.6877 1.98372 47.3111 1.15965C48.4474 0.335574 49.9085 1.32446 49.7462 2.80779C49.5838 4.62075 47.6357 5.44482 46.0124 5.77445Z" fill="white"/>
<path d="M35.1152 13.3837C39.4911 13.5464 44.1911 12.5703 48.4049 12.5703C49.8635 12.5703 51.4842 12.5703 52.9428 13.0584V13.2211C48.567 12.8957 44.029 14.3599 39.6532 14.1972C38.0325 14.0345 36.4118 14.0345 35.1152 13.3837Z" fill="white"/>
</g>
<defs>
<clipPath id="clip0_2760_7044">
<rect width="55.1034" height="47" fill="white"/>
</clipPath>
</defs>
</svg>
