<svg width="24" height="22" viewBox="0 0 24 22" fill="none" xmlns="http://www.w3.org/2000/svg">
<path d="M12.3649 1.76892C7.15775 3.16561 1.89627 5.32413 0.64437 7.04416C-2.56242 11.4513 6.96549 21.7375 12.3693 21.8172C17.7717 21.8969 20.5338 17.196 22.1497 11.937C26.4264 -1.98709 23.3399 -1.17653 12.3649 1.76892Z" fill="black"/>
<path d="M20.7495 3.54449C20.6483 3.26693 20.3723 3.16801 20.0641 3.14291C19.7339 3.11633 19.4624 3.13995 19.1278 3.18868C15.7816 3.71723 12.5777 4.84374 9.36066 5.86542L7.44539 6.50618C6.93319 6.65973 6.3931 6.84576 5.89557 7.09823C5.81778 6.14151 6.31531 5.14493 7.23406 4.54403L7.17975 4.41263C6.03353 4.90427 5.23954 6.14889 5.39364 7.39351C4.82419 7.77443 4.36042 8.27788 4.14761 8.98656C3.78217 10.2533 4.08597 11.5127 4.64955 12.6658C4.26649 12.9168 3.90839 13.1929 3.55469 13.4911L3.58991 13.5295C3.58991 13.5295 4.31639 12.9817 4.69064 12.7559C5.06929 13.5118 5.55214 14.2072 6.03206 14.8361C7.74773 17.0168 10.1341 18.7058 12.8889 19.2211C16.0839 19.8397 17.4444 16.0748 18.3426 13.7008C18.8621 11.9615 21.0621 6.8118 19.4976 5.20398C19.8499 4.93823 20.1933 4.65476 20.5074 4.29746C20.6057 4.1572 20.7495 4.01399 20.7745 3.77334C20.7833 3.68623 20.7642 3.58731 20.7495 3.54597V3.54449ZM5.54921 8.00327C5.57269 8.06233 5.59177 8.12138 5.62112 8.18044C6.37842 9.8798 8.49476 10.3744 10.1385 10.1588C10.1708 10.2563 10.2046 10.3596 10.2412 10.4704C8.45953 10.8587 6.71304 11.4374 5.16028 12.3498C4.36629 10.7258 4.25769 9.10615 5.54921 8.00475V8.00327ZM19.0926 9.67605C18.2663 12.1845 17.5222 14.8597 16.0912 17.0788C15.3662 18.2334 14.4695 18.7043 13.4774 18.6261C11.659 18.4844 9.89048 17.4538 9.18601 16.9474C7.68168 15.8637 6.07315 14.1629 5.20872 12.4458C6.77468 11.5629 8.51677 10.9945 10.2941 10.6298C10.4379 11.0609 10.6067 11.5614 10.7872 12.0915C9.83031 11.8257 8.97174 11.7844 8.00016 11.8405L7.99429 11.9054C8.27314 11.966 8.55053 12.0191 8.82351 12.0944C9.61016 12.2893 10.1356 12.4591 11.0132 12.7529C11.6282 14.5512 12.2842 16.4395 12.4163 16.7968L12.5293 16.7614C12.3268 16.1413 12.1374 15.4917 11.9628 14.9971C11.7837 14.4198 11.546 13.652 11.2979 12.8489C11.477 12.9094 11.6663 12.9729 11.8791 13.0438C12.8727 13.3774 13.8399 13.779 14.8966 13.8809C15.1446 13.8868 15.4235 13.8883 15.5967 13.6432C15.695 13.4911 15.6803 13.2445 15.648 13.0497C15.5438 12.431 15.0463 11.8375 15.2092 11.2396C15.3207 10.9281 15.5967 10.9694 15.8241 10.807C15.9239 10.742 15.8784 10.5678 15.7816 10.522C15.0991 10.1588 14.358 9.95952 13.746 9.51364L13.699 9.56827C14.1833 10.0348 14.8232 10.3345 15.4073 10.652C14.6456 10.9295 14.7586 11.8331 15.0257 12.4547C15.0918 12.6466 15.3193 13.0674 15.3516 13.3346C15.3648 13.4439 15.3017 13.5472 15.1975 13.5797C14.9568 13.6565 14.5546 13.5443 14.3316 13.4867C13.2455 13.1309 12.1448 12.5403 11.0954 12.1874C10.9222 11.6264 10.7549 11.0742 10.6023 10.5678C11.4873 10.3965 12.3752 10.2696 13.2514 10.1736L13.4407 10.1559C13.2352 9.84879 12.952 9.60223 12.5997 9.49445C11.8483 9.31285 11.0925 9.64062 10.3366 9.66424C10.3234 9.61847 10.3073 9.56384 10.2941 9.51955L10.2354 9.32319C10.2236 9.27594 10.2148 9.22574 10.2633 9.21246C11.3361 8.84926 12.5675 8.91127 13.7049 8.77248C15.4836 7.7951 17.2419 6.7867 18.9135 5.63067C19.0089 5.56128 19.1058 5.49189 19.2012 5.42249C20.0964 6.28177 19.4052 8.53183 19.0955 9.67457L19.0926 9.67605ZM10.4673 10.1234C11.4051 9.97429 12.3444 9.42949 13.018 9.99348C12.2005 10.1013 11.3743 10.2327 10.5509 10.4024C10.523 10.3094 10.4937 10.212 10.4673 10.1234ZM20.1933 3.87521C19.9423 4.27089 19.5108 4.5957 19.0911 4.9028C18.8034 4.74777 18.4248 4.73448 18.1019 4.74777C17.3857 4.77878 16.671 5.06225 16.0135 5.29109C15.3119 5.56275 14.6295 5.87132 13.9529 6.19023L13.9896 6.28029C15.2943 5.73254 16.6211 5.21432 18.0153 5.08144C18.2678 5.06372 18.4806 5.08439 18.6655 5.13312C18.7095 5.1464 18.7506 5.15969 18.7506 5.15969C18.7506 5.15969 18.7139 5.18627 18.6787 5.21432C17.0232 6.38069 15.265 7.4068 13.4979 8.39304C12.836 8.396 11.0807 8.5274 10.1077 8.89355C10.024 8.92455 9.81269 9.07958 9.85232 9.2597C9.88021 9.37781 9.93304 9.51512 9.96533 9.62585C9.96973 9.63914 9.9756 9.65686 9.98001 9.67015C8.9688 9.68786 7.94146 9.54022 7.12692 9.01462C6.55014 8.65732 6.19497 8.18192 6.01885 7.6696C6.48703 7.41123 7.17828 7.21782 7.62885 7.04951C10.7857 5.98796 14.016 4.88951 17.2419 4.08338C18.1445 3.8944 19.2158 3.57107 20.095 3.67294C20.1918 3.68475 20.2476 3.79401 20.1948 3.87669L20.1933 3.87521Z" fill="white"/>
</svg>
